Work Sans-Bold.ufo
<glyph name="numbersign" format="1">
  <advance width="741"/>
  <unicode hex="0023"/>
  <outline>
	<contour>
	  <point x="486" y="660" type="line"/>
	  <point x="362" y="0" type="line"/>
	  <point x="519" y="0" type="line"/>
	  <point x="644" y="660" type="line"/>
	</contour>
	<contour>
	  <point x="30" y="271" type="line"/>
	  <point x="30" y="142" type="line"/>
	  <point x="669" y="142" type="line"/>
	  <point x="669" y="271" type="line"/>
	</contour>
	<contour>
	  <point x="223" y="660" type="line"/>
	  <point x="99" y="0" type="line"/>
	  <point x="257" y="0" type="line"/>
	  <point x="381" y="660" type="line"/>
	</contour>
	<contour>
	  <point x="72" y="518" type="line"/>
	  <point x="72" y="389" type="line"/>
	  <point x="711" y="389" type="line"/>
	  <point x="711" y="518" type="line"/>
	</contour>
  </outline>
</glyph>
<glyph name="dollar" format="1">
  <advance width="653"/>
  <unicode hex="0024"/>
  <outline>
	<contour>
	  <point x="141" y="660"/>
	  <point x="30" y="573"/>
	  <point x="30" y="450" type="curve" smooth="yes"/>
	  <point x="30" y="200"/>
	  <point x="432" y="279"/>
	  <point x="432" y="188" type="curve" smooth="yes"/>
	  <point x="432" y="164"/>
	  <point x="398" y="148"/>
	  <point x="326" y="148" type="curve" smooth="yes"/>
	  <point x="227" y="148"/>
	  <point x="151" y="175"/>
	  <point x="102" y="235" type="curve"/>
	  <point x="11" y="96" type="line"/>
	  <point x="85" y="34"/>
	  <point x="171" y="0"/>
	  <point x="340" y="0" type="curve" smooth="yes"/>
	  <point x="506" y="0"/>
	  <point x="639" y="69"/>
	  <point x="639" y="197" type="curve" smooth="yes"/>
	  <point x="639" y="452"/>
	  <point x="238" y="377"/>
	  <point x="238" y="464" type="curve" smooth="yes"/>
	  <point x="238" y="492"/>
	  <point x="280" y="512"/>
	  <point x="347" y="512" type="curve" smooth="yes"/>
	  <point x="434" y="512"/>
	  <point x="499" y="489"/>
	  <point x="551" y="426" type="curve"/>
	  <point x="649" y="552" type="line"/>
	  <point x="582" y="613"/>
	  <point x="508" y="660"/>
	  <point x="341" y="660" type="curve" smooth="yes"/>
	</contour>
	<contour>
	  <point x="279" y="740" type="line"/>
	  <point x="279" y="-80" type="line"/>
	  <point x="394" y="-80" type="line"/>
	  <point x="394" y="740" type="line"/>
	</contour>
  </outline>
</glyph>
<glyph name="parenleft" format="1">
  <advance width="418"/>
  <unicode hex="0028"/>
  <outline>
	<contour>
	  <point x="158" y="637"/>
	  <point x="71" y="486"/>
	  <point x="71" y="267" type="curve" smooth="yes"/>
	  <point x="71" y="47"/>
	  <point x="158" y="-103"/>
	  <point x="318" y="-193" type="curve"/>
	  <point x="421" y="-93" type="line"/>
	  <point x="320" y="-4"/>
	  <point x="272" y="95"/>
	  <point x="272" y="267" type="curve" smooth="yes"/>
	  <point x="272" y="438"/>
	  <point x="320" y="537"/>
	  <point x="421" y="626" type="curve"/>
	  <point x="318" y="726" type="line"/>
	</contour>
  </outline>
</glyph>
<glyph name="asterisk" format="1">
  <advance width="599"/>
  <unicode hex="002A"/>
  <outline>
	<contour>
	  <point x="299" y="431" type="line"/>
	  <point x="262" y="404" type="line"/>
	  <point x="305" y="299" type="line"/>
	  <point x="387" y="176" type="line"/>
	  <point x="515" y="269" type="line"/>
	  <point x="424" y="385" type="line"/>
	  <point x="336" y="459" type="line"/>
	</contour>
	<contour>
	  <point x="175" y="385" type="line"/>
	  <point x="83" y="269" type="line"/>
	  <point x="211" y="176" type="line"/>
	  <point x="293" y="299" type="line"/>
	  <point x="336" y="404" type="line"/>
	  <point x="299" y="431" type="line"/>
	  <point x="262" y="459" type="line"/>
	</contour>
	<contour>
	  <point x="29" y="436" type="line"/>
	  <point x="171" y="396" type="line"/>
	  <point x="285" y="388" type="line"/>
	  <point x="299" y="431" type="line"/>
	  <point x="313" y="475" type="line"/>
	  <point x="216" y="535" type="line"/>
	  <point x="78" y="587" type="line"/>
	</contour>
	<contour>
	  <point x="220" y="690" type="line"/>
	  <point x="226" y="543" type="line"/>
	  <point x="253" y="431" type="line"/>
	  <point x="299" y="431" type="line"/>
	  <point x="345" y="431" type="line"/>
	  <point x="372" y="543" type="line"/>
	  <point x="378" y="690" type="line"/>
	</contour>
	<contour>
	  <point x="382" y="535" type="line"/>
	  <point x="285" y="475" type="line"/>
	  <point x="299" y="431" type="line"/>
	  <point x="313" y="388" type="line"/>
	  <point x="427" y="396" type="line"/>
	  <point x="570" y="436" type="line"/>
	  <point x="521" y="587" type="line"/>
	</contour>
  </outline>
</glyph>
<glyph name="plus" format="1">
  <advance width="697"/>
  <unicode hex="002B"/>
  <outline>
	<contour>
	  <point x="261" y="626" type="line"/>
	  <point x="261" y="35" type="line"/>
	  <point x="436" y="35" type="line"/>
	  <point x="436" y="626" type="line"/>
	</contour>
	<contour>
	  <point x="48" y="413" type="line"/>
	  <point x="48" y="248" type="line"/>
	  <point x="649" y="248" type="line"/>
	  <point x="649" y="413" type="line"/>
	</contour>
  </outline>
</glyph>
<glyph name="comma" format="1">
  <advance width="306"/>
  <unicode hex="002C"/>
  <outline>
	<contour>
	  <point x="74" y="206"/>
	  <point x="25" y="170"/>
	  <point x="25" y="93" type="curve" smooth="yes"/>
	  <point x="25" y="25"/>
	  <point x="77" y="-4"/>
	  <point x="127" y="-4" type="curve" smooth="yes"/>
	  <point x="140" y="-4"/>
	  <point x="150" y="0"/>
	  <point x="159" y="10" type="curve"/>
	  <point x="164" y="6" type="line"/>
	  <point x="141" y="-46"/>
	  <point x="88" y="-77"/>
	  <point x="22" y="-104" type="curve"/>
	  <point x="119" y="-166" type="line"/>
	  <point x="223" y="-124"/>
	  <point x="278" y="-40"/>
	  <point x="278" y="57" type="curve" smooth="yes"/>
	  <point x="278" y="148"/>
	  <point x="239" y="206"/>
	  <point x="148" y="206" type="curve" smooth="yes"/>
	</contour>
  </outline>
</glyph>
<glyph name="hyphen" format="1">
  <advance width="540"/>
  <unicode hex="002D"/>
  <outline>
	<contour>
	  <point x="75" y="359" type="line"/>
	  <point x="75" y="184" type="line"/>
	  <point x="465" y="184" type="line"/>
	  <point x="465" y="359" type="line"/>
	</contour>
  </outline>
</glyph>
<glyph name="slash" format="1">
  <advance width="488"/>
  <unicode hex="002F"/>
  <outline>
	<contour>
	  <point x="274" y="730" type="line"/>
	  <point x="1" y="-70" type="line"/>
	  <point x="214" y="-70" type="line"/>
	  <point x="487" y="730" type="line"/>
	</contour>
  </outline>
</glyph>
<glyph name="zero" format="1">
  <advance width="667"/>
  <unicode hex="0030"/>
  <outline>
	<contour>
	  <point x="134" y="670"/>
	  <point x="36" y="557"/>
	  <point x="36" y="330" type="curve" smooth="yes"/>
	  <point x="36" y="103"/>
	  <point x="134" y="-10"/>
	  <point x="334" y="-10" type="curve" smooth="yes"/>
	  <point x="533" y="-10"/>
	  <point x="631" y="103"/>
	  <point x="631" y="330" type="curve" smooth="yes"/>
	  <point x="631" y="557"/>
	  <point x="533" y="670"/>
	  <point x="334" y="670" type="curve" smooth="yes"/>
	</contour>
	<contour>
	  <point x="384" y="495"/>
	  <point x="398" y="460"/>
	  <point x="398" y="330" type="curve" smooth="yes"/>
	  <point x="398" y="200"/>
	  <point x="384" y="165"/>
	  <point x="333" y="165" type="curve" smooth="yes"/>
	  <point x="283" y="165"/>
	  <point x="269" y="200"/>
	  <point x="269" y="330" type="curve" smooth="yes"/>
	  <point x="269" y="460"/>
	  <point x="283" y="495"/>
	  <point x="333" y="495" type="curve" smooth="yes"/>
	</contour>
  </outline>
</glyph>
<glyph name="two" format="1">
  <advance width="605"/>
  <unicode hex="0032"/>
  <outline>
	<contour>
	  <point x="151" y="670"/>
	  <point x="24" y="593"/>
	  <point x="29" y="426" type="curve"/>
	  <point x="228" y="378" type="line"/>
	  <point x="225" y="459"/>
	  <point x="247" y="495"/>
	  <point x="292" y="495" type="curve" smooth="yes"/>
	  <point x="332" y="495"/>
	  <point x="346" y="467"/>
	  <point x="346" y="435" type="curve" smooth="yes"/>
	  <point x="346" y="358"/>
	  <point x="252" y="246"/>
	  <point x="50" y="140" type="curve"/>
	  <point x="217" y="97" type="line"/>
	  <point x="458" y="234"/>
	  <point x="575" y="306"/>
	  <point x="575" y="458" type="curve" smooth="yes"/>
	  <point x="575" y="545"/>
	  <point x="509" y="670"/>
	  <point x="308" y="670" type="curve" smooth="yes"/>
	</contour>
	<contour>
	  <point x="416" y="169" type="line"/>
	  <point x="51" y="140" type="line"/>
	  <point x="51" y="0" type="line"/>
	  <point x="416" y="0" type="line"/>
	  <point x="579" y="0" type="line"/>
	  <point x="579" y="169" type="line"/>
	</contour>
  </outline>
</glyph>
<glyph name="three" format="1">
  <advance width="600"/>
  <unicode hex="0033"/>
  <outline>
	<contour>
	  <point x="158" y="670"/>
	  <point x="42" y="626"/>
	  <point x="26" y="479" type="curve"/>
	  <point x="227" y="417" type="line"/>
	  <point x="226" y="482"/>
	  <point x="253" y="499"/>
	  <point x="284" y="499" type="curve" smooth="yes"/>
	  <point x="308" y="499"/>
	  <point x="325" y="479"/>
	  <point x="325" y="446" type="curve" smooth="yes"/>
	  <point x="325" y="410"/>
	  <point x="311" y="392"/>
	  <point x="274" y="392" type="curve" smooth="yes"/>
	  <point x="242" y="392" type="line"/>
	  <point x="242" y="260" type="line"/>
	  <point x="287" y="259" type="line" smooth="yes"/>
	  <point x="325" y="258"/>
	  <point x="337" y="245"/>
	  <point x="338" y="216" type="curve" smooth="yes"/>
	  <point x="338" y="178"/>
	  <point x="316" y="161"/>
	  <point x="288" y="161" type="curve" smooth="yes"/>
	  <point x="255" y="161"/>
	  <point x="224" y="174"/>
	  <point x="227" y="243" type="curve"/>
	  <point x="17" y="158" type="line"/>
	  <point x="51" y="34"/>
	  <point x="142" y="-10"/>
	  <point x="299" y="-10" type="curve" smooth="yes"/>
	  <point x="452" y="-10"/>
	  <point x="571" y="63"/>
	  <point x="571" y="182" type="curve" smooth="yes"/>
	  <point x="571" y="321"/>
	  <point x="453" y="329"/>
	  <point x="435" y="329" type="curve"/>
	  <point x="435" y="331" type="line"/>
	  <point x="451" y="331"/>
	  <point x="559" y="354"/>
	  <point x="559" y="476" type="curve" smooth="yes"/>
	  <point x="559" y="602"/>
	  <point x="465" y="670"/>
	  <point x="304" y="670" type="curve" smooth="yes"/>
	</contour>
  </outline>
</glyph>
<glyph name="four" format="1">
  <advance width="670"/>
  <unicode hex="0034"/>
  <outline>
	<contour>
	  <point x="296" y="660" type="line"/>
	  <point x="26" y="222" type="line"/>
	  <point x="201" y="221" type="line"/>
	  <point x="273" y="331" type="line"/>
	  <point x="327" y="427" type="line"/>
	  <point x="433" y="660" type="line"/>
	</contour>
	<contour>
	  <point x="192" y="277" type="line"/>
	  <point x="26" y="222" type="line"/>
	  <point x="26" y="126" type="line"/>
	  <point x="192" y="126" type="line"/>
	  <point x="654" y="126" type="line"/>
	  <point x="654" y="277" type="line"/>
	</contour>
	<contour>
	  <point x="380" y="660" type="line"/>
	  <point x="365" y="405" type="line"/>
	  <point x="365" y="0" type="line"/>
	  <point x="565" y="0" type="line"/>
	  <point x="565" y="509" type="line"/>
	  <point x="565" y="660" type="line"/>
	</contour>
  </outline>
</glyph>
<glyph name="seven" format="1">
  <advance width="650"/>
  <unicode hex="0037"/>
  <outline>
	<contour>
	  <point x="280" y="399"/>
	  <point x="193" y="263"/>
	  <point x="193" y="0" type="curve"/>
	  <point x="414" y="0" type="line"/>
	  <point x="414" y="199"/>
	  <point x="460" y="346"/>
	  <point x="624" y="489" type="curve"/>
	  <point x="522" y="587" type="line"/>
	</contour>
	<contour>
	  <point x="43" y="660" type="line"/>
	  <point x="43" y="489" type="line"/>
	  <point x="625" y="489" type="line"/>
	  <point x="625" y="660" type="line"/>
	</contour>
  </outline>
</glyph>
<glyph name="nine" format="1">
  <advance width="615"/>
  <unicode hex="0039"/>
  <outline>
	<contour>
	  <point x="128" y="670"/>
	  <point x="29" y="585"/>
	  <point x="29" y="440" type="curve" smooth="yes"/>
	  <point x="29" y="313"/>
	  <point x="127" y="232"/>
	  <point x="231" y="232" type="curve" smooth="yes"/>
	  <point x="295" y="232"/>
	  <point x="337" y="251"/>
	  <point x="360" y="285" type="curve"/>
	  <point x="364" y="285" type="line"/>
	  <point x="367" y="191"/>
	  <point x="341" y="155"/>
	  <point x="292" y="155" type="curve" smooth="yes"/>
	  <point x="258" y="155"/>
	  <point x="239" y="167"/>
	  <point x="233" y="204" type="curve"/>
	  <point x="32" y="128" type="line"/>
	  <point x="76" y="23"/>
	  <point x="168" y="-10"/>
	  <point x="287" y="-10" type="curve" smooth="yes"/>
	  <point x="462" y="-10"/>
	  <point x="579" y="108"/>
	  <point x="579" y="324" type="curve" smooth="yes"/>
	  <point x="579" y="567"/>
	  <point x="462" y="670"/>
	  <point x="298" y="670" type="curve" smooth="yes"/>
	</contour>
	<contour>
	  <point x="339" y="505"/>
	  <point x="361" y="484"/>
	  <point x="361" y="448" type="curve" smooth="yes"/>
	  <point x="361" y="412"/>
	  <point x="339" y="392"/>
	  <point x="300" y="392" type="curve" smooth="yes"/>
	  <point x="260" y="392"/>
	  <point x="239" y="412"/>
	  <point x="239" y="448" type="curve" smooth="yes"/>
	  <point x="239" y="485"/>
	  <point x="260" y="505"/>
	  <point x="300" y="505" type="curve" smooth="yes"/>
	</contour>
  </outline>
</glyph>
<glyph name="less" format="1">
  <advance width="697"/>
  <unicode hex="003C"/>
  <outline>
	<contour>
	  <point x="68" y="442" type="line"/>
	  <point x="68" y="301" type="line"/>
	  <point x="387" y="360" type="line"/>
	  <point x="639" y="420" type="line"/>
	  <point x="639" y="666" type="line"/>
	</contour>
	<contour>
	  <point x="68" y="219" type="line"/>
	  <point x="639" y="-5" type="line"/>
	  <point x="639" y="241" type="line"/>
	  <point x="387" y="301" type="line"/>
	  <point x="68" y="360" type="line"/>
	</contour>
  </outline>
</glyph>
<glyph name="A" format="1">
  <advance width="689"/>
  <unicode hex="0041"/>
  <outline>
	<contour>
	  <point x="204" y="660" type="line"/>
	  <point x="-10" y="0" type="line"/>
	  <point x="222" y="0" type="line"/>
	  <point x="315" y="379" type="line"/>
	  <point x="340" y="491" type="line"/>
	  <point x="345" y="491" type="line"/>
	  <point x="371" y="379" type="line"/>
	  <point x="461" y="0" type="line"/>
	  <point x="699" y="0" type="line"/>
	  <point x="484" y="660" type="line"/>
	</contour>
	<contour>
	  <point x="157" y="271" type="line"/>
	  <point x="157" y="126" type="line"/>
	  <point x="534" y="126" type="line"/>
	  <point x="534" y="271" type="line"/>
	</contour>
	<contour>
	  <point x="699" y="0" type="move" name="ogonek"/>
	</contour>
	<contour>
	  <point x="344" y="660" type="move" name="top"/>
	</contour>
  </outline>
</glyph>
<glyph name="D" format="1">
  <advance width="716"/>
  <unicode hex="0044"/>
  <outline>
	<contour>
	  <point x="218" y="660" type="line"/>
	  <point x="218" y="494" type="line"/>
	  <point x="341" y="494" type="line" smooth="yes"/>
	  <point x="427" y="494"/>
	  <point x="449" y="443"/>
	  <point x="449" y="330" type="curve" smooth="yes"/>
	  <point x="449" y="217"/>
	  <point x="427" y="166"/>
	  <point x="341" y="166" type="curve" smooth="yes"/>
	  <point x="218" y="166" type="line"/>
	  <point x="218" y="0" type="line"/>
	  <point x="374" y="0" type="line" smooth="yes"/>
	  <point x="581" y="0"/>
	  <point x="687" y="120"/>
	  <point x="687" y="330" type="curve" smooth="yes"/>
	  <point x="687" y="540"/>
	  <point x="581" y="660"/>
	  <point x="374" y="660" type="curve" smooth="yes"/>
	</contour>
	<contour>
	  <point x="50" y="660" type="line"/>
	  <point x="50" y="0" type="line"/>
	  <point x="283" y="0" type="line"/>
	  <point x="283" y="660" type="line"/>
	</contour>
	<contour>
	  <point x="15" y="14" type="move" name="center"/>
	</contour>
	<contour>
	  <point x="331" y="660" type="move" name="top"/>
	</contour>
  </outline>
</glyph>
<glyph name="E" format="1">
  <advance width="626"/>
  <unicode hex="0045"/>
  <outline>
	<contour>
	  <point x="50" y="660" type="line"/>
	  <point x="50" y="0" type="line"/>
	  <point x="283" y="0" type="line"/>
	  <point x="283" y="660" type="line"/>
	</contour>
	<contour>
	  <point x="162" y="171" type="line"/>
	  <point x="162" y="0" type="line"/>
	  <point x="610" y="0" type="line"/>
	  <point x="610" y="171" type="line"/>
	</contour>
	<contour>
	  <point x="162" y="407" type="line"/>
	  <point x="162" y="249" type="line"/>
	  <point x="537" y="249" type="line"/>
	  <point x="537" y="407" type="line"/>
	</contour>
	<contour>
	  <point x="162" y="660" type="line"/>
	  <point x="162" y="489" type="line"/>
	  <point x="598" y="489" type="line"/>
	  <point x="598" y="660" type="line"/>
	</contour>
	<contour>
	  <point x="611" y="0" type="move" name="ogonek"/>
	</contour>
	<contour>
	  <point x="329" y="0" type="move" name="bottom"/>
	</contour>
	<contour>
	  <point x="313" y="660" type="move" name="top"/>
	</contour>
  </outline>
</glyph>
<glyph name="G" format="1">
  <advance width="722"/>
  <unicode hex="0047"/>
  <outline>
	<contour>
	  <point x="156" y="670"/>
	  <point x="29" y="544"/>
	  <point x="29" y="328" type="curve" smooth="yes"/>
	  <point x="29" y="103"/>
	  <point x="165" y="-10"/>
	  <point x="336" y="-10" type="curve" smooth="yes"/>
	  <point x="486" y="-10"/>
	  <point x="549" y="79"/>
	  <point x="549" y="228" type="curve"/>
	  <point x="482" y="228" type="line"/>
	  <point x="482" y="181"/>
	  <point x="444" y="159"/>
	  <point x="387" y="159" type="curve" smooth="yes"/>
	  <point x="306" y="159"/>
	  <point x="267" y="205"/>
	  <point x="267" y="330" type="curve" smooth="yes"/>
	  <point x="267" y="445"/>
	  <point x="304" y="495"/>
	  <point x="381" y="495" type="curve" smooth="yes"/>
	  <point x="425" y="495"/>
	  <point x="457" y="470"/>
	  <point x="466" y="411" type="curve"/>
	  <point x="679" y="489" type="line"/>
	  <point x="625" y="619"/>
	  <point x="534" y="670"/>
	  <point x="371" y="670" type="curve" smooth="yes"/>
	</contour>
	<contour>
	  <point x="677" y="143" type="line"/>
	  <point x="677" y="166" type="line"/>
	  <point x="677" y="372" type="line"/>
	  <point x="482" y="372" type="line"/>
	  <point x="482" y="166" type="line"/>
	  <point x="507" y="143" type="line"/>
	  <point x="523" y="0" type="line"/>
	  <point x="677" y="0" type="line"/>
	</contour>
	<contour>
	  <point x="371" y="229" type="line"/>
	  <point x="677" y="229" type="line"/>
	  <point x="677" y="372" type="line"/>
	  <point x="371" y="372" type="line"/>
	</contour>
	<contour>
	  <point x="364" y="660" type="move" name="top"/>
	</contour>
	<contour>
	  <point x="379" y="0" type="move" name="bottom"/>
	</contour>
  </outline>
</glyph>
<glyph name="I" format="1">
  <advance width="333"/>
  <unicode hex="0049"/>
  <outline>
	<contour>
	  <point x="50" y="660" type="line"/>
	  <point x="50" y="0" type="line"/>
	  <point x="283" y="0" type="line"/>
	  <point x="283" y="660" type="line"/>
	</contour>
	<contour>
	  <point x="283" y="0" type="move" name="ogonek"/>
	</contour>
	<contour>
	  <point x="166" y="660" type="move" name="top"/>
	</contour>
  </outline>
</glyph>
<glyph name="L" format="1">
  <advance width="605"/>
  <unicode hex="004C"/>
  <outline>
	<contour>
	  <point x="50" y="660" type="line"/>
	  <point x="50" y="0" type="line"/>
	  <point x="283" y="0" type="line"/>
	  <point x="283" y="660" type="line"/>
	</contour>
	<contour>
	  <point x="162" y="171" type="line"/>
	  <point x="162" y="0" type="line"/>
	  <point x="581" y="0" type="line"/>
	  <point x="582" y="171" type="line"/>
	</contour>
	<contour>
	  <point x="166" y="660" type="move" name="top"/>
	</contour>
	<contour>
	  <point x="318" y="0" type="move" name="bottom"/>
	</contour>
	<contour>
	  <point x="388" y="701" type="move" name="topright"/>
	</contour>
  </outline>
</glyph>
<glyph name="M" format="1">
  <advance width="948"/>
  <unicode hex="004D"/>
  <outline>
	<contour>
	  <point x="588" y="660" type="line"/>
	  <point x="512" y="367" type="line"/>
	  <point x="483" y="244" type="line"/>
	  <point x="481" y="244" type="line"/>
	  <point x="452" y="367" type="line"/>
	  <point x="376" y="660" type="line"/>
	  <point x="50" y="660" type="line"/>
	  <point x="50" y="0" type="line"/>
	  <point x="254" y="0" type="line"/>
	  <point x="254" y="229" type="line"/>
	  <point x="251" y="451" type="line"/>
	  <point x="255" y="451" type="line"/>
	  <point x="331" y="176" type="line"/>
	  <point x="381" y="0" type="line"/>
	  <point x="567" y="0" type="line"/>
	  <point x="618" y="175" type="line"/>
	  <point x="695" y="451" type="line"/>
	  <point x="698" y="451" type="line"/>
	  <point x="695" y="229" type="line"/>
	  <point x="695" y="0" type="line"/>
	  <point x="898" y="0" type="line"/>
	  <point x="898" y="660" type="line"/>
	</contour>
  </outline>
</glyph>
<glyph name="N" format="1">
  <advance width="746"/>
  <unicode hex="004E"/>
  <outline>
	<contour>
	  <point x="494" y="660" type="line"/>
	  <point x="494" y="415" type="line"/>
	  <point x="499" y="279" type="line"/>
	  <point x="496" y="279" type="line"/>
	  <point x="458" y="359" type="line"/>
	  <point x="302" y="660" type="line"/>
	  <point x="50" y="660" type="line"/>
	  <point x="50" y="0" type="line"/>
	  <point x="252" y="0" type="line"/>
	  <point x="252" y="245" type="line"/>
	  <point x="247" y="381" type="line"/>
	  <point x="250" y="381" type="line"/>
	  <point x="288" y="300" type="line"/>
	  <point x="444" y="0" type="line"/>
	  <point x="696" y="0" type="line"/>
	  <point x="696" y="660" type="line"/>
	</contour>
	<contour>
	  <point x="373" y="660" type="move" name="top"/>
	</contour>
	<contour>
	  <point x="374" y="0" type="move" name="bottom"/>
	</contour>
  </outline>
</glyph>
<glyph name="O" format="1">
  <advance width="729"/>
  <unicode hex="004F"/>
  <outline>
	<contour>
	  <point x="156" y="670"/>
	  <point x="29" y="546"/>
	  <point x="29" y="330" type="curve" smooth="yes"/>
	  <point x="29" y="114"/>
	  <point x="156" y="-10"/>
	  <point x="365" y="-10" type="curve" smooth="yes"/>
	  <point x="575" y="-10"/>
	  <point x="700" y="114"/>
	  <point x="700" y="330" type="curve" smooth="yes"/>
	  <point x="700" y="546"/>
	  <point x="575" y="670"/>
	  <point x="365" y="670" type="curve" smooth="yes"/>
	</contour>
	<contour>
	  <point x="433" y="495"/>
	  <point x="462" y="445"/>
	  <point x="462" y="330" type="curve" smooth="yes"/>
	  <point x="462" y="215"/>
	  <point x="433" y="165"/>
	  <point x="365" y="165" type="curve" smooth="yes"/>
	  <point x="297" y="165"/>
	  <point x="267" y="215"/>
	  <point x="267" y="330" type="curve" smooth="yes"/>
	  <point x="267" y="445"/>
	  <point x="297" y="495"/>
	  <point x="365" y="495" type="curve" smooth="yes"/>
	</contour>
	<contour>
	  <point x="365" y="660" type="move" name="top"/>
	</contour>
  </outline>
</glyph>
<glyph name="Q" format="1">
  <advance width="729"/>
  <unicode hex="0051"/>
  <outline>
	<contour>
	  <point x="300" y="19" type="line"/>
	  <point x="265" y="-99"/>
	  <point x="323" y="-210"/>
	  <point x="506" y="-210" type="curve" smooth="yes"/>
	  <point x="599" y="-210"/>
	  <point x="656" y="-190"/>
	  <point x="692" y="-160" type="curve"/>
	  <point x="640" y="-1" type="line"/>
	  <point x="612" y="-26"/>
	  <point x="573" y="-40"/>
	  <point x="514" y="-40" type="curve" smooth="yes"/>
	  <point x="447" y="-40"/>
	  <point x="419" y="-23"/>
	  <point x="433" y="28" type="curve"/>
	</contour>
	<component base="O"/>
  </outline>
</glyph>
<glyph name="T" format="1">
  <advance width="686"/>
  <unicode hex="0054"/>
  <outline>
	<contour>
	  <point x="227" y="660" type="line"/>
	  <point x="227" y="0" type="line"/>
	  <point x="460" y="0" type="line"/>
	  <point x="460" y="660" type="line"/>
	</contour>
	<contour>
	  <point x="20" y="660" type="line"/>
	  <point x="20" y="489" type="line"/>
	  <point x="666" y="489" type="line"/>
	  <point x="665" y="660" type="line"/>
	</contour>
	<contour>
	  <point x="14" y="14" type="move" name="center"/>
	</contour>
	<contour>
	  <point x="326" y="0" type="move" name="bottom"/>
	</contour>
	<contour>
	  <point x="343" y="660" type="move" name="top"/>
	</contour>
  </outline>
</glyph>
<glyph name="W" format="1">
  <advance width="1021"/>
  <unicode hex="0057"/>
  <outline>
	<contour>
	  <point x="787" y="660" type="line"/>
	  <point x="730" y="315" type="line"/>
	  <point x="712" y="186" type="line"/>
	  <point x="688" y="314" type="line"/>
	  <point x="614" y="660" type="line"/>
	  <point x="413" y="660" type="line"/>
	  <point x="343" y="315" type="line"/>
	  <point x="320" y="183" type="line"/>
	  <point x="301" y="313" type="line"/>
	  <point x="243" y="660" type="line"/>
	  <point x="-8" y="660" type="line"/>
	  <point x="179" y="0" type="line"/>
	  <point x="435" y="0" type="line"/>
	  <point x="514" y="397" type="line"/>
	  <point x="594" y="0" type="line"/>
	  <point x="841" y="0" type="line"/>
	  <point x="1029" y="660" type="line"/>
	</contour>
  </outline>
</glyph>
<glyph name="X" format="1">
  <advance width="706"/>
  <unicode hex="0058"/>
  <outline>
	<contour>
	  <point x="442" y="660" type="line"/>
	  <point x="303" y="372" type="line"/>
	  <point x="253" y="367" type="line"/>
	  <point x="4" y="0" type="line"/>
	  <point x="267" y="0" type="line"/>
	  <point x="387" y="262" type="line"/>
	  <point x="434" y="258" type="line"/>
	  <point x="696" y="660" type="line"/>
	</contour>
	<contour>
	  <point x="18" y="660" type="line"/>
	  <point x="278" y="259" type="line"/>
	  <point x="307" y="267" type="line"/>
	  <point x="439" y="0" type="line"/>
	  <point x="706" y="0" type="line"/>
	  <point x="456" y="371" type="line"/>
	  <point x="408" y="390" type="line"/>
	  <point x="279" y="660" type="line"/>
	</contour>
  </outline>
</glyph>
<glyph name="Y" format="1">
  <advance width="713"/>
  <unicode hex="0059"/>
  <outline>
	<contour>
	  <point x="474" y="660" type="line"/>
	  <point x="403" y="509" type="line"/>
	  <point x="357" y="389" type="line"/>
	  <point x="310" y="509" type="line"/>
	  <point x="240" y="660" type="line"/>
	  <point x="9" y="660" type="line"/>
	  <point x="240" y="229" type="line"/>
	  <point x="240" y="0" type="line"/>
	  <point x="473" y="0" type="line"/>
	  <point x="473" y="229" type="line"/>
	  <point x="704" y="660" type="line"/>
	</contour>
	<contour>
	  <point x="356" y="660" type="move" name="top"/>
	</contour>
  </outline>
</glyph>
<glyph name="Z" format="1">
  <advance width="637"/>
  <unicode hex="005A"/>
  <outline>
	<contour>
	  <point x="25" y="159" type="line"/>
	  <point x="153" y="41" type="line"/>
	  <point x="611" y="487" type="line"/>
	  <point x="484" y="604" type="line"/>
	</contour>
	<contour>
	  <point x="25" y="159" type="line"/>
	  <point x="25" y="0" type="line"/>
	  <point x="622" y="0" type="line"/>
	  <point x="622" y="159" type="line"/>
	</contour>
	<contour>
	  <point x="29" y="660" type="line"/>
	  <point x="29" y="487" type="line"/>
	  <point x="611" y="487" type="line"/>
	  <point x="611" y="660" type="line"/>
	</contour>
	<contour>
	  <point x="329" y="660" type="move" name="top"/>
	</contour>
  </outline>
</glyph>
<glyph name="a" format="1">
  <advance width="588"/>
  <unicode hex="0061"/>
  <outline>
	<contour>
	  <point x="115" y="510"/>
	  <point x="32" y="441"/>
	  <point x="22" y="329" type="curve"/>
	  <point x="212" y="300" type="line"/>
	  <point x="214" y="349"/>
	  <point x="237" y="361"/>
	  <point x="265" y="361" type="curve" smooth="yes"/>
	  <point x="294" y="361"/>
	  <point x="310" y="343"/>
	  <point x="310" y="312" type="curve" smooth="yes"/>
	  <point x="310" y="112" type="line"/>
	  <point x="342" y="117" type="line"/>
	  <point x="342" y="32"/>
	  <point x="407" y="-10"/>
	  <point x="505" y="-10" type="curve" smooth="yes"/>
	  <point x="530" y="-10"/>
	  <point x="555" y="-4"/>
	  <point x="579" y="10" type="curve"/>
	  <point x="597" y="127" type="line"/>
	  <point x="591" y="124"/>
	  <point x="583" y="123"/>
	  <point x="572" y="123" type="curve" smooth="yes"/>
	  <point x="550" y="123"/>
	  <point x="538" y="136"/>
	  <point x="538" y="164" type="curve" smooth="yes"/>
	  <point x="538" y="304" type="line" smooth="yes"/>
	  <point x="538" y="441"/>
	  <point x="457" y="510"/>
	  <point x="278" y="510" type="curve" smooth="yes"/>
	</contour>
	<contour>
	  <point x="211" y="270" type="line" smooth="yes"/>
	  <point x="69" y="239"/>
	  <point x="16" y="192"/>
	  <point x="16" y="109" type="curve" smooth="yes"/>
	  <point x="16" y="33"/>
	  <point x="65" y="-10"/>
	  <point x="170" y="-10" type="curve" smooth="yes"/>
	  <point x="312" y="-10"/>
	  <point x="372" y="74"/>
	  <point x="372" y="164" type="curve"/>
	  <point x="310" y="164" type="line"/>
	  <point x="310" y="131"/>
	  <point x="291" y="115"/>
	  <point x="267" y="115" type="curve" smooth="yes"/>
	  <point x="248" y="115"/>
	  <point x="232" y="126"/>
	  <point x="232" y="150" type="curve" smooth="yes"/>
	  <point x="232" y="175"/>
	  <point x="249" y="194"/>
	  <point x="277" y="202" type="curve" smooth="yes"/>
	  <point x="360" y="226" type="line"/>
	  <point x="342" y="299" type="line"/>
	</contour>
	<contour>
	  <point x="579" y="10" type="move" name="ogonek"/>
	</contour>
	<contour>
	  <point x="277" y="500" type="move" name="top"/>
	</contour>
  </outline>
</glyph>
<glyph name="b" format="1">
  <advance width="627"/>
  <unicode hex="0062"/>
  <outline>
	<contour>
	  <point x="39" y="700" type="line"/>
	  <point x="39" y="219" type="line"/>
	  <point x="39" y="0" type="line"/>
	  <point x="241" y="0" type="line"/>
	  <point x="249" y="162" type="line"/>
	  <point x="269" y="219" type="line"/>
	  <point x="269" y="700" type="line"/>
	</contour>
	<component base="bowl" xOffset="682" xScale="-1"/>
  </outline>
</glyph>
<glyph name="c" format="1">
  <advance width="576"/>
  <unicode hex="0063"/>
  <outline>
	<contour>
	  <point x="121" y="510"/>
	  <point x="20" y="416"/>
	  <point x="20" y="250" type="curve" smooth="yes"/>
	  <point x="20" y="84"/>
	  <point x="118" y="-10"/>
	  <point x="309" y="-10" type="curve" smooth="yes"/>
	  <point x="471" y="-10"/>
	  <point x="559" y="63"/>
	  <point x="559" y="147" type="curve"/>
	  <point x="353" y="211" type="line"/>
	  <point x="350" y="168"/>
	  <point x="337" y="145"/>
	  <point x="308" y="145" type="curve" smooth="yes"/>
	  <point x="275" y="145"/>
	  <point x="251" y="161"/>
	  <point x="251" y="247" type="curve" smooth="yes"/>
	  <point x="251" y="330"/>
	  <point x="269" y="355"/>
	  <point x="309" y="355" type="curve" smooth="yes"/>
	  <point x="337" y="355"/>
	  <point x="351" y="331"/>
	  <point x="349" y="278" type="curve"/>
	  <point x="561" y="340" type="line"/>
	  <point x="559" y="421"/>
	  <point x="499" y="510"/>
	  <point x="297" y="510" type="curve" smooth="yes"/>
	</contour>
	<contour>
	  <point x="297" y="500" type="move" name="top"/>
	</contour>
	<contour>
	  <point x="314" y="0" type="move" name="bottom"/>
	</contour>
  </outline>
</glyph>
<glyph name="d" format="1">
  <advance width="627"/>
  <unicode hex="0064"/>
  <outline>
	<contour>
	  <point x="358" y="700" type="line"/>
	  <point x="358" y="219" type="line"/>
	  <point x="369" y="162" type="line"/>
	  <point x="381" y="0" type="line"/>
	  <point x="588" y="0" type="line"/>
	  <point x="588" y="219" type="line"/>
	  <point x="588" y="700" type="line"/>
	</contour>
	<component base="bowl" xOffset="-55"/>
	<contour>
	  <point x="310" y="250" type="move" name="center"/>
	</contour>
	<contour>
	  <point x="643" y="700" type="move" name="topright"/>
	</contour>
  </outline>
</glyph>
<glyph name="e" format="1">
  <advance width="583"/>
  <unicode hex="0065"/>
  <outline>
	<contour>
	  <point x="431" y="-10"/>
	  <point x="531" y="37"/>
	  <point x="554" y="136" type="curve"/>
	  <point x="369" y="186" type="line"/>
	  <point x="362" y="159"/>
	  <point x="343" y="143"/>
	  <point x="309" y="143" type="curve" smooth="yes"/>
	  <point x="261" y="143"/>
	  <point x="238" y="159"/>
	  <point x="238" y="246" type="curve" smooth="yes"/>
	  <point x="238" y="332"/>
	  <point x="255" y="358"/>
	  <point x="298" y="358" type="curve" smooth="yes"/>
	  <point x="341" y="358"/>
	  <point x="349" y="320"/>
	  <point x="349" y="248" type="curve"/>
	  <point x="458" y="291" type="line"/>
	  <point x="168" y="291" type="line"/>
	  <point x="168" y="206" type="line"/>
	  <point x="558" y="206" type="line"/>
	  <point x="561" y="219"/>
	  <point x="563" y="244"/>
	  <point x="563" y="266" type="curve" smooth="yes"/>
	  <point x="563" y="412"/>
	  <point x="473" y="510"/>
	  <point x="297" y="510" type="curve" smooth="yes"/>
	  <point x="121" y="510"/>
	  <point x="20" y="416"/>
	  <point x="20" y="250" type="curve" smooth="yes"/>
	  <point x="20" y="84"/>
	  <point x="118" y="-10"/>
	  <point x="309" y="-10" type="curve" smooth="yes"/>
	</contour>
	<contour>
	  <point x="348" y="36" type="move" name="ogonek"/>
	</contour>
	<contour>
	  <point x="294" y="0" type="move" name="bottom"/>
	</contour>
	<contour>
	  <point x="296" y="500" type="move" name="top"/>
	</contour>
  </outline>
</glyph>
<glyph name="h" format="1">
  <advance width="620"/>
  <unicode hex="0068"/>
  <outline>
	<contour>
	  <point x="39" y="700" type="line"/>
	  <point x="39" y="0" type="line"/>
	  <point x="269" y="0" type="line"/>
	  <point x="269" y="700" type="line"/>
	</contour>
	<contour>
	  <point x="309" y="510"/>
	  <point x="248" y="418"/>
	  <point x="248" y="262" type="curve"/>
	  <point x="269" y="262" type="line"/>
	  <point x="269" y="316"/>
	  <point x="284" y="341"/>
	  <point x="317" y="341" type="curve" smooth="yes"/>
	  <point x="341" y="341"/>
	  <point x="352" y="327"/>
	  <point x="352" y="282" type="curve" smooth="yes"/>
	  <point x="352" y="0" type="line"/>
	  <point x="582" y="0" type="line"/>
	  <point x="582" y="342" type="line" smooth="yes"/>
	  <point x="582" y="449"/>
	  <point x="524" y="510"/>
	  <point x="425" y="510" type="curve" smooth="yes"/>
	</contour>
  </outline>
</glyph>
<glyph name="j" format="1">
  <advance width="306"/>
  <unicode hex="006A"/>
  <outline>
	<contour>
	  <point x="39" y="500" type="line"/>
	  <point x="39" y="7" type="line" smooth="yes"/>
	  <point x="39" y="-44"/>
	  <point x="17" y="-64"/>
	  <point x="-25" y="-64" type="curve" smooth="yes"/>
	  <point x="-45" y="-64"/>
	  <point x="-65" y="-59"/>
	  <point x="-76" y="-51" type="curve"/>
	  <point x="-104" y="-184" type="line"/>
	  <point x="-63" y="-206"/>
	  <point x="-15" y="-215"/>
	  <point x="48" y="-215" type="curve" smooth="yes"/>
	  <point x="203" y="-215"/>
	  <point x="269" y="-155"/>
	  <point x="269" y="-13" type="curve" smooth="yes"/>
	  <point x="269" y="500" type="line"/>
	</contour>
	<contour>
	  <point x="62" y="724"/>
	  <point x="29" y="698"/>
	  <point x="29" y="628" type="curve" smooth="yes"/>
	  <point x="29" y="558"/>
	  <point x="62" y="532"/>
	  <point x="153" y="532" type="curve" smooth="yes"/>
	  <point x="246" y="532"/>
	  <point x="279" y="558"/>
	  <point x="279" y="628" type="curve" smooth="yes"/>
	  <point x="279" y="698"/>
	  <point x="246" y="724"/>
	  <point x="153" y="724" type="curve" smooth="yes"/>
	</contour>
  </outline>
</glyph>
<glyph name="k" format="1">
  <advance width="658"/>
  <unicode hex="006B"/>
  <outline>
	<contour>
	  <point x="415" y="500" type="line"/>
	  <point x="234" y="281" type="line"/>
	  <point x="237" y="58" type="line"/>
	  <point x="366" y="215" type="line"/>
	  <point x="406" y="218" type="line"/>
	  <point x="662" y="500" type="line"/>
	</contour>
	<contour>
	  <point x="39" y="700" type="line"/>
	  <point x="39" y="0" type="line"/>
	  <point x="269" y="0" type="line"/>
	  <point x="269" y="700" type="line"/>
	</contour>
	<contour>
	  <point x="305" y="230" type="line"/>
	  <point x="423" y="0" type="line"/>
	  <point x="673" y="0" type="line"/>
	  <point x="445" y="366" type="line"/>
	</contour>
	<contour>
	  <point x="337" y="0" type="move" name="bottom"/>
	</contour>
  </outline>
</glyph>
<glyph name="p" format="1">
  <advance width="627"/>
  <unicode hex="0070"/>
  <outline>
	<contour>
	  <point x="39" y="500" type="line"/>
	  <point x="39" y="281" type="line"/>
	  <point x="39" y="-210" type="line"/>
	  <point x="269" y="-210" type="line"/>
	  <point x="269" y="281" type="line"/>
	  <point x="249" y="338" type="line"/>
	  <point x="241" y="500" type="line"/>
	</contour>
	<component base="bowl" xOffset="682" yOffset="500" xScale="-1" yScale="-1"/>
  </outline>
</glyph>
<glyph name="q" format="1">
  <advance width="627"/>
  <unicode hex="0071"/>
  <outline>
	<contour>
	  <point x="386" y="500" type="line"/>
	  <point x="378" y="338" type="line"/>
	  <point x="358" y="281" type="line"/>
	  <point x="358" y="-210" type="line"/>
	  <point x="588" y="-210" type="line"/>
	  <point x="588" y="281" type="line"/>
	  <point x="588" y="500" type="line"/>
	</contour>
	<component base="bowl" xOffset="-55" yOffset="500" yScale="-1"/>
  </outline>
</glyph>
<glyph name="s" format="1">
  <advance width="537"/>
  <unicode hex="0073"/>
  <outline>
	<contour>
	  <point x="97" y="510"/>
	  <point x="16" y="418"/>
	  <point x="16" y="336" type="curve" smooth="yes"/>
	  <point x="16" y="164"/>
	  <point x="298" y="188"/>
	  <point x="298" y="143" type="curve" smooth="yes"/>
	  <point x="298" y="132"/>
	  <point x="277" y="128"/>
	  <point x="254" y="128" type="curve" smooth="yes"/>
	  <point x="195" y="128"/>
	  <point x="143" y="154"/>
	  <point x="107" y="186" type="curve"/>
	  <point x="6" y="64" type="line"/>
	  <point x="65" y="11"/>
	  <point x="149" y="-10"/>
	  <point x="271" y="-10" type="curve" smooth="yes"/>
	  <point x="454" y="-10"/>
	  <point x="529" y="74"/>
	  <point x="529" y="170" type="curve" smooth="yes"/>
	  <point x="529" y="353"/>
	  <point x="247" y="320"/>
	  <point x="247" y="354" type="curve" smooth="yes"/>
	  <point x="247" y="363"/>
	  <point x="259" y="372"/>
	  <point x="298" y="372" type="curve" smooth="yes"/>
	  <point x="346" y="372"/>
	  <point x="397" y="363"/>
	  <point x="431" y="323" type="curve"/>
	  <point x="528" y="437" type="line"/>
	  <point x="490" y="472"/>
	  <point x="416" y="510"/>
	  <point x="287" y="510" type="curve" smooth="yes"/>
	</contour>
	<contour>
	  <point x="282" y="500" type="move" name="top"/>
	</contour>
	<contour>
	  <point x="270" y="0" type="move" name="bottom"/>
	</contour>
  </outline>
</glyph>
<glyph name="u" format="1">
  <advance width="620"/>
  <unicode hex="0075"/>
  <outline>
	<contour>
	  <point x="38" y="500" type="line"/>
	  <point x="38" y="162" type="line" smooth="yes"/>
	  <point x="38" y="40"/>
	  <point x="96" y="-10"/>
	  <point x="200" y="-10" type="curve" smooth="yes"/>
	  <point x="321" y="-10"/>
	  <point x="389" y="73"/>
	  <point x="389" y="239" type="curve"/>
	  <point x="351" y="239" type="line"/>
	  <point x="351" y="185"/>
	  <point x="336" y="160"/>
	  <point x="305" y="160" type="curve" smooth="yes"/>
	  <point x="279" y="160"/>
	  <point x="268" y="174"/>
	  <point x="268" y="219" type="curve" smooth="yes"/>
	  <point x="268" y="500" type="line"/>
	</contour>
	<contour>
	  <point x="351" y="500" type="line"/>
	  <point x="351" y="219" type="line"/>
	  <point x="366" y="162" type="line"/>
	  <point x="374" y="0" type="line"/>
	  <point x="581" y="0" type="line"/>
	  <point x="581" y="152" type="line"/>
	  <point x="581" y="500" type="line"/>
	</contour>
	<contour>
	  <point x="581" y="0" type="move" name="ogonek"/>
	</contour>
	<contour>
	  <point x="304" y="500" type="move" name="top"/>
	</contour>
  </outline>
</glyph>
<glyph name="y" format="1">
  <advance width="594"/>
  <unicode hex="0079"/>
  <outline>
	<contour>
	  <point x="379" y="500" type="line"/>
	  <point x="329" y="243" type="line"/>
	  <point x="307" y="125" type="line"/>
	  <point x="288" y="242" type="line"/>
	  <point x="243" y="500" type="line"/>
	  <point x="-8" y="500" type="line"/>
	  <point x="135" y="128" type="line"/>
	  <point x="198" y="-19" type="line"/>
	  <point x="195" y="-27" type="line" smooth="yes"/>
	  <point x="187" y="-47"/>
	  <point x="169" y="-54"/>
	  <point x="126" y="-54" type="curve" smooth="yes"/>
	  <point x="78" y="-54"/>
	  <point x="58" y="-49"/>
	  <point x="37" y="-37" type="curve"/>
	  <point x="-5" y="-182" type="line"/>
	  <point x="32" y="-202"/>
	  <point x="85" y="-215"/>
	  <point x="149" y="-215" type="curve" smooth="yes"/>
	  <point x="311" y="-215"/>
	  <point x="391" y="-143"/>
	  <point x="457" y="56" type="curve" smooth="yes"/>
	  <point x="604" y="500" type="line"/>
	</contour>
	<contour>
	  <point x="323" y="500" type="move" name="top"/>
	</contour>
  </outline>
</glyph>
<glyph name="bar" format="1">
  <advance width="285"/>
  <unicode hex="007C"/>
  <outline>
	<contour>
	  <point x="40" y="701" type="line"/>
	  <point x="40" y="-168" type="line"/>
	  <point x="244" y="-168" type="line"/>
	  <point x="244" y="701" type="line"/>
	</contour>
  </outline>
</glyph>
<glyph name="asciitilde" format="1">
  <advance width="697"/>
  <unicode hex="007E"/>
  <outline>
	<contour>
	  <point x="484" y="457" type="line"/>
	  <point x="483" y="394"/>
	  <point x="470" y="363"/>
	  <point x="426" y="363" type="curve" smooth="yes"/>
	  <point x="370" y="363"/>
	  <point x="342" y="457"/>
	  <point x="214" y="457" type="curve" smooth="yes"/>
	  <point x="108" y="457"/>
	  <point x="23" y="356"/>
	  <point x="23" y="162" type="curve"/>
	  <point x="213" y="162" type="line"/>
	  <point x="214" y="225"/>
	  <point x="227" y="256"/>
	  <point x="271" y="256" type="curve" smooth="yes"/>
	  <point x="327" y="256"/>
	  <point x="354" y="162"/>
	  <point x="482" y="162" type="curve" smooth="yes"/>
	  <point x="589" y="162"/>
	  <point x="673" y="263"/>
	  <point x="674" y="457" type="curve"/>
	</contour>
  </outline>
</glyph>
<glyph name="cent" format="1">
  <advance width="581"/>
  <unicode hex="00A2"/>
  <outline>
	<contour>
	  <point x="131" y="590"/>
	  <point x="29" y="496"/>
	  <point x="29" y="330" type="curve" smooth="yes"/>
	  <point x="29" y="164"/>
	  <point x="128" y="70"/>
	  <point x="316" y="70" type="curve" smooth="yes"/>
	  <point x="482" y="70"/>
	  <point x="572" y="136"/>
	  <point x="566" y="228" type="curve"/>
	  <point x="406" y="283" type="line"/>
	  <point x="400" y="231"/>
	  <point x="367" y="204"/>
	  <point x="315" y="204" type="curve" smooth="yes"/>
	  <point x="260" y="204"/>
	  <point x="227" y="224"/>
	  <point x="227" y="327" type="curve" smooth="yes"/>
	  <point x="227" y="428"/>
	  <point x="252" y="456"/>
	  <point x="315" y="456" type="curve" smooth="yes"/>
	  <point x="364" y="456"/>
	  <point x="401" y="426"/>
	  <point x="405" y="367" type="curve"/>
	  <point x="567" y="420" type="line"/>
	  <point x="570" y="506"/>
	  <point x="507" y="590"/>
	  <point x="306" y="590" type="curve" smooth="yes"/>
	</contour>
	<contour>
	  <point x="253" y="660" type="line"/>
	  <point x="253" y="0" type="line"/>
	  <point x="355" y="0" type="line"/>
	  <point x="355" y="660" type="line"/>
	</contour>
  </outline>
</glyph>
<glyph name="sterling" format="1">
  <advance width="622"/>
  <unicode hex="00A3"/>
  <outline>
	<contour>
	  <point x="21" y="363" type="line"/>
	  <point x="21" y="242" type="line"/>
	  <point x="505" y="242" type="line"/>
	  <point x="505" y="363" type="line"/>
	</contour>
	<component base="sterling.part"/>
  </outline>
</glyph>
<glyph name="yen" format="1">
  <advance width="720"/>
  <unicode hex="00A5"/>
  <outline>
	<contour>
	  <point x="479" y="660" type="line"/>
	  <point x="413" y="519" type="line"/>
	  <point x="362" y="401" type="line"/>
	  <point x="358" y="401" type="line"/>
	  <point x="307" y="519" type="line"/>
	  <point x="241" y="660" type="line"/>
	  <point x="9" y="660" type="line"/>
	  <point x="193" y="359" type="line"/>
	  <point x="227" y="307" type="line"/>
	  <point x="155" y="310" type="line"/>
	  <point x="55" y="310" type="line"/>
	  <point x="55" y="251" type="line"/>
	  <point x="193" y="251" type="line"/>
	  <point x="250" y="253" type="line"/>
	  <point x="248" y="221" type="line"/>
	  <point x="248" y="190" type="line"/>
	  <point x="55" y="190" type="line"/>
	  <point x="55" y="134" type="line"/>
	  <point x="246" y="134" type="line"/>
	  <point x="246" y="0" type="line"/>
	  <point x="473" y="0" type="line"/>
	  <point x="473" y="134" type="line"/>
	  <point x="666" y="134" type="line"/>
	  <point x="666" y="190" type="line"/>
	  <point x="471" y="190" type="line"/>
	  <point x="471" y="221" type="line"/>
	  <point x="469" y="253" type="line"/>
	  <point x="514" y="251" type="line"/>
	  <point x="666" y="251" type="line"/>
	  <point x="666" y="310" type="line"/>
	  <point x="563" y="310" type="line"/>
	  <point x="493" y="306" type="line"/>
	  <point x="524" y="352" type="line"/>
	  <point x="711" y="660" type="line"/>
	</contour>
	<contour>
	  <point x="360" y="660" type="move" name="top"/>
	</contour>
  </outline>
</glyph>
<glyph name="brokenbar" format="1">
  <advance width="285"/>
  <unicode hex="00A6"/>
  <outline>
	<contour>
	  <point x="40" y="701" type="line"/>
	  <point x="40" y="360" type="line"/>
	  <point x="244" y="360" type="line"/>
	  <point x="244" y="701" type="line"/>
	</contour>
	<contour>
	  <point x="40" y="173" type="line"/>
	  <point x="40" y="-168" type="line"/>
	  <point x="244" y="-168" type="line"/>
	  <point x="244" y="173" type="line"/>
	</contour>
  </outline>
</glyph>
<glyph name="section" format="1">
  <advance width="697"/>
  <unicode hex="00A7"/>
  <outline>
	<contour>
	  <point x="166" y="670"/>
	  <point x="61" y="592"/>
	  <point x="61" y="476" type="curve" smooth="yes"/>
	  <point x="61" y="242"/>
	  <point x="435" y="328"/>
	  <point x="435" y="219" type="curve" smooth="yes"/>
	  <point x="435" y="185"/>
	  <point x="405" y="146"/>
	  <point x="343" y="142" type="curve"/>
	  <point x="358" y="42" type="line"/>
	  <point x="514" y="44"/>
	  <point x="643" y="109"/>
	  <point x="643" y="260" type="curve" smooth="yes"/>
	  <point x="643" y="479"/>
	  <point x="269" y="438"/>
	  <point x="269" y="492" type="curve" smooth="yes"/>
	  <point x="269" y="508"/>
	  <point x="305" y="522"/>
	  <point x="364" y="522" type="curve" smooth="yes"/>
	  <point x="444" y="522"/>
	  <point x="504" y="504"/>
	  <point x="553" y="450" type="curve"/>
	  <point x="652" y="575" type="line"/>
	  <point x="587" y="627"/>
	  <point x="519" y="670"/>
	  <point x="358" y="670" type="curve" smooth="yes"/>
	</contour>
	<contour>
	  <point x="166" y="404"/>
	  <point x="61" y="312"/>
	  <point x="61" y="210" type="curve" smooth="yes"/>
	  <point x="61" y="-15"/>
	  <point x="435" y="12"/>
	  <point x="435" y="-38" type="curve" smooth="yes"/>
	  <point x="435" y="-52"/>
	  <point x="407" y="-66"/>
	  <point x="343" y="-66" type="curve" smooth="yes"/>
	  <point x="251" y="-66"/>
	  <point x="182" y="-46"/>
	  <point x="133" y="3" type="curve"/>
	  <point x="43" y="-136" type="line"/>
	  <point x="115" y="-186"/>
	  <point x="195" y="-215"/>
	  <point x="357" y="-215" type="curve" smooth="yes"/>
	  <point x="514" y="-215"/>
	  <point x="643" y="-152"/>
	  <point x="643" y="-33" type="curve" smooth="yes"/>
	  <point x="643" y="186"/>
	  <point x="270" y="104"/>
	  <point x="270" y="226" type="curve" smooth="yes"/>
	  <point x="270" y="264"/>
	  <point x="303" y="293"/>
	  <point x="364" y="304" type="curve"/>
	  <point x="356" y="403" type="line"/>
	</contour>
  </outline>
</glyph>
<glyph name="ordfeminine" format="1">
  <advance width="456"/>
  <unicode hex="00AA"/>
  <outline>
	<contour>
	  <point x="105" y="670"/>
	  <point x="47" y="622"/>
	  <point x="38" y="551" type="curve"/>
	  <point x="153" y="529" type="line"/>
	  <point x="162" y="558"/>
	  <point x="177" y="575"/>
	  <point x="210" y="575" type="curve" smooth="yes"/>
	  <point x="239" y="575"/>
	  <point x="252" y="558"/>
	  <point x="252" y="530" type="curve" smooth="yes"/>
	  <point x="252" y="389" type="line"/>
	  <point x="272" y="388" type="line"/>
	  <point x="272" y="334"/>
	  <point x="316" y="299"/>
	  <point x="379" y="299" type="curve" smooth="yes"/>
	  <point x="398" y="299"/>
	  <point x="418" y="302"/>
	  <point x="432" y="310" type="curve"/>
	  <point x="440" y="376" type="line"/>
	  <point x="434" y="375"/>
	  <point x="430" y="374"/>
	  <point x="423" y="374" type="curve" smooth="yes"/>
	  <point x="408" y="374"/>
	  <point x="397" y="385"/>
	  <point x="397" y="408" type="curve" smooth="yes"/>
	  <point x="397" y="526" type="line" smooth="yes"/>
	  <point x="397" y="621"/>
	  <point x="340" y="670"/>
	  <point x="217" y="670" type="curve" smooth="yes"/>
	</contour>
	<contour>
	  <point x="38" y="242" type="line"/>
	  <point x="38" y="149" type="line"/>
	  <point x="425" y="149" type="line"/>
	  <point x="425" y="242" type="line"/>
	</contour>
	<contour>
	  <point x="171" y="496" type="line" smooth="yes"/>
	  <point x="81" y="472"/>
	  <point x="38" y="446"/>
	  <point x="38" y="379" type="curve" smooth="yes"/>
	  <point x="38" y="329"/>
	  <point x="77" y="299"/>
	  <point x="146" y="299" type="curve" smooth="yes"/>
	  <point x="246" y="299"/>
	  <point x="291" y="358"/>
	  <point x="291" y="423" type="curve"/>
	  <point x="252" y="425" type="line"/>
	  <point x="252" y="395"/>
	  <point x="232" y="379"/>
	  <point x="207" y="379" type="curve" smooth="yes"/>
	  <point x="187" y="379"/>
	  <point x="173" y="389"/>
	  <point x="173" y="409" type="curve" smooth="yes"/>
	  <point x="173" y="431"/>
	  <point x="189" y="446"/>
	  <point x="214" y="452" type="curve" smooth="yes"/>
	  <point x="284" y="470" type="line"/>
	  <point x="273" y="520" type="line"/>
	</contour>
  </outline>
</glyph>
<glyph name="macron" format="1">
  <advance width="500"/>
  <unicode hex="00AF"/>
  <outline>
	<contour>
	  <point x="56" y="681" type="line"/>
	  <point x="56" y="551" type="line"/>
	  <point x="444" y="551" type="line"/>
	  <point x="444" y="681" type="line"/>
	</contour>
	<contour>
	  <point x="250" y="500" type="move" name="_top"/>
	</contour>
  </outline>
</glyph>
<glyph name="twosuperior" format="1">
  <advance width="434"/>
  <unicode hex="00B2"/>
  <outline>
	<contour>
	  <point x="116" y="740"/>
	  <point x="30" y="702"/>
	  <point x="26" y="608" type="curve"/>
	  <point x="192" y="582" type="line"/>
	  <point x="188" y="614"/>
	  <point x="202" y="622"/>
	  <point x="219" y="622" type="curve" smooth="yes"/>
	  <point x="236" y="622"/>
	  <point x="243" y="609"/>
	  <point x="243" y="595" type="curve" smooth="yes"/>
	  <point x="243" y="568"/>
	  <point x="223" y="524"/>
	  <point x="38" y="460" type="curve"/>
	  <point x="149" y="427" type="line"/>
	  <point x="301" y="462"/>
	  <point x="402" y="534"/>
	  <point x="402" y="621" type="curve" smooth="yes"/>
	  <point x="402" y="677"/>
	  <point x="360" y="740"/>
	  <point x="226" y="740" type="curve" smooth="yes"/>
	</contour>
	<contour>
	  <point x="370" y="483" type="line"/>
	  <point x="38" y="460" type="line"/>
	  <point x="38" y="361" type="line"/>
	  <point x="320" y="361" type="line"/>
	  <point x="409" y="361" type="line"/>
	  <point x="409" y="483" type="line"/>
	</contour>
  </outline>
</glyph>
<glyph name="acute" format="1">
  <advance width="500"/>
  <unicode hex="00B4"/>
  <outline>
	<component base="grave" xOffset="500" xScale="-1"/>
	<contour>
	  <point x="262" y="500" type="move" name="_top"/>
	</contour>
  </outline>
</glyph>
<glyph name="uni00B5" format="1">
  <advance width="621"/>
  <unicode hex="00B5"/>
  <outline>
	<contour>
	  <point x="280" y="160"/>
	  <point x="269" y="174"/>
	  <point x="269" y="219" type="curve"/>
	  <point x="99" y="162" type="line"/>
	  <point x="99" y="40"/>
	  <point x="146" y="-10"/>
	  <point x="236" y="-10" type="curve" smooth="yes"/>
	  <point x="333" y="-10"/>
	  <point x="390" y="73"/>
	  <point x="390" y="239" type="curve"/>
	  <point x="352" y="239" type="line"/>
	  <point x="352" y="185"/>
	  <point x="337" y="160"/>
	  <point x="306" y="160" type="curve" smooth="yes"/>
	</contour>
	<contour>
	  <point x="39" y="500" type="line"/>
	  <point x="39" y="-210" type="line"/>
	  <point x="269" y="-210" type="line"/>
	  <point x="269" y="500" type="line"/>
	</contour>
	<contour>
	  <point x="352" y="500" type="line"/>
	  <point x="352" y="219" type="line"/>
	  <point x="367" y="162" type="line"/>
	  <point x="375" y="0" type="line"/>
	  <point x="582" y="0" type="line"/>
	  <point x="582" y="152" type="line"/>
	  <point x="582" y="500" type="line"/>
	</contour>
	<contour>
	  <point x="582" y="0" type="move" name="ogonek"/>
	</contour>
	<contour>
	  <point x="314" y="500" type="move" name="top"/>
	</contour>
  </outline>
</glyph>
<glyph name="paragraph" format="1">
  <advance width="879"/>
  <unicode hex="00B6"/>
  <outline>
	<contour>
	  <point x="320" y="660" type="line" smooth="yes"/>
	  <point x="131" y="660"/>
	  <point x="30" y="556"/>
	  <point x="30" y="407" type="curve" smooth="yes"/>
	  <point x="30" y="262"/>
	  <point x="131" y="157"/>
	  <point x="299" y="155" type="curve"/>
	  <point x="299" y="-210" type="line"/>
	  <point x="512" y="-210" type="line"/>
	  <point x="512" y="660" type="line"/>
	</contour>
	<contour>
	  <point x="616" y="660" type="line"/>
	  <point x="616" y="-210" type="line"/>
	  <point x="829" y="-210" type="line"/>
	  <point x="829" y="660" type="line"/>
	</contour>
	<contour>
	  <point x="345" y="660" type="line"/>
	  <point x="345" y="488" type="line"/>
	  <point x="726" y="488" type="line"/>
	  <point x="726" y="660" type="line"/>
	</contour>
  </outline>
</glyph>
<glyph name="cedilla" format="1">
  <advance width="600"/>
  <unicode hex="00B8"/>
  <outline>
	<contour>
	  <point x="309" y="-9"/>
	  <point x="332" y="-32"/>
	  <point x="332" y="-60" type="curve" smooth="yes"/>
	  <point x="332" y="-89"/>
	  <point x="310" y="-104"/>
	  <point x="278" y="-104" type="curve" smooth="yes"/>
	  <point x="245" y="-104"/>
	  <point x="220" y="-92"/>
	  <point x="204" y="-76" type="curve"/>
	  <point x="159" y="-171" type="line"/>
	  <point x="183" y="-194"/>
	  <point x="220" y="-215"/>
	  <point x="293" y="-215" type="curve" smooth="yes"/>
	  <point x="381" y="-215"/>
	  <point x="454" y="-184"/>
	  <point x="454" y="-90" type="curve" smooth="yes"/>
	  <point x="454" y="-19"/>
	  <point x="387" y="34"/>
	  <point x="258" y="42" type="curve"/>
	  <point x="218" y="2" type="line"/>
	</contour>
	<contour>
	  <point x="310" y="0" type="move" name="_bottom"/>
	</contour>
  </outline>
</glyph>
<glyph name="onesuperior" format="1">
  <advance width="350"/>
  <unicode hex="00B9"/>
  <outline>
	<contour>
	  <point x="299" y="647" type="line"/>
	  <point x="299" y="730" type="line"/>
	  <point x="147" y="730" type="line"/>
	  <point x="120" y="647" type="line"/>
	  <point x="120" y="356" type="line"/>
	  <point x="299" y="356" type="line"/>
	</contour>
	<contour>
	  <point x="102" y="560"/>
	  <point x="200" y="628"/>
	  <point x="225" y="683" type="curve"/>
	  <point x="147" y="730" type="line"/>
	  <point x="126" y="705"/>
	  <point x="75" y="681"/>
	  <point x="26" y="673" type="curve"/>
	  <point x="26" y="547" type="line"/>
	</contour>
  </outline>
</glyph>
<glyph name="ordmasculine" format="1">
  <advance width="456"/>
  <unicode hex="00BA"/>
  <outline>
	<contour>
	  <point x="110" y="670"/>
	  <point x="51" y="608"/>
	  <point x="51" y="484" type="curve" smooth="yes"/>
	  <point x="51" y="360"/>
	  <point x="110" y="298"/>
	  <point x="228" y="298" type="curve" smooth="yes"/>
	  <point x="346" y="298"/>
	  <point x="405" y="360"/>
	  <point x="405" y="484" type="curve" smooth="yes"/>
	  <point x="405" y="608"/>
	  <point x="346" y="670"/>
	  <point x="228" y="670" type="curve" smooth="yes"/>
	</contour>
	<contour>
	  <point x="54" y="242" type="line"/>
	  <point x="54" y="149" type="line"/>
	  <point x="401" y="149" type="line"/>
	  <point x="401" y="242" type="line"/>
	</contour>
	<contour>
	  <point x="254" y="570"/>
	  <point x="264" y="547"/>
	  <point x="264" y="484" type="curve" smooth="yes"/>
	  <point x="264" y="421"/>
	  <point x="254" y="398"/>
	  <point x="228" y="398" type="curve" smooth="yes"/>
	  <point x="202" y="398"/>
	  <point x="192" y="421"/>
	  <point x="192" y="484" type="curve" smooth="yes"/>
	  <point x="192" y="547"/>
	  <point x="202" y="570"/>
	  <point x="228" y="570" type="curve" smooth="yes"/>
	</contour>
  </outline>
</glyph>
<glyph name="onehalf" format="1">
  <advance width="980"/>
  <unicode hex="00BD"/>
  <outline>
	<contour>
	  <point x="29" y="477" type="line"/>
	  <point x="105" y="490"/>
	  <point x="203" y="558"/>
	  <point x="228" y="613" type="curve"/>
	  <point x="150" y="660" type="line"/>
	  <point x="129" y="635"/>
	  <point x="78" y="611"/>
	  <point x="29" y="603" type="curve"/>
	</contour>
	<contour>
	  <point x="150" y="660" type="line"/>
	  <point x="123" y="577" type="line"/>
	  <point x="123" y="286" type="line"/>
	  <point x="302" y="286" type="line"/>
	  <point x="302" y="577" type="line"/>
	  <point x="302" y="660" type="line"/>
	</contour>
	<contour>
	  <point x="666" y="379"/>
	  <point x="580" y="341"/>
	  <point x="576" y="247" type="curve"/>
	  <point x="742" y="221" type="line"/>
	  <point x="738" y="253"/>
	  <point x="752" y="261"/>
	  <point x="769" y="261" type="curve" smooth="yes"/>
	  <point x="786" y="261"/>
	  <point x="793" y="248"/>
	  <point x="793" y="234" type="curve" smooth="yes"/>
	  <point x="793" y="207"/>
	  <point x="773" y="163"/>
	  <point x="588" y="99" type="curve"/>
	  <point x="699" y="66" type="line"/>
	  <point x="851" y="101"/>
	  <point x="952" y="173"/>
	  <point x="952" y="260" type="curve" smooth="yes"/>
	  <point x="952" y="316"/>
	  <point x="910" y="379"/>
	  <point x="776" y="379" type="curve" smooth="yes"/>
	</contour>
	<contour>
	  <point x="920" y="122" type="line"/>
	  <point x="588" y="99" type="line"/>
	  <point x="588" y="0" type="line"/>
	  <point x="870" y="0" type="line"/>
	  <point x="959" y="0" type="line"/>
	  <point x="959" y="122" type="line"/>
	</contour>
	<component base="fraction" xOffset="165"/>
  </outline>
</glyph>
<glyph name="threequarters" format="1">
  <advance width="947"/>
  <unicode hex="00BE"/>
  <outline>
	<contour>
	  <point x="707" y="374" type="line"/>
	  <point x="537" y="136" type="line"/>
	  <point x="631" y="136" type="line"/>
	  <point x="662" y="181" type="line"/>
	  <point x="685" y="218" type="line"/>
	  <point x="764" y="374" type="line"/>
	</contour>
	<contour>
	  <point x="727" y="374" type="line"/>
	  <point x="691" y="107" type="line"/>
	  <point x="691" y="0" type="line"/>
	  <point x="854" y="0" type="line"/>
	  <point x="854" y="113" type="line"/>
	  <point x="854" y="374" type="line"/>
	</contour>
	<contour>
	  <point x="602" y="168" type="line"/>
	  <point x="537" y="136" type="line"/>
	  <point x="537" y="69" type="line"/>
	  <point x="913" y="69" type="line"/>
	  <point x="913" y="168" type="line"/>
	</contour>
	<contour>
	  <point x="302" y="478" type="line"/>
	  <point x="328" y="478"/>
	  <point x="383" y="498"/>
	  <point x="383" y="558" type="curve" smooth="yes"/>
	  <point x="383" y="632"/>
	  <point x="319" y="670"/>
	  <point x="212" y="670" type="curve" smooth="yes"/>
	  <point x="114" y="670"/>
	  <point x="37" y="645"/>
	  <point x="26" y="557" type="curve"/>
	  <point x="161" y="515" type="line"/>
	  <point x="160" y="551"/>
	  <point x="177" y="557"/>
	  <point x="199" y="557" type="curve" smooth="yes"/>
	  <point x="214" y="557"/>
	  <point x="226" y="550"/>
	  <point x="226" y="539" type="curve" smooth="yes"/>
	  <point x="226" y="524"/>
	  <point x="217" y="517"/>
	  <point x="192" y="517" type="curve" smooth="yes"/>
	  <point x="183" y="517" type="line"/>
	  <point x="183" y="430" type="line"/>
	  <point x="201" y="429" type="line" smooth="yes"/>
	  <point x="226" y="428"/>
	  <point x="234" y="424"/>
	  <point x="234" y="411" type="curve" smooth="yes"/>
	  <point x="234" y="399"/>
	  <point x="220" y="394"/>
	  <point x="202" y="394" type="curve" smooth="yes"/>
	  <point x="181" y="394"/>
	  <point x="159" y="398"/>
	  <point x="161" y="433" type="curve"/>
	  <point x="20" y="377" type="line"/>
	  <point x="42" y="306"/>
	  <point x="103" y="282"/>
	  <point x="209" y="282" type="curve" smooth="yes"/>
	  <point x="311" y="282"/>
	  <point x="391" y="323"/>
	  <point x="391" y="393" type="curve" smooth="yes"/>
	  <point x="391" y="456"/>
	  <point x="342" y="476"/>
	  <point x="302" y="476" type="curve"/>
	</contour>
	<component base="fraction" xOffset="205"/>
  </outline>
</glyph>
<glyph name="AE" format="1">
  <advance width="914"/>
  <unicode hex="00C6"/>
  <outline>
	<contour>
	  <point x="213" y="660" type="line"/>
	  <point x="-1" y="0" type="line"/>
	  <point x="229" y="0" type="line"/>
	  <point x="392" y="660" type="line"/>
	</contour>
	<contour>
	  <point x="162" y="321" type="line"/>
	  <point x="112" y="185" type="line"/>
	  <point x="510" y="185" type="line"/>
	  <point x="510" y="321" type="line"/>
	</contour>
	<contour>
	  <point x="498" y="161" type="line"/>
	  <point x="498" y="0" type="line"/>
	  <point x="896" y="0" type="line"/>
	  <point x="898" y="161" type="line"/>
	</contour>
	<contour>
	  <point x="405" y="660" type="line"/>
	  <point x="405" y="0" type="line"/>
	  <point x="619" y="0" type="line"/>
	  <point x="619" y="660" type="line"/>
	</contour>
	<contour>
	  <point x="498" y="403" type="line"/>
	  <point x="498" y="254" type="line"/>
	  <point x="824" y="254" type="line"/>
	  <point x="823" y="403" type="line"/>
	</contour>
	<contour>
	  <point x="277" y="660" type="line"/>
	  <point x="237" y="507" type="line"/>
	  <point x="486" y="507" type="line"/>
	  <point x="535" y="499" type="line"/>
	  <point x="886" y="499" type="line"/>
	  <point x="885" y="660" type="line"/>
	</contour>
  </outline>
</glyph>
<glyph name="multiply" format="1">
  <advance width="697"/>
  <unicode hex="00D7"/>
  <outline>
	<contour>
	  <point x="634" y="163" type="line"/>
	  <point x="181" y="616" type="line"/>
	  <point x="63" y="498" type="line"/>
	  <point x="516" y="45" type="line"/>
	</contour>
	<contour>
	  <point x="634" y="498" type="line"/>
	  <point x="516" y="616" type="line"/>
	  <point x="63" y="163" type="line"/>
	  <point x="181" y="45" type="line"/>
	</contour>
  </outline>
</glyph>
<glyph name="Oslash" format="1">
  <advance width="729"/>
  <unicode hex="00D8"/>
  <outline>
	<contour>
	  <point x="584" y="680" type="line"/>
	  <point x="483" y="541" type="line"/>
	  <point x="532" y="482" type="line"/>
	  <point x="679" y="680" type="line"/>
	</contour>
	<contour>
	  <point x="203" y="167" type="line"/>
	  <point x="261" y="112" type="line"/>
	  <point x="529" y="488" type="line"/>
	  <point x="472" y="545" type="line"/>
	</contour>
	<contour>
	  <point x="144" y="-21" type="line"/>
	  <point x="245" y="118" type="line"/>
	  <point x="193" y="176" type="line"/>
	  <point x="48" y="-21" type="line"/>
	</contour>
	<component base="O"/>
  </outline>
</glyph>
<glyph name="Thorn" format="1">
  <advance width="695"/>
  <unicode hex="00DE"/>
  <outline>
	<contour>
	  <point x="166" y="571" type="line"/>
	  <point x="166" y="406" type="line"/>
	  <point x="342" y="406" type="line" smooth="yes"/>
	  <point x="400" y="406"/>
	  <point x="429" y="385"/>
	  <point x="428" y="337" type="curve" smooth="yes"/>
	  <point x="429" y="288"/>
	  <point x="400" y="267"/>
	  <point x="342" y="267" type="curve" smooth="yes"/>
	  <point x="166" y="267" type="line"/>
	  <point x="166" y="103" type="line"/>
	  <point x="395" y="103" type="line" smooth="yes"/>
	  <point x="566" y="103"/>
	  <point x="667" y="182"/>
	  <point x="666" y="337" type="curve" smooth="yes"/>
	  <point x="667" y="492"/>
	  <point x="566" y="571"/>
	  <point x="395" y="571" type="curve" smooth="yes"/>
	</contour>
	<contour>
	  <point x="50" y="660" type="line"/>
	  <point x="50" y="0" type="line"/>
	  <point x="283" y="0" type="line"/>
	  <point x="283" y="660" type="line"/>
	</contour>
  </outline>
</glyph>
<glyph name="ae" format="1">
  <advance width="870"/>
  <unicode hex="00E6"/>
  <outline>
	<contour>
	  <point x="444" y="510"/>
	  <point x="364" y="386"/>
	  <point x="364" y="250" type="curve" smooth="yes"/>
	  <point x="364" y="94"/>
	  <point x="434" y="-10"/>
	  <point x="613" y="-10" type="curve" smooth="yes"/>
	  <point x="715" y="-10"/>
	  <point x="815" y="41"/>
	  <point x="838" y="135" type="curve"/>
	  <point x="653" y="186" type="line"/>
	  <point x="646" y="155"/>
	  <point x="631" y="140"/>
	  <point x="602" y="140" type="curve" smooth="yes"/>
	  <point x="556" y="140"/>
	  <point x="532" y="156"/>
	  <point x="532" y="246" type="curve" smooth="yes"/>
	  <point x="532" y="333"/>
	  <point x="550" y="360"/>
	  <point x="587" y="360" type="curve" smooth="yes"/>
	  <point x="622" y="360"/>
	  <point x="633" y="333"/>
	  <point x="633" y="249" type="curve" smooth="yes"/>
	  <point x="633" y="206" type="line"/>
	  <point x="849" y="206" type="line"/>
	  <point x="850" y="236" type="line" smooth="yes"/>
	  <point x="856" y="412"/>
	  <point x="749" y="510"/>
	  <point x="601" y="510" type="curve" smooth="yes"/>
	</contour>
	<contour>
	  <point x="196" y="264" type="line" smooth="yes"/>
	  <point x="63" y="236"/>
	  <point x="17" y="198"/>
	  <point x="17" y="107" type="curve" smooth="yes"/>
	  <point x="17" y="39"/>
	  <point x="68" y="-10"/>
	  <point x="185" y="-10" type="curve" smooth="yes"/>
	  <point x="367" y="-10"/>
	  <point x="434" y="84"/>
	  <point x="434" y="179" type="curve"/>
	  <point x="305" y="161" type="line"/>
	  <point x="305" y="118"/>
	  <point x="280" y="106"/>
	  <point x="258" y="106" type="curve" smooth="yes"/>
	  <point x="233" y="106"/>
	  <point x="221" y="122"/>
	  <point x="221" y="146" type="curve" smooth="yes"/>
	  <point x="221" y="176"/>
	  <point x="237" y="192"/>
	  <point x="272" y="200" type="curve" smooth="yes"/>
	  <point x="355" y="220" type="line"/>
	  <point x="337" y="294" type="line"/>
	</contour>
	<contour>
	  <point x="94" y="510"/>
	  <point x="25" y="436"/>
	  <point x="16" y="330" type="curve"/>
	  <point x="206" y="300" type="line"/>
	  <point x="210" y="348"/>
	  <point x="225" y="362"/>
	  <point x="259" y="362" type="curve" smooth="yes"/>
	  <point x="291" y="362"/>
	  <point x="305" y="345"/>
	  <point x="305" y="312" type="curve" smooth="yes"/>
	  <point x="305" y="112" type="line"/>
	  <point x="493" y="148" type="line"/>
	  <point x="493" y="304" type="line" smooth="yes"/>
	  <point x="493" y="431"/>
	  <point x="393" y="510"/>
	  <point x="251" y="510" type="curve" smooth="yes"/>
	</contour>
	<contour>
	  <point x="452" y="285" type="line"/>
	  <point x="452" y="206" type="line"/>
	  <point x="743" y="206" type="line"/>
	  <point x="743" y="285" type="line"/>
	</contour>
  </outline>
</glyph>
<glyph name="idieresis" format="1">
  <advance width="320"/>
  <unicode hex="00EF"/>
  <outline>
	<contour>
	  <point x="117" y="535"/>
	  <point x="149" y="566"/>
	  <point x="149" y="629" type="curve" smooth="yes"/>
	  <point x="149" y="692"/>
	  <point x="117" y="723"/>
	  <point x="53" y="723" type="curve" smooth="yes"/>
	  <point x="-11" y="723"/>
	  <point x="-43" y="692"/>
	  <point x="-43" y="629" type="curve" smooth="yes"/>
	  <point x="-43" y="566"/>
	  <point x="-11" y="535"/>
	  <point x="53" y="535" type="curve" smooth="yes"/>
	</contour>
	<contour>
	  <point x="331" y="535"/>
	  <point x="363" y="566"/>
	  <point x="363" y="629" type="curve" smooth="yes"/>
	  <point x="363" y="692"/>
	  <point x="331" y="723"/>
	  <point x="267" y="723" type="curve" smooth="yes"/>
	  <point x="203" y="723"/>
	  <point x="171" y="692"/>
	  <point x="171" y="629" type="curve" smooth="yes"/>
	  <point x="171" y="566"/>
	  <point x="203" y="535"/>
	  <point x="267" y="535" type="curve" smooth="yes"/>
	</contour>
	<component base="dotlessi" xOffset="6"/>
	<contour>
	  <point x="255" y="10" type="move" name="ogonek"/>
	</contour>
  </outline>
</glyph>
<glyph name="oslash" format="1">
  <advance width="598"/>
  <unicode hex="00F8"/>
  <outline>
	<contour>
	  <point x="162" y="131" type="line"/>
	  <point x="44" y="-21" type="line"/>
	  <point x="111" y="-21" type="line"/>
	  <point x="198" y="95" type="line"/>
	</contour>
	<contour>
	  <point x="449" y="376" type="line"/>
	  <point x="566" y="520" type="line"/>
	  <point x="499" y="520" type="line"/>
	  <point x="414" y="413" type="line"/>
	</contour>
	<contour>
	  <point x="215" y="90" type="line"/>
	  <point x="438" y="388" type="line"/>
	  <point x="401" y="423" type="line"/>
	  <point x="178" y="123" type="line"/>
	</contour>
	<component base="o"/>
  </outline>
</glyph>
<glyph name="aogonek" format="1">
  <advance width="588"/>
  <unicode hex="0105"/>
  <outline>
	<contour>
	  <point x="115" y="510"/>
	  <point x="32" y="441"/>
	  <point x="22" y="329" type="curve"/>
	  <point x="212" y="300" type="line"/>
	  <point x="214" y="349"/>
	  <point x="237" y="361"/>
	  <point x="265" y="361" type="curve" smooth="yes"/>
	  <point x="294" y="361"/>
	  <point x="310" y="343"/>
	  <point x="310" y="312" type="curve" smooth="yes"/>
	  <point x="310" y="112" type="line"/>
	  <point x="356" y="126" type="line"/>
	  <point x="356" y="56"/>
	  <point x="401" y="9"/>
	  <point x="505" y="9" type="curve" smooth="yes"/>
	  <point x="530" y="9"/>
	  <point x="555" y="5"/>
	  <point x="579" y="5" type="curve"/>
	  <point x="597" y="127" type="line"/>
	  <point x="591" y="124"/>
	  <point x="583" y="123"/>
	  <point x="572" y="123" type="curve" smooth="yes"/>
	  <point x="550" y="123"/>
	  <point x="538" y="136"/>
	  <point x="538" y="164" type="curve" smooth="yes"/>
	  <point x="538" y="304" type="line" smooth="yes"/>
	  <point x="538" y="441"/>
	  <point x="457" y="510"/>
	  <point x="278" y="510" type="curve" smooth="yes"/>
	</contour>
	<contour>
	  <point x="379" y="27"/>
	  <point x="321" y="-17"/>
	  <point x="321" y="-90" type="curve" smooth="yes"/>
	  <point x="321" y="-180"/>
	  <point x="390" y="-215"/>
	  <point x="473" y="-215" type="curve" smooth="yes"/>
	  <point x="523" y="-215"/>
	  <point x="559" y="-209"/>
	  <point x="591" y="-189" type="curve"/>
	  <point x="564" y="-86" type="line"/>
	  <point x="554" y="-92"/>
	  <point x="539" y="-94"/>
	  <point x="524" y="-94" type="curve" smooth="yes"/>
	  <point x="493" y="-94"/>
	  <point x="475" y="-80"/>
	  <point x="475" y="-56" type="curve" smooth="yes"/>
	  <point x="475" y="-18"/>
	  <point x="511" y="-1"/>
	  <point x="579" y="5" type="curve"/>
	  <point x="481" y="27" type="line"/>
	</contour>
	<contour>
	  <point x="211" y="270" type="line" smooth="yes"/>
	  <point x="69" y="239"/>
	  <point x="16" y="192"/>
	  <point x="16" y="109" type="curve" smooth="yes"/>
	  <point x="16" y="33"/>
	  <point x="65" y="-10"/>
	  <point x="170" y="-10" type="curve" smooth="yes"/>
	  <point x="312" y="-10"/>
	  <point x="372" y="74"/>
	  <point x="372" y="164" type="curve"/>
	  <point x="310" y="164" type="line"/>
	  <point x="310" y="131"/>
	  <point x="291" y="115"/>
	  <point x="267" y="115" type="curve" smooth="yes"/>
	  <point x="248" y="115"/>
	  <point x="232" y="126"/>
	  <point x="232" y="150" type="curve" smooth="yes"/>
	  <point x="232" y="175"/>
	  <point x="249" y="194"/>
	  <point x="277" y="202" type="curve" smooth="yes"/>
	  <point x="360" y="226" type="line"/>
	  <point x="342" y="299" type="line"/>
	</contour>
	<contour>
	  <point x="277" y="500" type="move" name="top"/>
	</contour>
  </outline>
</glyph>
<glyph name="Dcroat" format="1">
  <advance width="744"/>
  <unicode hex="0110"/>
  <outline>
	<contour>
	  <point x="4" y="403" type="line"/>
	  <point x="4" y="253" type="line"/>
	  <point x="397" y="253" type="line"/>
	  <point x="397" y="403" type="line"/>
	</contour>
	<component base="D" xOffset="28"/>
  </outline>
</glyph>
<glyph name="iogonek" format="1">
  <advance width="308"/>
  <unicode hex="012F"/>
  <outline>
	<contour>
	  <point x="177" y="32" type="line"/>
	  <point x="75" y="26"/>
	  <point x="2" y="-17"/>
	  <point x="2" y="-96" type="curve" smooth="yes"/>
	  <point x="2" y="-180"/>
	  <point x="71" y="-215"/>
	  <point x="154" y="-215" type="curve" smooth="yes"/>
	  <point x="204" y="-215"/>
	  <point x="240" y="-209"/>
	  <point x="272" y="-189" type="curve"/>
	  <point x="245" y="-86" type="line"/>
	  <point x="235" y="-92"/>
	  <point x="220" y="-94"/>
	  <point x="205" y="-94" type="curve" smooth="yes"/>
	  <point x="174" y="-94"/>
	  <point x="156" y="-80"/>
	  <point x="156" y="-56" type="curve" smooth="yes"/>
	  <point x="156" y="-25"/>
	  <point x="199" y="0"/>
	  <point x="269" y="0" type="curve"/>
	</contour>
	<component base="i"/>
  </outline>
</glyph>
<glyph name="lacute" format="1">
  <advance width="341"/>
  <unicode hex="013A"/>
  <outline>
	<contour>
	  <point x="73" y="746" type="line"/>
	  <point x="235" y="746" type="line"/>
	  <point x="326" y="913" type="line"/>
	  <point x="131" y="913" type="line"/>
	</contour>
	<component base="l"/>
  </outline>
</glyph>
<glyph name="Lslash" format="1">
  <advance width="655"/>
  <unicode hex="0141"/>
  <outline>
	<contour>
	  <point x="-14" y="299" type="line"/>
	  <point x="-14" y="146" type="line"/>
	  <point x="499" y="372" type="line"/>
	  <point x="499" y="525" type="line"/>
	</contour>
	<component base="L" xOffset="50"/>
  </outline>
</glyph>
<glyph name="lslash" format="1">
  <advance width="410"/>
  <unicode hex="0142"/>
  <outline>
	<contour>
	  <point x="185" y="375" type="line"/>
	  <point x="-2" y="297" type="line"/>
	  <point x="-2" y="145" type="line"/>
	  <point x="236" y="300" type="line"/>
	  <point x="402" y="365" type="line"/>
	  <point x="402" y="518" type="line"/>
	</contour>
	<component base="l" xOffset="39"/>
  </outline>
</glyph>
<glyph name="oe" format="1">
  <advance width="941"/>
  <unicode hex="0153"/>
  <outline>
	<contour>
	  <point x="123" y="510"/>
	  <point x="20" y="415"/>
	  <point x="20" y="250" type="curve" smooth="yes"/>
	  <point x="20" y="85"/>
	  <point x="123" y="-10"/>
	  <point x="285" y="-10" type="curve" smooth="yes"/>
	  <point x="445" y="-10"/>
	  <point x="528" y="85"/>
	  <point x="528" y="250" type="curve" smooth="yes"/>
	  <point x="528" y="415"/>
	  <point x="445" y="510"/>
	  <point x="285" y="510" type="curve" smooth="yes"/>
	</contour>
	<contour>
	  <point x="337" y="356"/>
	  <point x="347" y="334"/>
	  <point x="347" y="250" type="curve" smooth="yes"/>
	  <point x="347" y="165"/>
	  <point x="337" y="145"/>
	  <point x="299" y="145" type="curve" smooth="yes"/>
	  <point x="262" y="145"/>
	  <point x="252" y="165"/>
	  <point x="252" y="250" type="curve" smooth="yes"/>
	  <point x="252" y="334"/>
	  <point x="262" y="356"/>
	  <point x="299" y="356" type="curve" smooth="yes"/>
	</contour>
	<contour>
	  <point x="496" y="510"/>
	  <point x="412" y="416"/>
	  <point x="412" y="250" type="curve" smooth="yes"/>
	  <point x="412" y="84"/>
	  <point x="498" y="-10"/>
	  <point x="676" y="-10" type="curve" smooth="yes"/>
	  <point x="778" y="-10"/>
	  <point x="879" y="45"/>
	  <point x="902" y="135" type="curve"/>
	  <point x="716" y="186" type="line"/>
	  <point x="709" y="157"/>
	  <point x="694" y="145"/>
	  <point x="655" y="145" type="curve" smooth="yes"/>
	  <point x="612" y="145"/>
	  <point x="585" y="159"/>
	  <point x="585" y="246" type="curve" smooth="yes"/>
	  <point x="585" y="329"/>
	  <point x="603" y="356"/>
	  <point x="643" y="356" type="curve" smooth="yes"/>
	  <point x="683" y="356"/>
	  <point x="696" y="329"/>
	  <point x="696" y="249" type="curve" smooth="yes"/>
	  <point x="696" y="206" type="line"/>
	  <point x="912" y="206" type="line"/>
	  <point x="913" y="236" type="line" smooth="yes"/>
	  <point x="919" y="412"/>
	  <point x="820" y="510"/>
	  <point x="664" y="510" type="curve" smooth="yes"/>
	</contour>
	<contour>
	  <point x="515" y="290" type="line"/>
	  <point x="515" y="206" type="line"/>
	  <point x="806" y="206" type="line"/>
	  <point x="806" y="290" type="line"/>
	</contour>
  </outline>
</glyph>
<glyph name="dotaccent" format="1">
  <advance width="500"/>
  <unicode hex="02D9"/>
  <outline>
	<contour>
	  <point x="175" y="734"/>
	  <point x="138" y="703"/>
	  <point x="138" y="640" type="curve" smooth="yes"/>
	  <point x="138" y="577"/>
	  <point x="175" y="546"/>
	  <point x="250" y="546" type="curve" smooth="yes"/>
	  <point x="327" y="546"/>
	  <point x="365" y="577"/>
	  <point x="365" y="640" type="curve" smooth="yes"/>
	  <point x="365" y="703"/>
	  <point x="327" y="734"/>
	  <point x="250" y="734" type="curve" smooth="yes"/>
	</contour>
	<contour>
	  <point x="250" y="500" type="move" name="_top"/>
	</contour>
  </outline>
</glyph>
<glyph name="ring" format="1">
  <advance width="500"/>
  <unicode hex="02DA"/>
  <outline>
	<contour>
	  <point x="163" y="781"/>
	  <point x="112" y="736"/>
	  <point x="112" y="658" type="curve" smooth="yes"/>
	  <point x="112" y="580"/>
	  <point x="163" y="535"/>
	  <point x="253" y="535" type="curve" smooth="yes"/>
	  <point x="343" y="535"/>
	  <point x="394" y="580"/>
	  <point x="394" y="658" type="curve" smooth="yes"/>
	  <point x="394" y="736"/>
	  <point x="343" y="781"/>
	  <point x="253" y="781" type="curve" smooth="yes"/>
	</contour>
	<contour>
	  <point x="278" y="697"/>
	  <point x="293" y="683"/>
	  <point x="293" y="658" type="curve" smooth="yes"/>
	  <point x="293" y="633"/>
	  <point x="278" y="619"/>
	  <point x="253" y="619" type="curve" smooth="yes"/>
	  <point x="228" y="619"/>
	  <point x="213" y="633"/>
	  <point x="213" y="658" type="curve" smooth="yes"/>
	  <point x="213" y="683"/>
	  <point x="228" y="697"/>
	  <point x="253" y="697" type="curve" smooth="yes"/>
	</contour>
	<contour>
	  <point x="250" y="500" type="move" name="_top"/>
	</contour>
  </outline>
</glyph>
<glyph name="ogonek" format="1">
  <advance width="697"/>
  <unicode hex="02DB"/>
  <outline>
	<contour>
	  <point x="362" y="32" type="line"/>
	  <point x="260" y="26"/>
	  <point x="187" y="-17"/>
	  <point x="187" y="-96" type="curve" smooth="yes"/>
	  <point x="187" y="-180"/>
	  <point x="256" y="-215"/>
	  <point x="339" y="-215" type="curve" smooth="yes"/>
	  <point x="389" y="-215"/>
	  <point x="425" y="-209"/>
	  <point x="457" y="-189" type="curve"/>
	  <point x="430" y="-86" type="line"/>
	  <point x="420" y="-92"/>
	  <point x="405" y="-94"/>
	  <point x="390" y="-94" type="curve" smooth="yes"/>
	  <point x="359" y="-94"/>
	  <point x="341" y="-80"/>
	  <point x="341" y="-56" type="curve" smooth="yes"/>
	  <point x="341" y="-25"/>
	  <point x="369" y="-5"/>
	  <point x="444" y="10" type="curve"/>
	</contour>
	<contour>
	  <point x="444" y="10" type="move" name="_ogonek"/>
	</contour>
  </outline>
</glyph>
<glyph name="tilde" format="1">
  <advance width="500"/>
  <unicode hex="02DC"/>
  <outline>
	<contour>
	  <point x="342" y="719" type="line"/>
	  <point x="339" y="685"/>
	  <point x="330" y="676"/>
	  <point x="312" y="676" type="curve" smooth="yes"/>
	  <point x="275" y="676"/>
	  <point x="265" y="721"/>
	  <point x="186" y="721" type="curve" smooth="yes"/>
	  <point x="95" y="721"/>
	  <point x="43" y="665"/>
	  <point x="40" y="545" type="curve"/>
	  <point x="158" y="545" type="line"/>
	  <point x="161" y="579"/>
	  <point x="171" y="588"/>
	  <point x="188" y="588" type="curve" smooth="yes"/>
	  <point x="225" y="588"/>
	  <point x="235" y="543"/>
	  <point x="314" y="543" type="curve" smooth="yes"/>
	  <point x="405" y="543"/>
	  <point x="457" y="599"/>
	  <point x="460" y="719" type="curve"/>
	</contour>
	<contour>
	  <point x="250" y="500" type="move" name="_top"/>
	</contour>
  </outline>
</glyph>
<glyph name="hungarumlaut" format="1">
  <advance width="500"/>
  <unicode hex="02DD"/>
  <outline>
	<contour>
	  <point x="348" y="730" type="line"/>
	  <point x="283" y="553" type="line"/>
	  <point x="436" y="553" type="line"/>
	  <point x="529" y="730" type="line"/>
	</contour>
	<contour>
	  <point x="112" y="730" type="line"/>
	  <point x="47" y="553" type="line"/>
	  <point x="200" y="553" type="line"/>
	  <point x="293" y="730" type="line"/>
	</contour>
	<contour>
	  <point x="250" y="500" type="move" name="_top"/>
	</contour>
  </outline>
</glyph>
<glyph name="U0965" format="1">
  <advance width="567"/>
  <unicode hex="0965"/>
  <outline>
	<contour>
	  <point x="504" y="-85" type="line"/>
	  <point x="504" y="608" type="line"/>
	  <point x="392" y="608" type="line"/>
	  <point x="392" y="-85" type="line"/>
	</contour>
	<contour>
	  <point x="235" y="-85" type="line"/>
	  <point x="235" y="608" type="line"/>
	  <point x="125" y="608" type="line"/>
	  <point x="125" y="-85" type="line"/>
	</contour>
  </outline>
</glyph>
<glyph name="U0C08" format="1">
  <advance width="1054"/>
  <unicode hex="0C08"/>
  <outline>
	<contour>
	  <point x="462" y="430"/>
	  <point x="442" y="577"/>
	  <point x="563" y="577" type="curve" smooth="yes"/>
	  <point x="582" y="577"/>
	  <point x="592" y="575"/>
	  <point x="609" y="568" type="curve"/>
	  <point x="609" y="680" type="line"/>
	  <point x="603" y="686"/>
	  <point x="591" y="687"/>
	  <point x="577" y="687" type="curve" smooth="yes"/>
	  <point x="407" y="687"/>
	  <point x="402" y="528"/>
	  <point x="284" y="528" type="curve" smooth="yes"/>
	  <point x="241" y="528"/>
	  <point x="220" y="549"/>
	  <point x="220" y="575" type="curve" smooth="yes"/>
	  <point x="220" y="589"/>
	  <point x="224" y="598"/>
	  <point x="231" y="606" type="curve"/>
	  <point x="94" y="606" type="line"/>
	  <point x="94" y="469"/>
	  <point x="211" y="430"/>
	  <point x="287" y="430" type="curve" smooth="yes"/>
	</contour>
	<component base="U0C08.part"/>
	<component base="U0C30.base" xOffset="49" xScale="1.06" yScale="1.038"/>
  </outline>
</glyph>
<glyph name="U0C09" format="1">
  <advance width="746"/>
  <unicode hex="0C09"/>
  <outline>
	<contour>
	  <point x="336" y="-7"/>
	  <point x="381" y="11"/>
	  <point x="403" y="69" type="curve"/>
	  <point x="424" y="20"/>
	  <point x="459" y="-7"/>
	  <point x="533" y="-7" type="curve" smooth="yes"/>
	  <point x="637" y="-7"/>
	  <point x="718" y="70"/>
	  <point x="718" y="165" type="curve" smooth="yes"/>
	  <point x="718" y="256"/>
	  <point x="652" y="337"/>
	  <point x="559" y="337" type="curve" smooth="yes"/>
	  <point x="524" y="337" type="line"/>
	  <point x="524" y="239" type="line"/>
	  <point x="545" y="239" type="line" smooth="yes"/>
	  <point x="575" y="239"/>
	  <point x="610" y="211"/>
	  <point x="610" y="167" type="curve" smooth="yes"/>
	  <point x="610" y="119"/>
	  <point x="584" y="95"/>
	  <point x="545" y="95" type="curve" smooth="yes"/>
	  <point x="483" y="95"/>
	  <point x="462" y="133"/>
	  <point x="475" y="197" type="curve"/>
	  <point x="349" y="197" type="line"/>
	  <point x="349" y="136"/>
	  <point x="328" y="99"/>
	  <point x="277" y="99" type="curve" smooth="yes"/>
	  <point x="218" y="99"/>
	  <point x="196" y="144"/>
	  <point x="196" y="232" type="curve" smooth="yes"/>
	  <point x="196" y="335"/>
	  <point x="265" y="434"/>
	  <point x="421" y="434" type="curve" smooth="yes"/>
	  <point x="493" y="434"/>
	  <point x="531" y="414"/>
	  <point x="554" y="374" type="curve"/>
	  <point x="662" y="374" type="line"/>
	  <point x="616" y="480"/>
	  <point x="550" y="525"/>
	  <point x="396" y="525" type="curve" smooth="yes"/>
	  <point x="199" y="525"/>
	  <point x="90" y="382"/>
	  <point x="90" y="225" type="curve" smooth="yes"/>
	  <point x="90" y="116"/>
	  <point x="140" y="-7"/>
	  <point x="286" y="-7" type="curve" smooth="yes"/>
	</contour>
	<contour>
	  <point x="438" y="239" type="line"/>
	  <point x="438" y="337" type="line"/>
	  <point x="21" y="337" type="line"/>
	  <point x="21" y="239" type="line"/>
	</contour>
	<contour>
	  <point x="430" y="480" type="line"/>
	  <point x="430" y="689" type="line"/>
	  <point x="323" y="689" type="line"/>
	  <point x="323" y="480" type="line"/>
	</contour>
  </outline>
</glyph>
<glyph name="U0C0E" format="1">
  <advance width="679"/>
  <unicode hex="0C0E"/>
  <outline>
	<contour>
	  <point x="549" y="-10"/>
	  <point x="651" y="92"/>
	  <point x="651" y="255" type="curve" smooth="yes"/>
	  <point x="651" y="379"/>
	  <point x="560" y="511"/>
	  <point x="416" y="511" type="curve" smooth="yes"/>
	  <point x="393" y="511"/>
	  <point x="368" y="507"/>
	  <point x="347" y="501" type="curve"/>
	  <point x="347" y="389" type="line"/>
	  <point x="365" y="393"/>
	  <point x="379" y="395"/>
	  <point x="400" y="395" type="curve" smooth="yes"/>
	  <point x="493" y="395"/>
	  <point x="540" y="346"/>
	  <point x="540" y="244" type="curve" smooth="yes"/>
	  <point x="540" y="157"/>
	  <point x="487" y="97"/>
	  <point x="440" y="97" type="curve" smooth="yes"/>
	  <point x="409" y="97"/>
	  <point x="378" y="111"/>
	  <point x="378" y="161" type="curve"/>
	  <point x="302" y="143" type="line"/>
	  <point x="302" y="53"/>
	  <point x="325" y="-10"/>
	  <point x="427" y="-10" type="curve" smooth="yes"/>
	</contour>
	<component base="U0C0E.part.circle"/>
  </outline>
</glyph>
<glyph name="U0C10" format="1">
  <advance width="659"/>
  <unicode hex="0C10"/>
  <outline>
	<contour>
	  <point x="536" y="-7"/>
	  <point x="630" y="118"/>
	  <point x="630" y="273" type="curve" smooth="yes"/>
	  <point x="630" y="438"/>
	  <point x="535" y="564"/>
	  <point x="410" y="564" type="curve" smooth="yes"/>
	  <point x="365" y="564"/>
	  <point x="326" y="546"/>
	  <point x="309" y="508" type="curve"/>
	  <point x="283" y="546"/>
	  <point x="249" y="564"/>
	  <point x="196" y="564" type="curve" smooth="yes"/>
	  <point x="113" y="564"/>
	  <point x="24" y="511"/>
	  <point x="34" y="378" type="curve"/>
	  <point x="141" y="378" type="line"/>
	  <point x="126" y="423"/>
	  <point x="153" y="449"/>
	  <point x="190" y="449" type="curve" smooth="yes"/>
	  <point x="237" y="449"/>
	  <point x="256" y="420"/>
	  <point x="258" y="378" type="curve"/>
	  <point x="364" y="378" type="line"/>
	  <point x="365" y="430"/>
	  <point x="388" y="445"/>
	  <point x="423" y="445" type="curve" smooth="yes"/>
	  <point x="477" y="445"/>
	  <point x="517" y="381"/>
	  <point x="517" y="273" type="curve" smooth="yes"/>
	  <point x="517" y="172"/>
	  <point x="468" y="112"/>
	  <point x="423" y="112" type="curve" smooth="yes"/>
	  <point x="392" y="112"/>
	  <point x="378" y="132"/>
	  <point x="378" y="161" type="curve"/>
	  <point x="286" y="97" type="line"/>
	  <point x="286" y="48"/>
	  <point x="329" y="-7"/>
	  <point x="413" y="-7" type="curve" smooth="yes"/>
	</contour>
	<component base="U0C0E.part.circle"/>
  </outline>
</glyph>
<glyph name="U0C16" format="1">
  <advance width="783"/>
  <unicode hex="0C16"/>
  <outline>
	<contour>
	  <point x="589" y="-7"/>
	  <point x="752" y="25"/>
	  <point x="752" y="251" type="curve" smooth="yes"/>
	  <point x="752" y="461"/>
	  <point x="615" y="504"/>
	  <point x="491" y="504" type="curve"/>
	  <point x="494" y="392" type="line"/>
	  <point x="585" y="413"/>
	  <point x="640" y="346"/>
	  <point x="640" y="246" type="curve" smooth="yes"/>
	  <point x="640" y="133"/>
	  <point x="587" y="94"/>
	  <point x="526" y="94" type="curve" smooth="yes"/>
	  <point x="395" y="94"/>
	  <point x="396" y="242"/>
	  <point x="183" y="242" type="curve" smooth="yes"/>
	  <point x="120" y="242"/>
	  <point x="24" y="209"/>
	  <point x="24" y="118" type="curve" smooth="yes"/>
	  <point x="24" y="49"/>
	  <point x="78" y="-6"/>
	  <point x="186" y="-6" type="curve" smooth="yes"/>
	  <point x="335" y="-6"/>
	  <point x="470" y="130"/>
	  <point x="470" y="288" type="curve" smooth="yes"/>
	  <point x="470" y="444"/>
	  <point x="363" y="535"/>
	  <point x="214" y="535" type="curve" smooth="yes"/>
	  <point x="95" y="535"/>
	  <point x="29" y="475"/>
	  <point x="29" y="391" type="curve" smooth="yes"/>
	  <point x="29" y="322"/>
	  <point x="81" y="269"/>
	  <point x="174" y="269" type="curve" smooth="yes"/>
	  <point x="270" y="269"/>
	  <point x="325" y="337"/>
	  <point x="307" y="405" type="curve"/>
	  <point x="353" y="377"/>
	  <point x="370" y="337"/>
	  <point x="370" y="283" type="curve" smooth="yes"/>
	  <point x="370" y="214"/>
	  <point x="333" y="97"/>
	  <point x="197" y="97" type="curve" smooth="yes"/>
	  <point x="160" y="97"/>
	  <point x="141" y="109"/>
	  <point x="141" y="126" type="curve" smooth="yes"/>
	  <point x="141" y="143"/>
	  <point x="162" y="153"/>
	  <point x="197" y="153" type="curve" smooth="yes"/>
	  <point x="337" y="153"/>
	  <point x="343" y="-7"/>
	  <point x="521" y="-7" type="curve" smooth="yes"/>
	</contour>
	<contour>
	  <point x="150" y="354"/>
	  <point x="133" y="371"/>
	  <point x="133" y="398" type="curve" smooth="yes"/>
	  <point x="133" y="423"/>
	  <point x="150" y="440"/>
	  <point x="176" y="440" type="curve" smooth="yes"/>
	  <point x="202" y="440"/>
	  <point x="218" y="423"/>
	  <point x="218" y="398" type="curve" smooth="yes"/>
	  <point x="218" y="371"/>
	  <point x="202" y="354"/>
	  <point x="176" y="354" type="curve" smooth="yes"/>
	</contour>
	<component base="bot.dotmark" xOffset="38"/>
  </outline>
</glyph>
<glyph name="U0C1A" format="1">
  <advance width="830"/>
  <unicode hex="0C1A"/>
  <outline>
	<contour>
	  <point x="375" y="-8"/>
	  <point x="426" y="14"/>
	  <point x="454" y="66" type="curve"/>
	  <point x="475" y="17"/>
	  <point x="512" y="-7"/>
	  <point x="582" y="-7" type="curve" smooth="yes"/>
	  <point x="717" y="-7"/>
	  <point x="802" y="118"/>
	  <point x="802" y="252" type="curve" smooth="yes"/>
	  <point x="802" y="392"/>
	  <point x="700" y="505"/>
	  <point x="581" y="505" type="curve" smooth="yes"/>
	  <point x="486" y="505" type="line"/>
	  <point x="400" y="410" type="line"/>
	  <point x="525" y="410" type="line" smooth="yes"/>
	  <point x="617" y="410"/>
	  <point x="687" y="363"/>
	  <point x="687" y="255" type="curve" smooth="yes"/>
	  <point x="687" y="167"/>
	  <point x="654" y="99"/>
	  <point x="591" y="99" type="curve" smooth="yes"/>
	  <point x="549" y="99"/>
	  <point x="524" y="127"/>
	  <point x="524" y="176" type="curve" smooth="yes"/>
	  <point x="524" y="197"/>
	  <point x="525" y="216"/>
	  <point x="528" y="228" type="curve"/>
	  <point x="392" y="228" type="line"/>
	  <point x="393" y="220"/>
	  <point x="396" y="206"/>
	  <point x="396" y="186" type="curve" smooth="yes"/>
	  <point x="396" y="143"/>
	  <point x="374" y="109"/>
	  <point x="330" y="109" type="curve" smooth="yes"/>
	  <point x="287" y="109"/>
	  <point x="263" y="137"/>
	  <point x="263" y="186" type="curve" smooth="yes"/>
	  <point x="263" y="239"/>
	  <point x="287" y="267"/>
	  <point x="337" y="280" type="curve"/>
	  <point x="175" y="280" type="line"/>
	  <point x="141" y="242"/>
	  <point x="133" y="199"/>
	  <point x="133" y="164" type="curve" smooth="yes"/>
	  <point x="133" y="66"/>
	  <point x="203" y="-8"/>
	  <point x="315" y="-8" type="curve" smooth="yes"/>
	</contour>
	<contour>
	  <point x="209" y="258" type="line"/>
	  <point x="337" y="280" type="line"/>
	  <point x="337" y="365" type="line"/>
	  <point x="209" y="365" type="line"/>
	  <point x="21" y="365" type="line"/>
	  <point x="21" y="258" type="line"/>
	</contour>
	<component base="U0C24.topmark" xOffset="108" yOffset="-4"/>
  </outline>
</glyph>
<glyph name="U0C1C" format="1">
  <advance width="661"/>
  <unicode hex="0C1C"/>
  <outline>
	<contour>
	  <point x="557" y="244"/>
	  <point x="633" y="287"/>
	  <point x="631" y="395" type="curve" smooth="yes"/>
	  <point x="630" y="501"/>
	  <point x="552" y="538"/>
	  <point x="470" y="538" type="curve" smooth="yes"/>
	  <point x="449" y="538"/>
	  <point x="423" y="536"/>
	  <point x="398" y="533" type="curve"/>
	  <point x="398" y="431" type="line"/>
	  <point x="414" y="437"/>
	  <point x="431" y="440"/>
	  <point x="463" y="440" type="curve" smooth="yes"/>
	  <point x="501" y="440"/>
	  <point x="521" y="417"/>
	  <point x="521" y="389" type="curve" smooth="yes"/>
	  <point x="521" y="358"/>
	  <point x="504" y="335"/>
	  <point x="459" y="335" type="curve" smooth="yes"/>
	  <point x="405" y="335"/>
	  <point x="370" y="351"/>
	  <point x="344" y="434" type="curve"/>
	  <point x="274" y="386" type="line"/>
	  <point x="307" y="297"/>
	  <point x="353" y="244"/>
	  <point x="461" y="244" type="curve" smooth="yes"/>
	</contour>
	<contour>
	  <point x="640" y="168" type="line"/>
	  <point x="640" y="203" type="line"/>
	  <point x="531" y="203" type="line"/>
	  <point x="535" y="193"/>
	  <point x="538" y="182"/>
	  <point x="538" y="168" type="curve"/>
	  <point x="585" y="153" type="line"/>
	</contour>
	<component base="U0C12.part" xOffset="14"/>
  </outline>
</glyph>
<glyph name="U0C1E" format="1">
  <advance width="987"/>
  <unicode hex="0C1E"/>
  <outline>
	<contour>
	  <point x="930" y="228" type="line"/>
	  <point x="930" y="322" type="line"/>
	  <point x="550" y="322" type="line"/>
	  <point x="550" y="228" type="line"/>
	</contour>
	<contour>
	  <point x="805" y="150" type="line"/>
	  <point x="805" y="412" type="line"/>
	  <point x="693" y="412" type="line"/>
	  <point x="693" y="150" type="line"/>
	</contour>
	<component base="U0C07" xOffset="8"/>
  </outline>
</glyph>
<glyph name="U0C21" format="1">
  <advance width="655"/>
  <unicode hex="0C21"/>
  <outline>
	<contour>
	  <point x="266" y="-10"/>
	  <point x="301" y="13"/>
	  <point x="328" y="70" type="curve"/>
	  <point x="356" y="14"/>
	  <point x="393" y="-8"/>
	  <point x="463" y="-8" type="curve" smooth="yes"/>
	  <point x="553" y="-8"/>
	  <point x="627" y="79"/>
	  <point x="627" y="196" type="curve" smooth="yes"/>
	  <point x="627" y="280"/>
	  <point x="568" y="374"/>
	  <point x="470" y="374" type="curve" smooth="yes"/>
	  <point x="454" y="374"/>
	  <point x="437" y="371"/>
	  <point x="421" y="367" type="curve"/>
	  <point x="421" y="252" type="line"/>
	  <point x="431" y="260"/>
	  <point x="449" y="265"/>
	  <point x="465" y="265" type="curve" smooth="yes"/>
	  <point x="505" y="265"/>
	  <point x="529" y="229"/>
	  <point x="529" y="196" type="curve" smooth="yes"/>
	  <point x="529" y="136"/>
	  <point x="500" y="111"/>
	  <point x="462" y="111" type="curve" smooth="yes"/>
	  <point x="419" y="111"/>
	  <point x="395" y="137"/>
	  <point x="395" y="189" type="curve" smooth="yes"/>
	  <point x="395" y="213" type="line"/>
	  <point x="283" y="213" type="line"/>
	  <point x="283" y="189" type="line" smooth="yes"/>
	  <point x="283" y="136"/>
	  <point x="255" y="101"/>
	  <point x="220" y="101" type="curve" smooth="yes"/>
	  <point x="156" y="101"/>
	  <point x="127" y="173"/>
	  <point x="127" y="239" type="curve" smooth="yes"/>
	  <point x="127" y="348"/>
	  <point x="193" y="419"/>
	  <point x="298" y="419" type="curve" smooth="yes"/>
	  <point x="539" y="419" type="line"/>
	  <point x="539" y="511" type="line"/>
	  <point x="323" y="511" type="line" smooth="yes"/>
	  <point x="221" y="511"/>
	  <point x="21" y="493"/>
	  <point x="21" y="235" type="curve" smooth="yes"/>
	  <point x="21" y="114"/>
	  <point x="85" y="-10"/>
	  <point x="209" y="-10" type="curve" smooth="yes"/>
	</contour>
	<contour>
	  <point x="311" y="452"/>
	  <point x="363" y="469"/>
	  <point x="410" y="519" type="curve" smooth="yes"/>
	  <point x="458" y="571"/>
	  <point x="484" y="582"/>
	  <point x="529" y="582" type="curve" smooth="yes"/>
	  <point x="554" y="582"/>
	  <point x="568" y="577"/>
	  <point x="578" y="570" type="curve"/>
	  <point x="578" y="672" type="line"/>
	  <point x="568" y="680"/>
	  <point x="553" y="686"/>
	  <point x="522" y="686" type="curve" smooth="yes"/>
	  <point x="445" y="686"/>
	  <point x="405" y="647"/>
	  <point x="353" y="587" type="curve" smooth="yes"/>
	  <point x="312" y="540"/>
	  <point x="295" y="526"/>
	  <point x="262" y="526" type="curve" smooth="yes"/>
	  <point x="224" y="526"/>
	  <point x="209" y="549"/>
	  <point x="209" y="577" type="curve" smooth="yes"/>
	  <point x="209" y="589"/>
	  <point x="210" y="592"/>
	  <point x="211" y="596" type="curve"/>
	  <point x="92" y="596" type="line"/>
	  <point x="92" y="581" type="line" smooth="yes"/>
	  <point x="92" y="503"/>
	  <point x="141" y="452"/>
	  <point x="234" y="452" type="curve" smooth="yes"/>
	</contour>
  </outline>
</glyph>
<glyph name="U0C26" format="1">
  <advance width="658"/>
  <unicode hex="0C26"/>
  <outline>
	<contour>
	  <point x="266" y="-7"/>
	  <point x="307" y="17"/>
	  <point x="328" y="57" type="curve"/>
	  <point x="349" y="17"/>
	  <point x="389" y="-7"/>
	  <point x="441" y="-7" type="curve" smooth="yes"/>
	  <point x="540" y="-7"/>
	  <point x="633" y="73"/>
	  <point x="633" y="244" type="curve" smooth="yes"/>
	  <point x="633" y="396"/>
	  <point x="505" y="505"/>
	  <point x="328" y="505" type="curve" smooth="yes"/>
	  <point x="150" y="505"/>
	  <point x="22" y="396"/>
	  <point x="22" y="244" type="curve" smooth="yes"/>
	  <point x="22" y="73"/>
	  <point x="115" y="-7"/>
	  <point x="214" y="-7" type="curve" smooth="yes"/>
	</contour>
	<contour>
	  <point x="171" y="106"/>
	  <point x="134" y="148"/>
	  <point x="134" y="244" type="curve" smooth="yes"/>
	  <point x="134" y="353"/>
	  <point x="213" y="421"/>
	  <point x="328" y="421" type="curve" smooth="yes"/>
	  <point x="442" y="421"/>
	  <point x="521" y="353"/>
	  <point x="521" y="244" type="curve" smooth="yes"/>
	  <point x="521" y="148"/>
	  <point x="484" y="106"/>
	  <point x="448" y="106" type="curve" smooth="yes"/>
	  <point x="412" y="106"/>
	  <point x="375" y="129"/>
	  <point x="382" y="225" type="curve"/>
	  <point x="273" y="225" type="line"/>
	  <point x="280" y="129"/>
	  <point x="244" y="106"/>
	  <point x="207" y="106" type="curve" smooth="yes"/>
	</contour>
	<component base="U0C26.topmark"/>
  </outline>
</glyph>
<glyph name="U0C2D" format="1">
  <advance width="701"/>
  <unicode hex="0C2D"/>
  <outline>
	<contour>
	  <point x="472" y="428"/>
	  <point x="532" y="479"/>
	  <point x="549" y="503" type="curve" smooth="yes"/>
	  <point x="584" y="550"/>
	  <point x="601" y="559"/>
	  <point x="626" y="559" type="curve" smooth="yes"/>
	  <point x="645" y="559"/>
	  <point x="658" y="553"/>
	  <point x="673" y="542" type="curve"/>
	  <point x="673" y="630" type="line"/>
	  <point x="664" y="637"/>
	  <point x="650" y="643"/>
	  <point x="622" y="643" type="curve" smooth="yes"/>
	  <point x="582" y="643"/>
	  <point x="553" y="631"/>
	  <point x="512" y="582" type="curve" smooth="yes"/>
	  <point x="465" y="524"/>
	  <point x="458" y="515"/>
	  <point x="435" y="515" type="curve" smooth="yes"/>
	  <point x="413" y="515"/>
	  <point x="391" y="540"/>
	  <point x="399" y="568" type="curve" smooth="yes"/>
	  <point x="402" y="578" type="line"/>
	  <point x="298" y="578" type="line"/>
	  <point x="298" y="567" type="line" smooth="yes"/>
	  <point x="298" y="514"/>
	  <point x="325" y="428"/>
	  <point x="430" y="428" type="curve" smooth="yes"/>
	</contour>
	<component base="bot.dotmark"/>
	<component base="U0C2D.part"/>
  </outline>
</glyph>
<glyph name="U0C31" format="1">
  <advance width="720"/>
  <unicode hex="0C31"/>
  <outline>
	<contour>
	  <point x="615" y="-7"/>
	  <point x="692" y="119"/>
	  <point x="692" y="246" type="curve" smooth="yes"/>
	  <point x="692" y="431"/>
	  <point x="601" y="517"/>
	  <point x="505" y="517" type="curve" smooth="yes"/>
	  <point x="410" y="517"/>
	  <point x="364" y="444"/>
	  <point x="364" y="378" type="curve" smooth="yes"/>
	  <point x="364" y="314"/>
	  <point x="406" y="277"/>
	  <point x="461" y="251" type="curve"/>
	  <point x="510" y="294" type="line"/>
	  <point x="473" y="308"/>
	  <point x="456" y="332"/>
	  <point x="456" y="364" type="curve" smooth="yes"/>
	  <point x="456" y="400"/>
	  <point x="482" y="419"/>
	  <point x="511" y="419" type="curve" smooth="yes"/>
	  <point x="557" y="419"/>
	  <point x="585" y="368"/>
	  <point x="585" y="253" type="curve" smooth="yes"/>
	  <point x="585" y="153"/>
	  <point x="542" y="85"/>
	  <point x="480" y="85" type="curve" smooth="yes"/>
	  <point x="437" y="85"/>
	  <point x="409" y="105"/>
	  <point x="416" y="167" type="curve"/>
	  <point x="340" y="167" type="line"/>
	  <point x="340" y="127" type="line" smooth="yes"/>
	  <point x="340" y="38"/>
	  <point x="413" y="-7"/>
	  <point x="479" y="-7" type="curve" smooth="yes"/>
	</contour>
	<contour>
	  <point x="293" y="-7"/>
	  <point x="365" y="38"/>
	  <point x="365" y="127" type="curve" smooth="yes"/>
	  <point x="365" y="167" type="line"/>
	  <point x="290" y="167" type="line"/>
	  <point x="297" y="105"/>
	  <point x="269" y="85"/>
	  <point x="225" y="85" type="curve" smooth="yes"/>
	  <point x="164" y="85"/>
	  <point x="127" y="137"/>
	  <point x="127" y="227" type="curve" smooth="yes"/>
	  <point x="127" y="252"/>
	  <point x="133" y="273"/>
	  <point x="139" y="287" type="curve"/>
	  <point x="155" y="260"/>
	  <point x="179" y="249"/>
	  <point x="209" y="249" type="curve" smooth="yes"/>
	  <point x="288" y="249"/>
	  <point x="328" y="314"/>
	  <point x="328" y="382" type="curve" smooth="yes"/>
	  <point x="328" y="473"/>
	  <point x="269" y="517"/>
	  <point x="203" y="517" type="curve" smooth="yes"/>
	  <point x="95" y="517"/>
	  <point x="21" y="391"/>
	  <point x="21" y="232" type="curve" smooth="yes"/>
	  <point x="21" y="94"/>
	  <point x="91" y="-7"/>
	  <point x="227" y="-7" type="curve" smooth="yes"/>
	</contour>
	<contour>
	  <point x="174" y="337"/>
	  <point x="154" y="357"/>
	  <point x="154" y="381" type="curve" smooth="yes"/>
	  <point x="154" y="403"/>
	  <point x="174" y="423"/>
	  <point x="197" y="423" type="curve" smooth="yes"/>
	  <point x="220" y="423"/>
	  <point x="239" y="403"/>
	  <point x="239" y="381" type="curve" smooth="yes"/>
	  <point x="239" y="357"/>
	  <point x="220" y="337"/>
	  <point x="197" y="337" type="curve" smooth="yes"/>
	</contour>
	<contour>
	  <point x="510" y="195" type="line"/>
	  <point x="510" y="294" type="line"/>
	  <point x="207" y="294" type="line"/>
	  <point x="207" y="195" type="line"/>
	</contour>
  </outline>
</glyph>
<glyph name="U0C33" format="1">
  <advance width="671"/>
  <unicode hex="0C33"/>
  <outline>
	<contour>
	  <point x="434" y="238"/>
	  <point x="563" y="287"/>
	  <point x="563" y="399" type="curve" smooth="yes"/>
	  <point x="563" y="459"/>
	  <point x="529" y="507"/>
	  <point x="484" y="507" type="curve" smooth="yes"/>
	  <point x="419" y="507" type="line"/>
	  <point x="386" y="433" type="line"/>
	  <point x="417" y="433" type="line" smooth="yes"/>
	  <point x="458" y="433"/>
	  <point x="477" y="417"/>
	  <point x="477" y="389" type="curve" smooth="yes"/>
	  <point x="477" y="336"/>
	  <point x="386" y="304"/>
	  <point x="318" y="304" type="curve" smooth="yes"/>
	  <point x="255" y="304"/>
	  <point x="224" y="314"/>
	  <point x="199" y="332" type="curve"/>
	  <point x="234" y="347"/>
	  <point x="253" y="372"/>
	  <point x="253" y="420" type="curve" smooth="yes"/>
	  <point x="253" y="479"/>
	  <point x="218" y="525"/>
	  <point x="147" y="525" type="curve" smooth="yes"/>
	  <point x="74" y="525"/>
	  <point x="21" y="486"/>
	  <point x="21" y="409" type="curve" smooth="yes"/>
	  <point x="21" y="286"/>
	  <point x="164" y="237"/>
	  <point x="302" y="237" type="curve" smooth="yes"/>
	</contour>
	<contour>
	  <point x="416" y="-10"/>
	  <point x="515" y="56"/>
	  <point x="515" y="179" type="curve" smooth="yes"/>
	  <point x="515" y="295"/>
	  <point x="417" y="297"/>
	  <point x="311" y="297" type="curve" smooth="yes"/>
	  <point x="203" y="297"/>
	  <point x="95" y="255"/>
	  <point x="95" y="153" type="curve" smooth="yes"/>
	  <point x="95" y="42"/>
	  <point x="182" y="-10"/>
	  <point x="294" y="-10" type="curve" smooth="yes"/>
	</contour>
	<contour>
	  <point x="232" y="83"/>
	  <point x="196" y="106"/>
	  <point x="196" y="153" type="curve" smooth="yes"/>
	  <point x="196" y="202"/>
	  <point x="254" y="218"/>
	  <point x="309" y="218" type="curve" smooth="yes"/>
	  <point x="385" y="218"/>
	  <point x="423" y="200"/>
	  <point x="423" y="165" type="curve" smooth="yes"/>
	  <point x="423" y="116"/>
	  <point x="359" y="83"/>
	  <point x="304" y="83" type="curve" smooth="yes"/>
	</contour>
	<contour>
	  <point x="122" y="371"/>
	  <point x="106" y="386"/>
	  <point x="106" y="410" type="curve" smooth="yes"/>
	  <point x="106" y="434"/>
	  <point x="122" y="449"/>
	  <point x="146" y="449" type="curve" smooth="yes"/>
	  <point x="169" y="449"/>
	  <point x="185" y="434"/>
	  <point x="185" y="410" type="curve" smooth="yes"/>
	  <point x="185" y="386"/>
	  <point x="169" y="371"/>
	  <point x="146" y="371" type="curve" smooth="yes"/>
	</contour>
	<contour>
	  <point x="432" y="433"/>
	  <point x="470" y="468"/>
	  <point x="501" y="501" type="curve" smooth="yes"/>
	  <point x="540" y="545"/>
	  <point x="563" y="575"/>
	  <point x="599" y="575" type="curve" smooth="yes"/>
	  <point x="617" y="575"/>
	  <point x="630" y="567"/>
	  <point x="643" y="553" type="curve"/>
	  <point x="643" y="664" type="line"/>
	  <point x="626" y="671"/>
	  <point x="609" y="673"/>
	  <point x="591" y="673" type="curve" smooth="yes"/>
	  <point x="531" y="673"/>
	  <point x="504" y="636"/>
	  <point x="452" y="581" type="curve" smooth="yes"/>
	  <point x="420" y="546"/>
	  <point x="393" y="515"/>
	  <point x="371" y="515" type="curve" smooth="yes"/>
	  <point x="349" y="515"/>
	  <point x="342" y="528"/>
	  <point x="342" y="553" type="curve" smooth="yes"/>
	  <point x="342" y="581" type="line"/>
	  <point x="227" y="581" type="line"/>
	  <point x="227" y="560" type="line" smooth="yes"/>
	  <point x="227" y="486"/>
	  <point x="290" y="433"/>
	  <point x="386" y="433" type="curve" smooth="yes"/>
	</contour>
  </outline>
</glyph>
<glyph name="U0C35" format="1">
  <advance width="655"/>
  <unicode hex="0C35"/>
  <outline>
	<contour>
	  <point x="549" y="-10"/>
	  <point x="627" y="92"/>
	  <point x="627" y="255" type="curve" smooth="yes"/>
	  <point x="627" y="379"/>
	  <point x="550" y="505"/>
	  <point x="388" y="505" type="curve" smooth="yes"/>
	  <point x="346" y="505"/>
	  <point x="347" y="497"/>
	  <point x="291" y="497" type="curve"/>
	  <point x="200" y="386" type="line"/>
	  <point x="276" y="386"/>
	  <point x="290" y="405"/>
	  <point x="371" y="405" type="curve" smooth="yes"/>
	  <point x="476" y="405"/>
	  <point x="517" y="330"/>
	  <point x="517" y="249" type="curve" smooth="yes"/>
	  <point x="517" y="157"/>
	  <point x="487" y="99"/>
	  <point x="440" y="99" type="curve" smooth="yes"/>
	  <point x="405" y="99"/>
	  <point x="378" y="111"/>
	  <point x="378" y="161" type="curve"/>
	  <point x="302" y="143" type="line"/>
	  <point x="302" y="53"/>
	  <point x="325" y="-10"/>
	  <point x="427" y="-10" type="curve" smooth="yes"/>
	</contour>
	<contour>
	  <point x="267" y="386"/>
	  <point x="311" y="435"/>
	  <point x="374" y="512" type="curve" smooth="yes"/>
	  <point x="414" y="563"/>
	  <point x="442" y="580"/>
	  <point x="480" y="580" type="curve" smooth="yes"/>
	  <point x="503" y="580"/>
	  <point x="517" y="574"/>
	  <point x="528" y="564" type="curve"/>
	  <point x="528" y="673" type="line"/>
	  <point x="515" y="682"/>
	  <point x="496" y="686"/>
	  <point x="472" y="686" type="curve" smooth="yes"/>
	  <point x="409" y="686"/>
	  <point x="377" y="654"/>
	  <point x="319" y="585" type="curve" smooth="yes"/>
	  <point x="262" y="517"/>
	  <point x="239" y="497"/>
	  <point x="200" y="497" type="curve" smooth="yes"/>
	  <point x="158" y="497"/>
	  <point x="136" y="514"/>
	  <point x="136" y="545" type="curve" smooth="yes"/>
	  <point x="136" y="554"/>
	  <point x="137" y="560"/>
	  <point x="139" y="564" type="curve"/>
	  <point x="20" y="564" type="line"/>
	  <point x="20" y="549" type="line" smooth="yes"/>
	  <point x="20" y="484"/>
	  <point x="67" y="386"/>
	  <point x="192" y="386" type="curve" smooth="yes"/>
	</contour>
	<component base="U0C0E.part.circle"/>
  </outline>
</glyph>
<glyph name="U0C36" format="1">
  <advance width="631"/>
  <unicode hex="0C36"/>
  <outline>
	<contour>
	  <point x="508" y="-10"/>
	  <point x="594" y="69"/>
	  <point x="594" y="182" type="curve" smooth="yes"/>
	  <point x="594" y="302"/>
	  <point x="500" y="374"/>
	  <point x="340" y="374" type="curve" smooth="yes"/>
	  <point x="291" y="374"/>
	  <point x="176" y="280"/>
	  <point x="176" y="161" type="curve" smooth="yes"/>
	  <point x="176" y="69"/>
	  <point x="262" y="-10"/>
	  <point x="385" y="-10" type="curve" smooth="yes"/>
	</contour>
	<contour>
	  <point x="147" y="113" type="line"/>
	  <point x="134" y="129"/>
	  <point x="129" y="150"/>
	  <point x="129" y="176" type="curve" smooth="yes"/>
	  <point x="129" y="245"/>
	  <point x="158" y="286"/>
	  <point x="248" y="286" type="curve"/>
	  <point x="340" y="374" type="line"/>
	  <point x="174" y="371"/>
	  <point x="21" y="326"/>
	  <point x="21" y="171" type="curve" smooth="yes"/>
	  <point x="21" y="144"/>
	  <point x="25" y="125"/>
	  <point x="32" y="113" type="curve"/>
	</contour>
	<contour>
	  <point x="339" y="88"/>
	  <point x="298" y="129"/>
	  <point x="298" y="179" type="curve" smooth="yes"/>
	  <point x="298" y="230"/>
	  <point x="339" y="270"/>
	  <point x="389" y="270" type="curve" smooth="yes"/>
	  <point x="440" y="270"/>
	  <point x="480" y="230"/>
	  <point x="480" y="179" type="curve" smooth="yes"/>
	  <point x="480" y="129"/>
	  <point x="440" y="88"/>
	  <point x="389" y="88" type="curve" smooth="yes"/>
	</contour>
	<contour>
	  <point x="540" y="308"/>
	  <point x="588" y="343"/>
	  <point x="588" y="405" type="curve" smooth="yes"/>
	  <point x="588" y="455"/>
	  <point x="545" y="514"/>
	  <point x="447" y="514" type="curve" smooth="yes"/>
	  <point x="378" y="514" type="line"/>
	  <point x="323" y="433" type="line"/>
	  <point x="431" y="433" type="line" smooth="yes"/>
	  <point x="463" y="433"/>
	  <point x="484" y="421"/>
	  <point x="484" y="396" type="curve" smooth="yes"/>
	  <point x="484" y="375"/>
	  <point x="470" y="354"/>
	  <point x="431" y="354" type="curve"/>
	  <point x="494" y="295" type="line"/>
	</contour>
	<contour>
	  <point x="374" y="433"/>
	  <point x="417" y="455"/>
	  <point x="462" y="514" type="curve" smooth="yes"/>
	  <point x="493" y="553"/>
	  <point x="519" y="563"/>
	  <point x="546" y="563" type="curve" smooth="yes"/>
	  <point x="574" y="563"/>
	  <point x="591" y="556"/>
	  <point x="603" y="543" type="curve"/>
	  <point x="603" y="652" type="line"/>
	  <point x="591" y="661"/>
	  <point x="575" y="665"/>
	  <point x="549" y="665" type="curve" smooth="yes"/>
	  <point x="498" y="665"/>
	  <point x="451" y="637"/>
	  <point x="405" y="582" type="curve" smooth="yes"/>
	  <point x="356" y="524"/>
	  <point x="343" y="515"/>
	  <point x="323" y="515" type="curve" smooth="yes"/>
	  <point x="300" y="515"/>
	  <point x="291" y="528"/>
	  <point x="291" y="553" type="curve" smooth="yes"/>
	  <point x="291" y="581" type="line"/>
	  <point x="176" y="581" type="line"/>
	  <point x="176" y="560" type="line" smooth="yes"/>
	  <point x="176" y="526"/>
	  <point x="199" y="433"/>
	  <point x="323" y="433" type="curve" smooth="yes"/>
	</contour>
  </outline>
</glyph>
<glyph name="U0C37" format="1">
  <advance width="721"/>
  <unicode hex="0C37"/>
  <outline>
	<contour>
	  <point x="692" y="-112" type="line"/>
	  <point x="652" y="-95"/>
	  <point x="630" y="-55"/>
	  <point x="630" y="25" type="curve" smooth="yes"/>
	  <point x="630" y="105"/>
	  <point x="651" y="179"/>
	  <point x="651" y="245" type="curve"/>
	  <point x="595" y="245" type="line"/>
	  <point x="595" y="134"/>
	  <point x="524" y="43"/>
	  <point x="524" y="-41" type="curve" smooth="yes"/>
	  <point x="524" y="-102"/>
	  <point x="538" y="-134"/>
	  <point x="568" y="-165" type="curve"/>
	</contour>
	<component base="U0C2A"/>
  </outline>
</glyph>
<glyph name="U0C3F" format="1">
  <advance width="0"/>
  <unicode hex="0C3F"/>
  <outline>
	<contour>
	  <point x="132" y="441"/>
	  <point x="228" y="529"/>
	  <point x="228" y="638" type="curve" smooth="yes"/>
	  <point x="228" y="783"/>
	  <point x="102" y="837"/>
	  <point x="-7" y="837" type="curve" smooth="yes"/>
	  <point x="-98" y="837"/>
	  <point x="-179" y="792"/>
	  <point x="-179" y="714" type="curve" smooth="yes"/>
	  <point x="-179" y="640"/>
	  <point x="-120" y="595"/>
	  <point x="-45" y="595" type="curve" smooth="yes"/>
	  <point x="62" y="595"/>
	  <point x="99" y="669"/>
	  <point x="78" y="724" type="curve"/>
	  <point x="80" y="725" type="line"/>
	  <point x="112" y="711"/>
	  <point x="136" y="686"/>
	  <point x="136" y="643" type="curve" smooth="yes"/>
	  <point x="136" y="566"/>
	  <point x="77" y="524"/>
	  <point x="-1" y="524" type="curve" smooth="yes"/>
	  <point x="-60" y="524"/>
	  <point x="-94" y="540"/>
	  <point x="-122" y="577" type="curve"/>
	  <point x="-197" y="525" type="line"/>
	  <point x="-151" y="466"/>
	  <point x="-80" y="441"/>
	  <point x="-6" y="441" type="curve" smooth="yes"/>
	</contour>
	<contour>
	  <point x="-62" y="676"/>
	  <point x="-78" y="692"/>
	  <point x="-78" y="713" type="curve" smooth="yes"/>
	  <point x="-78" y="735"/>
	  <point x="-62" y="750"/>
	  <point x="-37" y="750" type="curve" smooth="yes"/>
	  <point x="-13" y="750"/>
	  <point x="4" y="735"/>
	  <point x="4" y="713" type="curve" smooth="yes"/>
	  <point x="4" y="692"/>
	  <point x="-13" y="676"/>
	  <point x="-37" y="676" type="curve" smooth="yes"/>
	</contour>
  </outline>
</glyph>
<glyph name="U0C43" format="1">
  <advance width="386"/>
  <unicode hex="0C43"/>
  <outline>
	<contour>
	  <point x="282" y="-341"/>
	  <point x="383" y="-228"/>
	  <point x="383" y="-81" type="curve" smooth="yes"/>
	  <point x="383" y="83"/>
	  <point x="268" y="232"/>
	  <point x="142" y="232" type="curve" smooth="yes"/>
	  <point x="131" y="232"/>
	  <point x="119" y="231"/>
	  <point x="107" y="227" type="curve"/>
	  <point x="107" y="119" type="line"/>
	  <point x="117" y="127"/>
	  <point x="133" y="130"/>
	  <point x="147" y="129" type="curve" smooth="yes"/>
	  <point x="226" y="129"/>
	  <point x="278" y="28"/>
	  <point x="278" y="-70" type="curve" smooth="yes"/>
	  <point x="278" y="-161"/>
	  <point x="245" y="-241"/>
	  <point x="167" y="-241" type="curve" smooth="yes"/>
	  <point x="146" y="-241"/>
	  <point x="126" y="-238"/>
	  <point x="105" y="-220" type="curve"/>
	  <point x="166" y="-216"/>
	  <point x="199" y="-164"/>
	  <point x="199" y="-116" type="curve" smooth="yes"/>
	  <point x="199" y="-53"/>
	  <point x="153" y="-6"/>
	  <point x="83" y="-6" type="curve" smooth="yes"/>
	  <point x="-8" y="-6"/>
	  <point x="-57" y="-70"/>
	  <point x="-57" y="-151" type="curve" smooth="yes"/>
	  <point x="-57" y="-263"/>
	  <point x="42" y="-340"/>
	  <point x="153" y="-340" type="curve" smooth="yes"/>
	</contour>
	<contour>
	  <point x="54" y="-155"/>
	  <point x="40" y="-141"/>
	  <point x="40" y="-123" type="curve" smooth="yes"/>
	  <point x="40" y="-105"/>
	  <point x="54" y="-91"/>
	  <point x="72" y="-91" type="curve" smooth="yes"/>
	  <point x="90" y="-91"/>
	  <point x="104" y="-105"/>
	  <point x="104" y="-123" type="curve" smooth="yes"/>
	  <point x="104" y="-141"/>
	  <point x="90" y="-155"/>
	  <point x="72" y="-155" type="curve" smooth="yes"/>
	</contour>
  </outline>
</glyph>
<glyph name="U0C44" format="1">
  <advance width="686"/>
  <unicode hex="0C44"/>
  <outline>
	<contour>
	  <point x="290" y="-342"/>
	  <point x="391" y="-228"/>
	  <point x="391" y="-81" type="curve" smooth="yes"/>
	  <point x="391" y="83"/>
	  <point x="276" y="232"/>
	  <point x="150" y="232" type="curve" smooth="yes"/>
	  <point x="140" y="232"/>
	  <point x="127" y="231"/>
	  <point x="115" y="227" type="curve"/>
	  <point x="115" y="123" type="line"/>
	  <point x="125" y="127"/>
	  <point x="141" y="130"/>
	  <point x="155" y="129" type="curve" smooth="yes"/>
	  <point x="234" y="129"/>
	  <point x="286" y="28"/>
	  <point x="286" y="-70" type="curve" smooth="yes"/>
	  <point x="286" y="-161"/>
	  <point x="253" y="-241"/>
	  <point x="175" y="-241" type="curve" smooth="yes"/>
	  <point x="154" y="-241"/>
	  <point x="134" y="-238"/>
	  <point x="113" y="-220" type="curve"/>
	  <point x="174" y="-216"/>
	  <point x="207" y="-164"/>
	  <point x="207" y="-116" type="curve" smooth="yes"/>
	  <point x="207" y="-53"/>
	  <point x="161" y="-6"/>
	  <point x="91" y="-6" type="curve" smooth="yes"/>
	  <point x="0" y="-6"/>
	  <point x="-49" y="-70"/>
	  <point x="-49" y="-151" type="curve" smooth="yes"/>
	  <point x="-49" y="-263"/>
	  <point x="50" y="-340"/>
	  <point x="161" y="-340" type="curve" smooth="yes"/>
	</contour>
	<contour>
	  <point x="62" y="-155"/>
	  <point x="48" y="-141"/>
	  <point x="48" y="-123" type="curve" smooth="yes"/>
	  <point x="48" y="-105"/>
	  <point x="62" y="-91"/>
	  <point x="80" y="-91" type="curve" smooth="yes"/>
	  <point x="98" y="-91"/>
	  <point x="112" y="-105"/>
	  <point x="112" y="-123" type="curve" smooth="yes"/>
	  <point x="112" y="-141"/>
	  <point x="98" y="-155"/>
	  <point x="80" y="-155" type="curve" smooth="yes"/>
	</contour>
	<contour>
	  <point x="421" y="153" type="line"/>
	  <point x="421" y="232" type="line"/>
	  <point x="150" y="232" type="line"/>
	  <point x="150" y="153" type="line"/>
	</contour>
	<contour>
	  <point x="631" y="-116"/>
	  <point x="680" y="-46"/>
	  <point x="680" y="52" type="curve" smooth="yes"/>
	  <point x="680" y="157"/>
	  <point x="617" y="232"/>
	  <point x="508" y="232" type="curve" smooth="yes"/>
	  <point x="307" y="232" type="line"/>
	  <point x="307" y="153" type="line"/>
	  <point x="487" y="153" type="line" smooth="yes"/>
	  <point x="539" y="153"/>
	  <point x="567" y="137"/>
	  <point x="581" y="104" type="curve"/>
	  <point x="578" y="104" type="line"/>
	  <point x="571" y="111"/>
	  <point x="557" y="115"/>
	  <point x="542" y="115" type="curve" smooth="yes"/>
	  <point x="486" y="115"/>
	  <point x="413" y="77"/>
	  <point x="413" y="1" type="curve" smooth="yes"/>
	  <point x="413" y="-63"/>
	  <point x="470" y="-116"/>
	  <point x="542" y="-116" type="curve" smooth="yes"/>
	</contour>
	<contour>
	  <point x="525" y="-34"/>
	  <point x="507" y="-15"/>
	  <point x="507" y="7" type="curve" smooth="yes"/>
	  <point x="507" y="31"/>
	  <point x="525" y="49"/>
	  <point x="549" y="49" type="curve" smooth="yes"/>
	  <point x="575" y="49"/>
	  <point x="591" y="31"/>
	  <point x="591" y="7" type="curve" smooth="yes"/>
	  <point x="591" y="-15"/>
	  <point x="573" y="-34"/>
	  <point x="549" y="-34" type="curve" smooth="yes"/>
	</contour>
  </outline>
</glyph>
<glyph name="U0C46" format="1">
  <advance width="0"/>
  <unicode hex="0C46"/>
  <outline>
	<contour>
	  <point x="88" y="433" type="line" smooth="yes"/>
	  <point x="184" y="433"/>
	  <point x="260" y="498"/>
	  <point x="260" y="589" type="curve" smooth="yes"/>
	  <point x="260" y="667"/>
	  <point x="207" y="728"/>
	  <point x="130" y="728" type="curve" smooth="yes"/>
	  <point x="-279" y="728" type="line"/>
	  <point x="-279" y="633" type="line"/>
	  <point x="78" y="633" type="line" smooth="yes"/>
	  <point x="125" y="633"/>
	  <point x="150" y="624"/>
	  <point x="150" y="582" type="curve" smooth="yes"/>
	  <point x="150" y="550"/>
	  <point x="114" y="529"/>
	  <point x="76" y="529" type="curve" smooth="yes"/>
	  <point x="-153" y="529" type="line"/>
	  <point x="-153" y="433" type="line"/>
	</contour>
  </outline>
</glyph>
<glyph name="U0C48" format="1">
  <advance width="822"/>
  <unicode hex="0C48"/>
  <outline>
	<contour>
	  <point x="302" y="633" type="line"/>
	  <point x="302" y="728" type="line"/>
	  <point x="62" y="728" type="line"/>
	  <point x="62" y="633" type="line"/>
	</contour>
	<contour>
	  <point x="759" y="-350" type="line"/>
	  <point x="759" y="-253" type="line"/>
	  <point x="606" y="-253" type="line"/>
	  <point x="606" y="-350" type="line"/>
	</contour>
	<component base="U0C56" xOffset="66"/>
	<component base="U0C46" xOffset="498"/>
  </outline>
</glyph>
<glyph name="U0C4D" format="1">
  <advance width="1"/>
  <unicode hex="0C4D"/>
  <outline>
	<contour>
	  <point x="147" y="433" type="line"/>
	  <point x="147" y="529" type="line"/>
	  <point x="-46" y="529" type="line" smooth="yes"/>
	  <point x="-74" y="529"/>
	  <point x="-88" y="543"/>
	  <point x="-88" y="563" type="curve" smooth="yes"/>
	  <point x="-88" y="582"/>
	  <point x="-74" y="595"/>
	  <point x="-46" y="595" type="curve" smooth="yes"/>
	  <point x="162" y="595" type="line"/>
	  <point x="162" y="697" type="line"/>
	  <point x="-67" y="697" type="line" smooth="yes"/>
	  <point x="-95" y="697"/>
	  <point x="-115" y="713"/>
	  <point x="-115" y="736" type="curve" smooth="yes"/>
	  <point x="-115" y="760"/>
	  <point x="-95" y="776"/>
	  <point x="-67" y="776" type="curve" smooth="yes"/>
	  <point x="301" y="776" type="line"/>
	  <point x="301" y="882" type="line"/>
	  <point x="-74" y="882" type="line" smooth="yes"/>
	  <point x="-179" y="882"/>
	  <point x="-238" y="825"/>
	  <point x="-238" y="749" type="curve" smooth="yes"/>
	  <point x="-238" y="696"/>
	  <point x="-198" y="654"/>
	  <point x="-158" y="634" type="curve"/>
	  <point x="-195" y="623"/>
	  <point x="-217" y="587"/>
	  <point x="-217" y="546" type="curve" smooth="yes"/>
	  <point x="-217" y="485"/>
	  <point x="-167" y="433"/>
	  <point x="-45" y="433" type="curve" smooth="yes"/>
	</contour>
  </outline>
</glyph>
<glyph name="U0C55" format="1">
  <advance width="290"/>
  <unicode hex="0C55"/>
  <outline>
	<contour>
	  <point x="118" y="729" type="line"/>
	  <point x="109" y="741"/>
	  <point x="106" y="755"/>
	  <point x="106" y="773" type="curve" smooth="yes"/>
	  <point x="106" y="808"/>
	  <point x="129" y="825"/>
	  <point x="164" y="825" type="curve" smooth="yes"/>
	  <point x="197" y="825"/>
	  <point x="213" y="802"/>
	  <point x="216" y="781" type="curve"/>
	  <point x="290" y="844" type="line"/>
	  <point x="267" y="907"/>
	  <point x="216" y="931"/>
	  <point x="162" y="931" type="curve" smooth="yes"/>
	  <point x="55" y="931"/>
	  <point x="0" y="864"/>
	  <point x="0" y="791" type="curve" smooth="yes"/>
	  <point x="0" y="759"/>
	  <point x="10" y="732"/>
	  <point x="24" y="713" type="curve"/>
	</contour>
  </outline>
</glyph>
<glyph name="U0C63" format="1">
  <advance width="185"/>
  <unicode hex="0C63"/>
  <outline>
	<contour>
	  <point x="124" y="-399"/>
	  <point x="174" y="-340"/>
	  <point x="174" y="-279" type="curve" smooth="yes"/>
	  <point x="174" y="-159"/>
	  <point x="118" y="-146"/>
	  <point x="-27" y="-146" type="curve" smooth="yes"/>
	  <point x="-126" y="-146" type="line"/>
	  <point x="-126" y="-253" type="line" smooth="yes"/>
	  <point x="-126" y="-301"/>
	  <point x="-162" y="-337"/>
	  <point x="-207" y="-337" type="curve" smooth="yes"/>
	  <point x="-249" y="-337"/>
	  <point x="-263" y="-314"/>
	  <point x="-263" y="-269" type="curve" smooth="yes"/>
	  <point x="-263" y="-259"/>
	  <point x="-259" y="-251"/>
	  <point x="-249" y="-242" type="curve" smooth="yes"/>
	  <point x="-200" y="-200"/>
	  <point x="-140" y="-218"/>
	  <point x="-140" y="-126" type="curve" smooth="yes"/>
	  <point x="-140" y="-73"/>
	  <point x="-183" y="-34"/>
	  <point x="-238" y="-34" type="curve" smooth="yes"/>
	  <point x="-267" y="-34"/>
	  <point x="-309" y="-45"/>
	  <point x="-309" y="-70" type="curve"/>
	  <point x="-319" y="-46"/>
	  <point x="-346" y="-35"/>
	  <point x="-386" y="-35" type="curve" smooth="yes"/>
	  <point x="-438" y="-35"/>
	  <point x="-490" y="-87"/>
	  <point x="-490" y="-141" type="curve" smooth="yes"/>
	  <point x="-490" y="-205"/>
	  <point x="-456" y="-234"/>
	  <point x="-378" y="-234" type="curve"/>
	  <point x="-378" y="-171" type="line"/>
	  <point x="-382" y="-172"/>
	  <point x="-389" y="-174"/>
	  <point x="-399" y="-174" type="curve" smooth="yes"/>
	  <point x="-420" y="-174"/>
	  <point x="-430" y="-161"/>
	  <point x="-430" y="-137" type="curve" smooth="yes"/>
	  <point x="-430" y="-116"/>
	  <point x="-412" y="-95"/>
	  <point x="-389" y="-95" type="curve" smooth="yes"/>
	  <point x="-376" y="-95"/>
	  <point x="-353" y="-110"/>
	  <point x="-353" y="-125" type="curve" smooth="yes"/>
	  <point x="-353" y="-158" type="line"/>
	  <point x="-291" y="-158" type="line"/>
	  <point x="-291" y="-134" type="line" smooth="yes"/>
	  <point x="-291" y="-113"/>
	  <point x="-266" y="-94"/>
	  <point x="-242" y="-94" type="curve" smooth="yes"/>
	  <point x="-218" y="-94"/>
	  <point x="-207" y="-106"/>
	  <point x="-207" y="-132" type="curve" smooth="yes"/>
	  <point x="-207" y="-154"/>
	  <point x="-221" y="-169"/>
	  <point x="-248" y="-176" type="curve" smooth="yes"/>
	  <point x="-300" y="-192"/>
	  <point x="-325" y="-221"/>
	  <point x="-325" y="-266" type="curve" smooth="yes"/>
	  <point x="-325" y="-356"/>
	  <point x="-292" y="-398"/>
	  <point x="-204" y="-398" type="curve" smooth="yes"/>
	  <point x="-111" y="-398"/>
	  <point x="-59" y="-327"/>
	  <point x="-59" y="-232" type="curve" smooth="yes"/>
	  <point x="-59" y="-203" type="line"/>
	  <point x="-17" y="-203" type="line" smooth="yes"/>
	  <point x="47" y="-203"/>
	  <point x="82" y="-198"/>
	  <point x="105" y="-228" type="curve"/>
	  <point x="74" y="-228" type="line" smooth="yes"/>
	  <point x="15" y="-228"/>
	  <point x="-22" y="-260"/>
	  <point x="-22" y="-318" type="curve" smooth="yes"/>
	  <point x="-22" y="-362"/>
	  <point x="19" y="-399"/>
	  <point x="62" y="-399" type="curve" smooth="yes"/>
	</contour>
	<contour>
	  <point x="52" y="-336"/>
	  <point x="43" y="-328"/>
	  <point x="43" y="-309" type="curve" smooth="yes"/>
	  <point x="43" y="-291"/>
	  <point x="53" y="-281"/>
	  <point x="73" y="-281" type="curve" smooth="yes"/>
	  <point x="90" y="-281"/>
	  <point x="98" y="-290"/>
	  <point x="98" y="-307" type="curve" smooth="yes"/>
	  <point x="98" y="-326"/>
	  <point x="88" y="-336"/>
	  <point x="69" y="-336" type="curve" smooth="yes"/>
	</contour>
  </outline>
</glyph>
<glyph name="U0C66" format="1">
  <advance width="584"/>
  <unicode hex="0C66"/>
  <outline>
	<contour>
	  <point x="421" y="-22"/>
	  <point x="538" y="99"/>
	  <point x="538" y="260" type="curve" smooth="yes"/>
	  <point x="538" y="412"/>
	  <point x="421" y="525"/>
	  <point x="269" y="525" type="curve" smooth="yes"/>
	  <point x="116" y="525"/>
	  <point x="0" y="412"/>
	  <point x="0" y="260" type="curve" smooth="yes"/>
	  <point x="0" y="99"/>
	  <point x="116" y="-22"/>
	  <point x="269" y="-22" type="curve" smooth="yes"/>
	</contour>
	<contour>
	  <point x="176" y="105"/>
	  <point x="108" y="172"/>
	  <point x="108" y="262" type="curve" smooth="yes"/>
	  <point x="108" y="351"/>
	  <point x="176" y="419"/>
	  <point x="269" y="419" type="curve" smooth="yes"/>
	  <point x="361" y="419"/>
	  <point x="430" y="351"/>
	  <point x="430" y="262" type="curve" smooth="yes"/>
	  <point x="430" y="172"/>
	  <point x="361" y="105"/>
	  <point x="269" y="105" type="curve" smooth="yes"/>
	</contour>
  </outline>
</glyph>
<glyph name="U0C6B" format="1">
  <advance width="620"/>
  <unicode hex="0C6B"/>
  <outline>
	<contour>
	  <point x="386" y="-14" type="line" smooth="yes"/>
	  <point x="476" y="-14"/>
	  <point x="556" y="64"/>
	  <point x="556" y="154" type="curve" smooth="yes"/>
	  <point x="556" y="223"/>
	  <point x="518" y="263"/>
	  <point x="477" y="295" type="curve" smooth="yes"/>
	  <point x="412" y="347"/>
	  <point x="403" y="371"/>
	  <point x="403" y="414" type="curve" smooth="yes"/>
	  <point x="403" y="445"/>
	  <point x="414" y="458"/>
	  <point x="431" y="458" type="curve" smooth="yes"/>
	  <point x="449" y="458"/>
	  <point x="461" y="447"/>
	  <point x="461" y="410" type="curve" smooth="yes"/>
	  <point x="461" y="374"/>
	  <point x="451" y="333"/>
	  <point x="400" y="256" type="curve" smooth="yes"/>
	  <point x="368" y="206"/>
	  <point x="332" y="167"/>
	  <point x="272" y="137" type="curve"/>
	  <point x="288" y="165"/>
	  <point x="295" y="209"/>
	  <point x="295" y="259" type="curve" smooth="yes"/>
	  <point x="295" y="400"/>
	  <point x="193" y="529"/>
	  <point x="56" y="529" type="curve" smooth="yes"/>
	  <point x="46" y="529"/>
	  <point x="38" y="528"/>
	  <point x="31" y="524" type="curve"/>
	  <point x="31" y="444" type="line"/>
	  <point x="45" y="445" type="line" smooth="yes"/>
	  <point x="144" y="445"/>
	  <point x="172" y="351"/>
	  <point x="172" y="259" type="curve" smooth="yes"/>
	  <point x="172" y="143"/>
	  <point x="134" y="59"/>
	  <point x="34" y="59" type="curve" smooth="yes"/>
	  <point x="13" y="59"/>
	  <point x="0" y="42"/>
	  <point x="0" y="21" type="curve" smooth="yes"/>
	  <point x="0" y="1"/>
	  <point x="21" y="-11"/>
	  <point x="45" y="-11" type="curve" smooth="yes"/>
	  <point x="192" y="-11"/>
	  <point x="328" y="55"/>
	  <point x="420" y="153" type="curve" smooth="yes"/>
	  <point x="519" y="258"/>
	  <point x="564" y="340"/>
	  <point x="564" y="405" type="curve" smooth="yes"/>
	  <point x="564" y="475"/>
	  <point x="505" y="536"/>
	  <point x="434" y="536" type="curve" smooth="yes"/>
	  <point x="367" y="536"/>
	  <point x="304" y="480"/>
	  <point x="304" y="414" type="curve" smooth="yes"/>
	  <point x="304" y="342"/>
	  <point x="329" y="312"/>
	  <point x="417" y="242" type="curve" smooth="yes"/>
	  <point x="451" y="216"/>
	  <point x="459" y="185"/>
	  <point x="459" y="150" type="curve" smooth="yes"/>
	  <point x="459" y="106"/>
	  <point x="426" y="56"/>
	  <point x="378" y="63" type="curve"/>
	  <point x="378" y="-14" type="line"/>
	</contour>
  </outline>
</glyph>
<glyph name="U0C6C" format="1">
  <advance width="620"/>
  <unicode hex="0C6C"/>
  <outline>
	<contour>
	  <point x="564" y="-17" type="line"/>
	  <point x="564" y="99" type="line"/>
	  <point x="154" y="99" type="line" smooth="yes"/>
	  <point x="126" y="99"/>
	  <point x="97" y="119"/>
	  <point x="97" y="147" type="curve" smooth="yes"/>
	  <point x="97" y="179"/>
	  <point x="122" y="207"/>
	  <point x="154" y="207" type="curve" smooth="yes"/>
	  <point x="316" y="207" type="line"/>
	  <point x="316" y="304" type="line"/>
	  <point x="154" y="304" type="line" smooth="yes"/>
	  <point x="120" y="304"/>
	  <point x="97" y="332"/>
	  <point x="97" y="365" type="curve" smooth="yes"/>
	  <point x="97" y="398"/>
	  <point x="120" y="424"/>
	  <point x="154" y="424" type="curve" smooth="yes"/>
	  <point x="256" y="424" type="line"/>
	  <point x="256" y="519" type="line"/>
	  <point x="154" y="519" type="line" smooth="yes"/>
	  <point x="69" y="519"/>
	  <point x="0" y="451"/>
	  <point x="0" y="365" type="curve" smooth="yes"/>
	  <point x="0" y="321"/>
	  <point x="18" y="281"/>
	  <point x="55" y="256" type="curve"/>
	  <point x="55" y="253" type="line"/>
	  <point x="17" y="235"/>
	  <point x="0" y="196"/>
	  <point x="0" y="147" type="curve" smooth="yes"/>
	  <point x="0" y="60"/>
	  <point x="69" y="-17"/>
	  <point x="154" y="-17" type="curve" smooth="yes"/>
	</contour>
  </outline>
</glyph>
<glyph name="U0C6D" format="1">
  <advance width="528"/>
  <unicode hex="0C6D"/>
  <outline>
	<contour>
	  <point x="374" y="-20"/>
	  <point x="477" y="37"/>
	  <point x="477" y="165" type="curve"/>
	  <point x="375" y="165" type="line"/>
	  <point x="375" y="123"/>
	  <point x="329" y="102"/>
	  <point x="235" y="102" type="curve" smooth="yes"/>
	  <point x="147" y="102"/>
	  <point x="102" y="120"/>
	  <point x="102" y="155" type="curve" smooth="yes"/>
	  <point x="102" y="204"/>
	  <point x="171" y="206"/>
	  <point x="238" y="206" type="curve" smooth="yes"/>
	  <point x="381" y="206"/>
	  <point x="477" y="232"/>
	  <point x="477" y="358" type="curve" smooth="yes"/>
	  <point x="477" y="473"/>
	  <point x="365" y="522"/>
	  <point x="238" y="522" type="curve" smooth="yes"/>
	  <point x="110" y="522"/>
	  <point x="0" y="469"/>
	  <point x="0" y="349" type="curve"/>
	  <point x="102" y="349" type="line"/>
	  <point x="102" y="406"/>
	  <point x="175" y="421"/>
	  <point x="238" y="421" type="curve" smooth="yes"/>
	  <point x="329" y="421"/>
	  <point x="375" y="400"/>
	  <point x="375" y="358" type="curve" smooth="yes"/>
	  <point x="375" y="309"/>
	  <point x="305" y="307"/>
	  <point x="238" y="307" type="curve" smooth="yes"/>
	  <point x="97" y="307"/>
	  <point x="0" y="279"/>
	  <point x="0" y="155" type="curve" smooth="yes"/>
	  <point x="0" y="31"/>
	  <point x="103" y="-20"/>
	  <point x="238" y="-20" type="curve" smooth="yes"/>
	</contour>
  </outline>
</glyph>
<glyph name="U0C78" format="1">
  <advance width="531"/>
  <unicode hex="0C78"/>
  <outline>
	<contour>
	  <point x="392" y="221"/>
	  <point x="491" y="322"/>
	  <point x="491" y="456" type="curve" smooth="yes"/>
	  <point x="491" y="588"/>
	  <point x="392" y="682"/>
	  <point x="260" y="682" type="curve" smooth="yes"/>
	  <point x="130" y="682"/>
	  <point x="29" y="586"/>
	  <point x="29" y="456" type="curve" smooth="yes"/>
	  <point x="29" y="322"/>
	  <point x="129" y="221"/>
	  <point x="260" y="221" type="curve" smooth="yes"/>
	</contour>
	<contour>
	  <point x="399" y="25"/>
	  <point x="507" y="90"/>
	  <point x="507" y="168" type="curve" smooth="yes"/>
	  <point x="507" y="225"/>
	  <point x="452" y="259"/>
	  <point x="393" y="284" type="curve"/>
	  <point x="234" y="230" type="line"/>
	  <point x="315" y="221"/>
	  <point x="402" y="204"/>
	  <point x="402" y="168" type="curve" smooth="yes"/>
	  <point x="402" y="122"/>
	  <point x="217" y="42"/>
	  <point x="164" y="27" type="curve"/>
	  <point x="220" y="-43" type="line"/>
	</contour>
	<contour>
	  <point x="188" y="335"/>
	  <point x="134" y="383"/>
	  <point x="134" y="456" type="curve" smooth="yes"/>
	  <point x="134" y="530"/>
	  <point x="187" y="589"/>
	  <point x="260" y="589" type="curve" smooth="yes"/>
	  <point x="335" y="589"/>
	  <point x="388" y="532"/>
	  <point x="388" y="456" type="curve" smooth="yes"/>
	  <point x="388" y="381"/>
	  <point x="335" y="335"/>
	  <point x="260" y="335" type="curve" smooth="yes"/>
	</contour>
  </outline>
</glyph>
<glyph name="U0C7E" format="1">
  <advance width="893"/>
  <unicode hex="0C7E"/>
  <outline>
	<contour>
	  <point x="883" y="-6" type="line"/>
	  <point x="883" y="108" type="line"/>
	  <point x="340" y="108" type="line" smooth="yes"/>
	  <point x="262" y="108"/>
	  <point x="223" y="116"/>
	  <point x="223" y="125" type="curve" smooth="yes"/>
	  <point x="223" y="132"/>
	  <point x="228" y="136"/>
	  <point x="321" y="146" type="curve" smooth="yes"/>
	  <point x="440" y="158"/>
	  <point x="482" y="192"/>
	  <point x="482" y="266" type="curve" smooth="yes"/>
	  <point x="482" y="354"/>
	  <point x="393" y="357"/>
	  <point x="294" y="365" type="curve" smooth="yes"/>
	  <point x="202" y="374"/>
	  <point x="196" y="375"/>
	  <point x="196" y="384" type="curve" smooth="yes"/>
	  <point x="196" y="391"/>
	  <point x="202" y="395"/>
	  <point x="308" y="403" type="curve" smooth="yes"/>
	  <point x="386" y="410"/>
	  <point x="455" y="428"/>
	  <point x="455" y="521" type="curve" smooth="yes"/>
	  <point x="455" y="587"/>
	  <point x="398" y="623"/>
	  <point x="298" y="623" type="curve" smooth="yes"/>
	  <point x="97" y="623" type="line"/>
	  <point x="97" y="531" type="line"/>
	  <point x="274" y="531" type="line" smooth="yes"/>
	  <point x="325" y="531"/>
	  <point x="350" y="528"/>
	  <point x="350" y="512" type="curve" smooth="yes"/>
	  <point x="350" y="501"/>
	  <point x="335" y="496"/>
	  <point x="272" y="489" type="curve" smooth="yes"/>
	  <point x="175" y="479"/>
	  <point x="91" y="472"/>
	  <point x="91" y="381" type="curve" smooth="yes"/>
	  <point x="91" y="286"/>
	  <point x="193" y="281"/>
	  <point x="274" y="276" type="curve" smooth="yes"/>
	  <point x="363" y="270"/>
	  <point x="377" y="266"/>
	  <point x="377" y="253" type="curve" smooth="yes"/>
	  <point x="377" y="244"/>
	  <point x="367" y="241"/>
	  <point x="286" y="232" type="curve" smooth="yes"/>
	  <point x="183" y="221"/>
	  <point x="116" y="203"/>
	  <point x="116" y="112" type="curve" smooth="yes"/>
	  <point x="116" y="18"/>
	  <point x="213" y="-6"/>
	  <point x="307" y="-6" type="curve" smooth="yes"/>
	</contour>
  </outline>
</glyph>
<glyph name="daggerdbl" format="1">
  <advance width="732"/>
  <unicode hex="2021"/>
  <outline>
	<contour>
	  <point x="254" y="660" type="line"/>
	  <point x="254" y="-210" type="line"/>
	  <point x="477" y="-210" type="line"/>
	  <point x="477" y="660" type="line"/>
	</contour>
	<contour>
	  <point x="33" y="133" type="line"/>
	  <point x="33" y="-38" type="line"/>
	  <point x="700" y="-38" type="line"/>
	  <point x="700" y="133" type="line"/>
	</contour>
	<contour>
	  <point x="33" y="445" type="line"/>
	  <point x="33" y="274" type="line"/>
	  <point x="700" y="274" type="line"/>
	  <point x="700" y="445" type="line"/>
	</contour>
  </outline>
</glyph>
<glyph name="zerosuperior" format="1">
  <advance width="446"/>
  <unicode hex="2070"/>
  <outline>
	<contour>
	  <point x="101" y="740"/>
	  <point x="30" y="669"/>
	  <point x="30" y="546" type="curve" smooth="yes"/>
	  <point x="30" y="423"/>
	  <point x="101" y="352"/>
	  <point x="223" y="352" type="curve" smooth="yes"/>
	  <point x="345" y="352"/>
	  <point x="416" y="423"/>
	  <point x="416" y="546" type="curve" smooth="yes"/>
	  <point x="416" y="669"/>
	  <point x="345" y="740"/>
	  <point x="223" y="740" type="curve" smooth="yes"/>
	</contour>
	<contour>
	  <point x="247" y="637"/>
	  <point x="255" y="616"/>
	  <point x="255" y="546" type="curve" smooth="yes"/>
	  <point x="255" y="476"/>
	  <point x="247" y="455"/>
	  <point x="223" y="455" type="curve" smooth="yes"/>
	  <point x="199" y="455"/>
	  <point x="191" y="476"/>
	  <point x="191" y="546" type="curve" smooth="yes"/>
	  <point x="191" y="616"/>
	  <point x="199" y="637"/>
	  <point x="223" y="637" type="curve" smooth="yes"/>
	</contour>
  </outline>
</glyph>
<glyph name="foursuperior" format="1">
  <advance width="411"/>
  <unicode hex="2074"/>
  <outline>
	<contour>
	  <point x="187" y="730" type="line"/>
	  <point x="17" y="492" type="line"/>
	  <point x="111" y="492" type="line"/>
	  <point x="142" y="537" type="line"/>
	  <point x="165" y="574" type="line"/>
	  <point x="244" y="730" type="line"/>
	</contour>
	<contour>
	  <point x="82" y="524" type="line"/>
	  <point x="17" y="492" type="line"/>
	  <point x="17" y="425" type="line"/>
	  <point x="393" y="425" type="line"/>
	  <point x="393" y="524" type="line"/>
	</contour>
	<contour>
	  <point x="334" y="469" type="line"/>
	  <point x="334" y="730" type="line"/>
	  <point x="207" y="730" type="line"/>
	  <point x="171" y="463" type="line"/>
	  <point x="171" y="356" type="line"/>
	  <point x="334" y="356" type="line"/>
	</contour>
  </outline>
</glyph>
<glyph name="uni20BA" format="1">
  <advance width="749"/>
  <unicode hex="20BA"/>
  <outline>
	<contour>
	  <point x="499" y="327" type="line"/>
	  <point x="499" y="216"/>
	  <point x="455" y="170"/>
	  <point x="388" y="170" type="curve" smooth="yes"/>
	  <point x="222" y="170" type="line"/>
	  <point x="222" y="0" type="line"/>
	  <point x="413" y="0" type="line" smooth="yes"/>
	  <point x="617" y="0"/>
	  <point x="722" y="130"/>
	  <point x="722" y="327" type="curve"/>
	</contour>
	<contour>
	  <point x="109" y="660" type="line"/>
	  <point x="109" y="0" type="line"/>
	  <point x="342" y="0" type="line"/>
	  <point x="342" y="660" type="line"/>
	</contour>
	<contour>
	  <point x="21" y="302" type="line"/>
	  <point x="21" y="237" type="line"/>
	  <point x="493" y="367" type="line"/>
	  <point x="493" y="432" type="line"/>
	</contour>
	<contour>
	  <point x="21" y="437" type="line"/>
	  <point x="21" y="372" type="line"/>
	  <point x="493" y="502" type="line"/>
	  <point x="493" y="566" type="line"/>
	</contour>
  </outline>
</glyph>
<glyph name="uni20BD" format="1">
  <advance width="755"/>
  <unicode hex="20BD"/>
  <outline>
	<contour>
	  <point x="266" y="660" type="line"/>
	  <point x="266" y="494" type="line"/>
	  <point x="410" y="494" type="line" smooth="yes"/>
	  <point x="467" y="494"/>
	  <point x="492" y="475"/>
	  <point x="492" y="432" type="curve" smooth="yes"/>
	  <point x="492" y="389"/>
	  <point x="467" y="370"/>
	  <point x="410" y="370" type="curve" smooth="yes"/>
	  <point x="16" y="370" type="line"/>
	  <point x="16" y="277" type="line"/>
	  <point x="448" y="277" type="line" smooth="yes"/>
	  <point x="633" y="277"/>
	  <point x="725" y="332"/>
	  <point x="725" y="468" type="curve" smooth="yes"/>
	  <point x="725" y="583"/>
	  <point x="633" y="660"/>
	  <point x="448" y="660" type="curve" smooth="yes"/>
	</contour>
	<contour>
	  <point x="99" y="660" type="line"/>
	  <point x="99" y="0" type="line"/>
	  <point x="332" y="0" type="line"/>
	  <point x="332" y="660" type="line"/>
	</contour>
	<contour>
	  <point x="545" y="217" type="line" smooth="yes"/>
	  <point x="16" y="217" type="line"/>
	  <point x="16" y="129" type="line"/>
	  <point x="545" y="129" type="line"/>
	</contour>
  </outline>
</glyph>
<glyph name="uni2113" format="1">
  <advance width="481"/>
  <unicode hex="2113"/>
  <outline>
	<contour>
	  <point x="355" y="-10"/>
	  <point x="392" y="-4"/>
	  <point x="430" y="10" type="curve"/>
	  <point x="437" y="142" type="line"/>
	  <point x="421" y="134"/>
	  <point x="399" y="130"/>
	  <point x="354" y="130" type="curve" smooth="yes"/>
	  <point x="306" y="130"/>
	  <point x="300" y="148"/>
	  <point x="300" y="188" type="curve" smooth="yes"/>
	  <point x="300" y="503" type="line" smooth="yes"/>
	  <point x="300" y="547"/>
	  <point x="309" y="569"/>
	  <point x="332" y="569" type="curve" smooth="yes"/>
	  <point x="353" y="569"/>
	  <point x="361" y="552"/>
	  <point x="361" y="517" type="curve" smooth="yes"/>
	  <point x="361" y="365"/>
	  <point x="262" y="258"/>
	  <point x="30" y="258" type="curve"/>
	  <point x="30" y="164" type="line"/>
	  <point x="256" y="164"/>
	  <point x="447" y="306"/>
	  <point x="447" y="510" type="curve" smooth="yes"/>
	  <point x="447" y="581"/>
	  <point x="428" y="670"/>
	  <point x="278" y="670" type="curve" smooth="yes"/>
	  <point x="134" y="670"/>
	  <point x="90" y="590"/>
	  <point x="90" y="475" type="curve" smooth="yes"/>
	  <point x="90" y="164" type="line" smooth="yes"/>
	  <point x="90" y="40"/>
	  <point x="149" y="-10"/>
	  <point x="296" y="-10" type="curve" smooth="yes"/>
	</contour>
  </outline>
</glyph>
<glyph name="estimated" format="1">
  <advance width="755"/>
  <unicode hex="212E"/>
  <outline>
	<contour>
	  <point x="172" y="670"/>
	  <point x="38" y="536"/>
	  <point x="38" y="330" type="curve" smooth="yes"/>
	  <point x="38" y="124"/>
	  <point x="172" y="-10"/>
	  <point x="398" y="-10" type="curve" smooth="yes"/>
	  <point x="524" y="-10"/>
	  <point x="635" y="35"/>
	  <point x="685" y="131" type="curve"/>
	  <point x="685" y="234" type="line"/>
	  <point x="614" y="108"/>
	  <point x="515" y="65"/>
	  <point x="397" y="65" type="curve" smooth="yes"/>
	  <point x="310" y="65"/>
	  <point x="236" y="92"/>
	  <point x="191" y="145" type="curve"/>
	  <point x="191" y="294" type="line"/>
	  <point x="710" y="294" type="line"/>
	  <point x="716" y="542"/>
	  <point x="590" y="670"/>
	  <point x="378" y="670" type="curve" smooth="yes"/>
	</contour>
	<contour>
	  <point x="472" y="595"/>
	  <point x="528" y="568"/>
	  <point x="565" y="523" type="curve"/>
	  <point x="565" y="369" type="line"/>
	  <point x="191" y="369" type="line"/>
	  <point x="191" y="515" type="line"/>
	  <point x="228" y="565"/>
	  <point x="284" y="595"/>
	  <point x="379" y="595" type="curve" smooth="yes"/>
	</contour>
  </outline>
</glyph>
<glyph name="onethird" format="1">
  <advance width="983"/>
  <unicode hex="2153"/>
  <outline>
	<contour>
	  <point x="29" y="477" type="line"/>
	  <point x="105" y="490"/>
	  <point x="203" y="558"/>
	  <point x="228" y="613" type="curve"/>
	  <point x="150" y="660" type="line"/>
	  <point x="129" y="635"/>
	  <point x="78" y="611"/>
	  <point x="29" y="603" type="curve"/>
	</contour>
	<contour>
	  <point x="150" y="660" type="line"/>
	  <point x="123" y="577" type="line"/>
	  <point x="123" y="286" type="line"/>
	  <point x="302" y="286" type="line"/>
	  <point x="302" y="577" type="line"/>
	  <point x="302" y="660" type="line"/>
	</contour>
	<contour>
	  <point x="864" y="187" type="line"/>
	  <point x="890" y="187"/>
	  <point x="945" y="207"/>
	  <point x="945" y="267" type="curve" smooth="yes"/>
	  <point x="945" y="341"/>
	  <point x="881" y="379"/>
	  <point x="774" y="379" type="curve" smooth="yes"/>
	  <point x="676" y="379"/>
	  <point x="599" y="354"/>
	  <point x="588" y="266" type="curve"/>
	  <point x="723" y="224" type="line"/>
	  <point x="722" y="260"/>
	  <point x="739" y="266"/>
	  <point x="761" y="266" type="curve" smooth="yes"/>
	  <point x="776" y="266"/>
	  <point x="788" y="259"/>
	  <point x="788" y="248" type="curve" smooth="yes"/>
	  <point x="788" y="233"/>
	  <point x="779" y="226"/>
	  <point x="754" y="226" type="curve" smooth="yes"/>
	  <point x="745" y="226" type="line"/>
	  <point x="745" y="139" type="line"/>
	  <point x="763" y="138" type="line" smooth="yes"/>
	  <point x="788" y="137"/>
	  <point x="796" y="133"/>
	  <point x="796" y="120" type="curve" smooth="yes"/>
	  <point x="796" y="108"/>
	  <point x="782" y="103"/>
	  <point x="764" y="103" type="curve" smooth="yes"/>
	  <point x="743" y="103"/>
	  <point x="721" y="107"/>
	  <point x="723" y="142" type="curve"/>
	  <point x="582" y="86" type="line"/>
	  <point x="604" y="15"/>
	  <point x="665" y="-9"/>
	  <point x="771" y="-9" type="curve" smooth="yes"/>
	  <point x="873" y="-9"/>
	  <point x="953" y="32"/>
	  <point x="953" y="102" type="curve" smooth="yes"/>
	  <point x="953" y="165"/>
	  <point x="904" y="185"/>
	  <point x="864" y="185" type="curve"/>
	</contour>
	<component base="fraction" xOffset="165"/>
  </outline>
</glyph>
<glyph name="arrowdown" format="1">
  <advance width="508"/>
  <unicode hex="2193"/>
  <outline>
	<contour>
	  <point x="295" y="79"/>
	  <point x="368" y="171"/>
	  <point x="465" y="242" type="curve"/>
	  <point x="399" y="242"/>
	  <point x="321" y="208"/>
	  <point x="283" y="176" type="curve"/>
	  <point x="283" y="797" type="line"/>
	  <point x="223" y="797" type="line"/>
	  <point x="223" y="174" type="line"/>
	  <point x="173" y="209"/>
	  <point x="115" y="242"/>
	  <point x="41" y="242" type="curve"/>
	  <point x="136" y="171"/>
	  <point x="209" y="78"/>
	  <point x="252" y="-42" type="curve"/>
	</contour>
  </outline>
</glyph>
<glyph name="partialdiff" format="1">
  <advance width="628"/>
  <unicode hex="2202"/>
  <outline>
	<contour>
	  <point x="173" y="670"/>
	  <point x="109" y="643"/>
	  <point x="26" y="576" type="curve"/>
	  <point x="118" y="437" type="line"/>
	  <point x="162" y="477"/>
	  <point x="206" y="487"/>
	  <point x="257" y="487" type="curve" smooth="yes"/>
	  <point x="324" y="487"/>
	  <point x="390" y="451"/>
	  <point x="390" y="297" type="curve" smooth="yes"/>
	  <point x="390" y="183"/>
	  <point x="354" y="160"/>
	  <point x="318" y="160" type="curve" smooth="yes"/>
	  <point x="282" y="160"/>
	  <point x="264" y="179"/>
	  <point x="264" y="208" type="curve" smooth="yes"/>
	  <point x="264" y="239"/>
	  <point x="285" y="257"/>
	  <point x="322" y="257" type="curve" smooth="yes"/>
	  <point x="369" y="257"/>
	  <point x="385" y="211"/>
	  <point x="385" y="191" type="curve"/>
	  <point x="451" y="224" type="line"/>
	  <point x="448" y="334"/>
	  <point x="394" y="410"/>
	  <point x="262" y="410" type="curve" smooth="yes"/>
	  <point x="141" y="410"/>
	  <point x="27" y="340"/>
	  <point x="27" y="201" type="curve" smooth="yes"/>
	  <point x="27" y="52"/>
	  <point x="152" y="-10"/>
	  <point x="270" y="-10" type="curve" smooth="yes"/>
	  <point x="480" y="-10"/>
	  <point x="611" y="114"/>
	  <point x="611" y="349" type="curve" smooth="yes"/>
	  <point x="611" y="549"/>
	  <point x="484" y="670"/>
	  <point x="296" y="670" type="curve" smooth="yes"/>
	</contour>
  </outline>
</glyph>
<glyph name="uni2206" format="1">
  <advance width="756"/>
  <unicode hex="2206"/>
  <outline>
	<contour>
	  <point x="716" y="0" type="line"/>
	  <point x="716" y="165" type="line"/>
	  <point x="40" y="165" type="line"/>
	  <point x="40" y="0" type="line"/>
	</contour>
	<contour>
	  <point x="716" y="165" type="line"/>
	  <point x="492" y="660" type="line"/>
	  <point x="311" y="660" type="line"/>
	  <point x="557" y="63" type="line"/>
	</contour>
	<contour>
	  <point x="445" y="660" type="line"/>
	  <point x="264" y="660" type="line"/>
	  <point x="40" y="165" type="line"/>
	  <point x="199" y="63" type="line"/>
	</contour>
  </outline>
</glyph>
<glyph name="minus" format="1">
  <advance width="697"/>
  <unicode hex="2212"/>
  <outline>
	<contour>
	  <point x="48" y="428" type="line"/>
	  <point x="48" y="233" type="line"/>
	  <point x="649" y="233" type="line"/>
	  <point x="649" y="428" type="line"/>
	</contour>
  </outline>
</glyph>
<glyph name="greaterequal" format="1">
  <advance width="700"/>
  <unicode hex="2265"/>
  <outline>
	<contour>
	  <point x="71" y="461" type="line"/>
	  <point x="642" y="412" type="line"/>
	  <point x="642" y="558" type="line"/>
	  <point x="71" y="669" type="line"/>
	</contour>
	<contour>
	  <point x="71" y="165" type="line"/>
	  <point x="71" y="0" type="line"/>
	  <point x="642" y="0" type="line"/>
	  <point x="642" y="165" type="line"/>
	</contour>
	<contour>
	  <point x="71" y="182" type="line"/>
	  <point x="642" y="293" type="line"/>
	  <point x="642" y="439" type="line"/>
	  <point x="71" y="390" type="line"/>
	</contour>
  </outline>
</glyph>
<glyph name="U25CC" format="1">
  <advance width="986"/>
  <unicode hex="25CC"/>
  <outline>
	<contour>
	  <point x="699" y="554"/>
	  <point x="720" y="575"/>
	  <point x="720" y="603" type="curve" smooth="yes"/>
	  <point x="720" y="633"/>
	  <point x="699" y="654"/>
	  <point x="669" y="654" type="curve" smooth="yes"/>
	  <point x="640" y="654"/>
	  <point x="617" y="633"/>
	  <point x="617" y="603" type="curve" smooth="yes"/>
	  <point x="617" y="575"/>
	  <point x="640" y="554"/>
	  <point x="669" y="554" type="curve" smooth="yes"/>
	</contour>
	<contour>
	  <point x="337" y="-71"/>
	  <point x="360" y="-49"/>
	  <point x="360" y="-20" type="curve" smooth="yes"/>
	  <point x="360" y="8"/>
	  <point x="337" y="29"/>
	  <point x="308" y="29" type="curve" smooth="yes"/>
	  <point x="279" y="29"/>
	  <point x="258" y="8"/>
	  <point x="258" y="-20" type="curve" smooth="yes"/>
	  <point x="258" y="-49"/>
	  <point x="279" y="-71"/>
	  <point x="308" y="-71" type="curve" smooth="yes"/>
	</contour>
	<contour>
	  <point x="207" y="62"/>
	  <point x="228" y="83"/>
	  <point x="228" y="111" type="curve" smooth="yes"/>
	  <point x="228" y="140"/>
	  <point x="207" y="161"/>
	  <point x="178" y="161" type="curve" smooth="yes"/>
	  <point x="148" y="161"/>
	  <point x="126" y="140"/>
	  <point x="126" y="111" type="curve" smooth="yes"/>
	  <point x="126" y="83"/>
	  <point x="148" y="62"/>
	  <point x="178" y="62" type="curve" smooth="yes"/>
	</contour>
	<contour>
	  <point x="158" y="241"/>
	  <point x="179" y="262"/>
	  <point x="179" y="291" type="curve" smooth="yes"/>
	  <point x="179" y="319"/>
	  <point x="158" y="340"/>
	  <point x="129" y="340" type="curve" smooth="yes"/>
	  <point x="99" y="340"/>
	  <point x="77" y="319"/>
	  <point x="77" y="291" type="curve" smooth="yes"/>
	  <point x="77" y="262"/>
	  <point x="99" y="241"/>
	  <point x="129" y="241" type="curve" smooth="yes"/>
	</contour>
	<contour>
	  <point x="518" y="-119"/>
	  <point x="540" y="-98"/>
	  <point x="540" y="-70" type="curve" smooth="yes"/>
	  <point x="540" y="-41"/>
	  <point x="518" y="-20"/>
	  <point x="489" y="-20" type="curve" smooth="yes"/>
	  <point x="459" y="-20"/>
	  <point x="437" y="-41"/>
	  <point x="437" y="-70" type="curve" smooth="yes"/>
	  <point x="437" y="-98"/>
	  <point x="459" y="-119"/>
	  <point x="489" y="-119" type="curve" smooth="yes"/>
	</contour>
	<contour>
	  <point x="699" y="-71"/>
	  <point x="720" y="-49"/>
	  <point x="720" y="-20" type="curve" smooth="yes"/>
	  <point x="720" y="8"/>
	  <point x="699" y="29"/>
	  <point x="669" y="29" type="curve" smooth="yes"/>
	  <point x="640" y="29"/>
	  <point x="617" y="8"/>
	  <point x="617" y="-20" type="curve" smooth="yes"/>
	  <point x="617" y="-49"/>
	  <point x="640" y="-71"/>
	  <point x="669" y="-71" type="curve" smooth="yes"/>
	</contour>
	<contour>
	  <point x="207" y="421"/>
	  <point x="228" y="442"/>
	  <point x="228" y="472" type="curve" smooth="yes"/>
	  <point x="228" y="500"/>
	  <point x="207" y="521"/>
	  <point x="178" y="521" type="curve" smooth="yes"/>
	  <point x="148" y="521"/>
	  <point x="126" y="500"/>
	  <point x="126" y="472" type="curve" smooth="yes"/>
	  <point x="126" y="442"/>
	  <point x="148" y="421"/>
	  <point x="178" y="421" type="curve" smooth="yes"/>
	</contour>
	<contour>
	  <point x="830" y="62"/>
	  <point x="853" y="83"/>
	  <point x="853" y="111" type="curve" smooth="yes"/>
	  <point x="853" y="140"/>
	  <point x="830" y="161"/>
	  <point x="801" y="161" type="curve" smooth="yes"/>
	  <point x="771" y="161"/>
	  <point x="750" y="140"/>
	  <point x="750" y="111" type="curve" smooth="yes"/>
	  <point x="750" y="83"/>
	  <point x="771" y="62"/>
	  <point x="801" y="62" type="curve" smooth="yes"/>
	</contour>
	<contour>
	  <point x="337" y="554"/>
	  <point x="360" y="575"/>
	  <point x="360" y="603" type="curve" smooth="yes"/>
	  <point x="360" y="633"/>
	  <point x="337" y="654"/>
	  <point x="308" y="654" type="curve" smooth="yes"/>
	  <point x="279" y="654"/>
	  <point x="258" y="633"/>
	  <point x="258" y="603" type="curve" smooth="yes"/>
	  <point x="258" y="575"/>
	  <point x="279" y="554"/>
	  <point x="308" y="554" type="curve" smooth="yes"/>
	</contour>
	<contour>
	  <point x="878" y="241"/>
	  <point x="900" y="262"/>
	  <point x="900" y="291" type="curve" smooth="yes"/>
	  <point x="900" y="319"/>
	  <point x="878" y="340"/>
	  <point x="848" y="340" type="curve" smooth="yes"/>
	  <point x="819" y="340"/>
	  <point x="798" y="319"/>
	  <point x="798" y="291" type="curve" smooth="yes"/>
	  <point x="798" y="262"/>
	  <point x="819" y="241"/>
	  <point x="848" y="241" type="curve" smooth="yes"/>
	</contour>
	<contour>
	  <point x="518" y="602"/>
	  <point x="540" y="623"/>
	  <point x="540" y="651" type="curve" smooth="yes"/>
	  <point x="540" y="680"/>
	  <point x="518" y="701"/>
	  <point x="489" y="701" type="curve" smooth="yes"/>
	  <point x="459" y="701"/>
	  <point x="437" y="680"/>
	  <point x="437" y="651" type="curve" smooth="yes"/>
	  <point x="437" y="623"/>
	  <point x="459" y="602"/>
	  <point x="489" y="602" type="curve" smooth="yes"/>
	</contour>
	<contour>
	  <point x="830" y="421"/>
	  <point x="853" y="442"/>
	  <point x="853" y="472" type="curve" smooth="yes"/>
	  <point x="853" y="500"/>
	  <point x="830" y="521"/>
	  <point x="801" y="521" type="curve" smooth="yes"/>
	  <point x="771" y="521"/>
	  <point x="750" y="500"/>
	  <point x="750" y="472" type="curve" smooth="yes"/>
	  <point x="750" y="442"/>
	  <point x="771" y="421"/>
	  <point x="801" y="421" type="curve" smooth="yes"/>
	</contour>
  </outline>
</glyph>
<glyph name="U0C12.part" format="1">
  <advance width="654"/>
  <outline>
	<contour>
	  <point x="246" y="-7"/>
	  <point x="300" y="15"/>
	  <point x="326" y="69" type="curve"/>
	  <point x="343" y="15"/>
	  <point x="391" y="-7"/>
	  <point x="462" y="-7" type="curve" smooth="yes"/>
	  <point x="538" y="-7"/>
	  <point x="626" y="53"/>
	  <point x="626" y="168" type="curve"/>
	  <point x="524" y="168" type="line"/>
	  <point x="524" y="113"/>
	  <point x="491" y="94"/>
	  <point x="455" y="94" type="curve" smooth="yes"/>
	  <point x="412" y="94"/>
	  <point x="391" y="126"/>
	  <point x="391" y="160" type="curve" smooth="yes"/>
	  <point x="391" y="203" type="line"/>
	  <point x="283" y="203" type="line"/>
	  <point x="283" y="167" type="line" smooth="yes"/>
	  <point x="283" y="125"/>
	  <point x="251" y="94"/>
	  <point x="207" y="94" type="curve" smooth="yes"/>
	  <point x="167" y="94"/>
	  <point x="139" y="120"/>
	  <point x="139" y="158" type="curve" smooth="yes"/>
	  <point x="139" y="197"/>
	  <point x="165" y="225"/>
	  <point x="210" y="242" type="curve" smooth="yes"/>
	  <point x="298" y="274"/>
	  <point x="342" y="312"/>
	  <point x="342" y="389" type="curve" smooth="yes"/>
	  <point x="342" y="486"/>
	  <point x="266" y="538"/>
	  <point x="187" y="537" type="curve" smooth="yes"/>
	  <point x="105" y="536"/>
	  <point x="21" y="481"/>
	  <point x="21" y="365" type="curve"/>
	  <point x="141" y="365" type="line"/>
	  <point x="141" y="388" type="line" smooth="yes"/>
	  <point x="141" y="412"/>
	  <point x="154" y="435"/>
	  <point x="188" y="435" type="curve" smooth="yes"/>
	  <point x="214" y="435"/>
	  <point x="234" y="416"/>
	  <point x="234" y="391" type="curve" smooth="yes"/>
	  <point x="234" y="356"/>
	  <point x="221" y="346"/>
	  <point x="146" y="318" type="curve" smooth="yes"/>
	  <point x="64" y="287"/>
	  <point x="24" y="242"/>
	  <point x="24" y="148" type="curve" smooth="yes"/>
	  <point x="24" y="57"/>
	  <point x="99" y="-7"/>
	  <point x="193" y="-7" type="curve" smooth="yes"/>
	</contour>
  </outline>
</glyph>
<glyph name="U0C15.haln" format="1">
  <advance width="574"/>
  <outline>
	<contour>
	  <point x="392" y="-7"/>
	  <point x="533" y="90"/>
	  <point x="533" y="207" type="curve" smooth="yes"/>
	  <point x="533" y="282"/>
	  <point x="474" y="330"/>
	  <point x="399" y="330" type="curve" smooth="yes"/>
	  <point x="351" y="330"/>
	  <point x="304" y="307"/>
	  <point x="262" y="307" type="curve" smooth="yes"/>
	  <point x="197" y="307"/>
	  <point x="165" y="322"/>
	  <point x="165" y="353" type="curve" smooth="yes"/>
	  <point x="165" y="400"/>
	  <point x="202" y="424"/>
	  <point x="273" y="424" type="curve" smooth="yes"/>
	  <point x="331" y="424"/>
	  <point x="374" y="405"/>
	  <point x="391" y="368" type="curve"/>
	  <point x="503" y="368" type="line"/>
	  <point x="503" y="426"/>
	  <point x="475" y="468"/>
	  <point x="419" y="491" type="curve"/>
	  <point x="419" y="533" type="line"/>
	  <point x="178" y="533" type="line" smooth="yes"/>
	  <point x="162" y="533"/>
	  <point x="155" y="539"/>
	  <point x="155" y="550" type="curve" smooth="yes"/>
	  <point x="155" y="567"/>
	  <point x="164" y="575"/>
	  <point x="179" y="575" type="curve" smooth="yes"/>
	  <point x="419" y="575" type="line"/>
	  <point x="419" y="675" type="line"/>
	  <point x="176" y="675" type="line" smooth="yes"/>
	  <point x="161" y="675"/>
	  <point x="154" y="680"/>
	  <point x="154" y="692" type="curve" smooth="yes"/>
	  <point x="154" y="707"/>
	  <point x="162" y="714"/>
	  <point x="178" y="714" type="curve" smooth="yes"/>
	  <point x="546" y="714" type="line"/>
	  <point x="546" y="819" type="line"/>
	  <point x="150" y="819" type="line" smooth="yes"/>
	  <point x="95" y="819"/>
	  <point x="34" y="740"/>
	  <point x="34" y="687" type="curve" smooth="yes"/>
	  <point x="34" y="661"/>
	  <point x="49" y="636"/>
	  <point x="81" y="609" type="curve"/>
	  <point x="59" y="585"/>
	  <point x="48" y="563"/>
	  <point x="48" y="542" type="curve" smooth="yes"/>
	  <point x="48" y="517"/>
	  <point x="77" y="468"/>
	  <point x="99" y="458" type="curve"/>
	  <point x="99" y="454" type="line"/>
	  <point x="60" y="419"/>
	  <point x="41" y="385"/>
	  <point x="41" y="351" type="curve" smooth="yes"/>
	  <point x="41" y="270"/>
	  <point x="129" y="210"/>
	  <point x="211" y="210" type="curve"/>
	  <point x="357" y="225" type="line" smooth="yes"/>
	  <point x="398" y="229"/>
	  <point x="419" y="211"/>
	  <point x="419" y="176" type="curve" smooth="yes"/>
	  <point x="419" y="124"/>
	  <point x="344" y="95"/>
	  <point x="280" y="95" type="curve" smooth="yes"/>
	  <point x="222" y="95"/>
	  <point x="140" y="128"/>
	  <point x="140" y="179" type="curve"/>
	  <point x="21" y="179" type="line"/>
	  <point x="21" y="62"/>
	  <point x="149" y="-7"/>
	  <point x="273" y="-7" type="curve" smooth="yes"/>
	</contour>
  </outline>
</glyph>
<glyph name="U0C15_U0C4D.blws" format="1">
  <advance width="413"/>
  <outline>
	<contour>
	  <point x="277" y="-410"/>
	  <point x="342" y="-354"/>
	  <point x="342" y="-280" type="curve" smooth="yes"/>
	  <point x="342" y="-241"/>
	  <point x="325" y="-214"/>
	  <point x="295" y="-196" type="curve"/>
	  <point x="181" y="-216" type="line"/>
	  <point x="228" y="-216"/>
	  <point x="248" y="-234"/>
	  <point x="248" y="-262" type="curve" smooth="yes"/>
	  <point x="248" y="-291"/>
	  <point x="221" y="-315"/>
	  <point x="176" y="-315" type="curve" smooth="yes"/>
	  <point x="113" y="-315"/>
	  <point x="88" y="-283"/>
	  <point x="88" y="-217" type="curve" smooth="yes"/>
	  <point x="88" y="-161"/>
	  <point x="109" y="-133"/>
	  <point x="182" y="-94" type="curve" smooth="yes"/>
	  <point x="270" y="-46"/>
	  <point x="294" y="-18"/>
	  <point x="294" y="39" type="curve" smooth="yes"/>
	  <point x="294" y="135"/>
	  <point x="224" y="203"/>
	  <point x="133" y="203" type="curve" smooth="yes"/>
	  <point x="98" y="203"/>
	  <point x="69" y="193"/>
	  <point x="42" y="178" type="curve"/>
	  <point x="42" y="63" type="line"/>
	  <point x="69" y="81"/>
	  <point x="95" y="101"/>
	  <point x="137" y="101" type="curve" smooth="yes"/>
	  <point x="176" y="101"/>
	  <point x="199" y="84"/>
	  <point x="199" y="52" type="curve" smooth="yes"/>
	  <point x="199" y="17"/>
	  <point x="182" y="4"/>
	  <point x="108" y="-35" type="curve" smooth="yes"/>
	  <point x="29" y="-77"/>
	  <point x="-7" y="-122"/>
	  <point x="-7" y="-232" type="curve" smooth="yes"/>
	  <point x="-7" y="-341"/>
	  <point x="60" y="-410"/>
	  <point x="171" y="-410" type="curve" smooth="yes"/>
	</contour>
	<contour>
	  <point x="398" y="-216" type="line"/>
	  <point x="398" y="-130" type="line"/>
	  <point x="181" y="-130" type="line"/>
	  <point x="181" y="-216" type="line"/>
	</contour>
  </outline>
</glyph>
<glyph name="U0C15_U0C4D_U0C30_U0C4B" format="1">
  <advance width="944"/>
  <outline>
	<contour>
	  <point x="432" y="-7"/>
	  <point x="574" y="90"/>
	  <point x="574" y="207" type="curve" smooth="yes"/>
	  <point x="574" y="282"/>
	  <point x="514" y="330"/>
	  <point x="440" y="330" type="curve" smooth="yes"/>
	  <point x="392" y="330"/>
	  <point x="345" y="307"/>
	  <point x="302" y="307" type="curve" smooth="yes"/>
	  <point x="238" y="307"/>
	  <point x="206" y="322"/>
	  <point x="206" y="353" type="curve" smooth="yes"/>
	  <point x="206" y="400"/>
	  <point x="242" y="424"/>
	  <point x="314" y="424" type="curve" smooth="yes"/>
	  <point x="371" y="424"/>
	  <point x="414" y="405"/>
	  <point x="431" y="368" type="curve"/>
	  <point x="543" y="368" type="line"/>
	  <point x="543" y="465"/>
	  <point x="466" y="514"/>
	  <point x="312" y="514" type="curve"/>
	  <point x="252" y="510" type="line" smooth="yes"/>
	  <point x="220" y="507"/>
	  <point x="206" y="535"/>
	  <point x="206" y="563" type="curve" smooth="yes"/>
	  <point x="206" y="597"/>
	  <point x="273" y="620"/>
	  <point x="316" y="620" type="curve" smooth="yes"/>
	  <point x="419" y="620"/>
	  <point x="519" y="581"/>
	  <point x="519" y="491" type="curve"/>
	  <point x="633" y="491" type="line"/>
	  <point x="633" y="535"/>
	  <point x="662" y="556"/>
	  <point x="721" y="556" type="curve" smooth="yes"/>
	  <point x="777" y="556"/>
	  <point x="810" y="501"/>
	  <point x="825" y="449" type="curve"/>
	  <point x="805" y="456"/>
	  <point x="803" y="461"/>
	  <point x="770" y="461" type="curve" smooth="yes"/>
	  <point x="676" y="461"/>
	  <point x="606" y="408"/>
	  <point x="606" y="318" type="curve" smooth="yes"/>
	  <point x="606" y="249"/>
	  <point x="664" y="179"/>
	  <point x="736" y="179" type="curve" smooth="yes"/>
	  <point x="866" y="179"/>
	  <point x="932" y="272"/>
	  <point x="932" y="405" type="curve" smooth="yes"/>
	  <point x="932" y="545"/>
	  <point x="847" y="659"/>
	  <point x="718" y="659" type="curve" smooth="yes"/>
	  <point x="701" y="659"/>
	  <point x="693" y="673"/>
	  <point x="693" y="699" type="curve" smooth="yes"/>
	  <point x="693" y="731"/>
	  <point x="708" y="746"/>
	  <point x="741" y="746" type="curve" smooth="yes"/>
	  <point x="777" y="746"/>
	  <point x="795" y="727"/>
	  <point x="795" y="689" type="curve"/>
	  <point x="899" y="689" type="line"/>
	  <point x="899" y="782"/>
	  <point x="837" y="846"/>
	  <point x="749" y="846" type="curve" smooth="yes"/>
	  <point x="653" y="846"/>
	  <point x="589" y="787"/>
	  <point x="589" y="692" type="curve" smooth="yes"/>
	  <point x="589" y="675"/>
	  <point x="598" y="652"/>
	  <point x="616" y="626" type="curve"/>
	  <point x="591" y="612" type="line"/>
	  <point x="522" y="697"/>
	  <point x="484" y="725"/>
	  <point x="340" y="725" type="curve" smooth="yes"/>
	  <point x="213" y="725"/>
	  <point x="81" y="667"/>
	  <point x="81" y="549" type="curve" smooth="yes"/>
	  <point x="81" y="505"/>
	  <point x="104" y="470"/>
	  <point x="129" y="442" type="curve"/>
	  <point x="97" y="412"/>
	  <point x="81" y="381"/>
	  <point x="81" y="351" type="curve" smooth="yes"/>
	  <point x="81" y="270"/>
	  <point x="170" y="210"/>
	  <point x="252" y="210" type="curve"/>
	  <point x="398" y="225" type="line" smooth="yes"/>
	  <point x="438" y="229"/>
	  <point x="459" y="211"/>
	  <point x="459" y="176" type="curve" smooth="yes"/>
	  <point x="459" y="124"/>
	  <point x="384" y="95"/>
	  <point x="321" y="95" type="curve" smooth="yes"/>
	  <point x="262" y="95"/>
	  <point x="181" y="128"/>
	  <point x="181" y="179" type="curve"/>
	  <point x="62" y="179" type="line"/>
	  <point x="62" y="62"/>
	  <point x="190" y="-7"/>
	  <point x="314" y="-7" type="curve" smooth="yes"/>
	</contour>
	<contour>
	  <point x="468" y="-258"/>
	  <point x="599" y="-159"/>
	  <point x="634" y="-17" type="curve"/>
	  <point x="542" y="-17" type="line"/>
	  <point x="511" y="-99"/>
	  <point x="419" y="-168"/>
	  <point x="311" y="-168" type="curve" smooth="yes"/>
	  <point x="202" y="-168"/>
	  <point x="108" y="-96"/>
	  <point x="78" y="-17" type="curve"/>
	  <point x="-15" y="-17" type="line"/>
	  <point x="22" y="-153"/>
	  <point x="146" y="-258"/>
	  <point x="305" y="-258" type="curve" smooth="yes"/>
	</contour>
	<contour>
	  <point x="724" y="276"/>
	  <point x="699" y="301"/>
	  <point x="699" y="332" type="curve" smooth="yes"/>
	  <point x="699" y="358"/>
	  <point x="730" y="389"/>
	  <point x="756" y="389" type="curve" smooth="yes"/>
	  <point x="787" y="389"/>
	  <point x="811" y="363"/>
	  <point x="811" y="332" type="curve" smooth="yes"/>
	  <point x="811" y="304"/>
	  <point x="785" y="276"/>
	  <point x="756" y="276" type="curve" smooth="yes"/>
	</contour>
  </outline>
</glyph>
<glyph name="U0C16_U0C3F" format="1">
  <advance width="781"/>
  <outline>
	<contour>
	  <point x="242" y="-8"/>
	  <point x="328" y="33"/>
	  <point x="356" y="59" type="curve"/>
	  <point x="396" y="18"/>
	  <point x="424" y="-4"/>
	  <point x="504" y="-4" type="curve" smooth="yes"/>
	  <point x="640" y="-4"/>
	  <point x="753" y="113"/>
	  <point x="753" y="258" type="curve" smooth="yes"/>
	  <point x="753" y="360"/>
	  <point x="715" y="435"/>
	  <point x="640" y="482" type="curve"/>
	  <point x="680" y="522"/>
	  <point x="700" y="566"/>
	  <point x="700" y="615" type="curve" smooth="yes"/>
	  <point x="700" y="738"/>
	  <point x="631" y="799"/>
	  <point x="496" y="799" type="curve" smooth="yes"/>
	  <point x="414" y="799"/>
	  <point x="333" y="748"/>
	  <point x="333" y="673" type="curve" smooth="yes"/>
	  <point x="333" y="589"/>
	  <point x="379" y="547"/>
	  <point x="470" y="547" type="curve" smooth="yes"/>
	  <point x="518" y="547"/>
	  <point x="560" y="574"/>
	  <point x="595" y="629" type="curve"/>
	  <point x="601" y="619"/>
	  <point x="603" y="609"/>
	  <point x="603" y="596" type="curve" smooth="yes"/>
	  <point x="603" y="545"/>
	  <point x="545" y="501"/>
	  <point x="493" y="507" type="curve"/>
	  <point x="493" y="395" type="line"/>
	  <point x="500" y="396"/>
	  <point x="512" y="398"/>
	  <point x="529" y="398" type="curve" smooth="yes"/>
	  <point x="601" y="398"/>
	  <point x="640" y="334"/>
	  <point x="640" y="255" type="curve" smooth="yes"/>
	  <point x="640" y="181"/>
	  <point x="582" y="102"/>
	  <point x="508" y="102" type="curve" smooth="yes"/>
	  <point x="476" y="102"/>
	  <point x="433" y="126"/>
	  <point x="433" y="151" type="curve"/>
	  <point x="453" y="169"/>
	  <point x="473" y="243"/>
	  <point x="473" y="283" type="curve" smooth="yes"/>
	  <point x="473" y="439"/>
	  <point x="377" y="538"/>
	  <point x="235" y="538" type="curve" smooth="yes"/>
	  <point x="126" y="538"/>
	  <point x="27" y="470"/>
	  <point x="27" y="392" type="curve" smooth="yes"/>
	  <point x="27" y="306"/>
	  <point x="95" y="260"/>
	  <point x="183" y="260" type="curve" smooth="yes"/>
	  <point x="264" y="260"/>
	  <point x="304" y="316"/>
	  <point x="323" y="386" type="curve"/>
	  <point x="353" y="374"/>
	  <point x="370" y="313"/>
	  <point x="370" y="270" type="curve"/>
	  <point x="354" y="202" type="line"/>
	  <point x="315" y="231"/>
	  <point x="262" y="245"/>
	  <point x="196" y="245" type="curve" smooth="yes"/>
	  <point x="115" y="245"/>
	  <point x="21" y="191"/>
	  <point x="21" y="112" type="curve" smooth="yes"/>
	  <point x="21" y="30"/>
	  <point x="98" y="-8"/>
	  <point x="183" y="-8" type="curve" smooth="yes"/>
	</contour>
	<contour>
	  <point x="410" y="-133" type="line"/>
	  <point x="410" y="-7" type="line"/>
	  <point x="295" y="-7" type="line"/>
	  <point x="295" y="-133" type="line"/>
	</contour>
	<contour>
	  <point x="158" y="97"/>
	  <point x="141" y="106"/>
	  <point x="141" y="126" type="curve" smooth="yes"/>
	  <point x="141" y="146"/>
	  <point x="162" y="155"/>
	  <point x="203" y="155" type="curve" smooth="yes"/>
	  <point x="234" y="155"/>
	  <point x="259" y="146"/>
	  <point x="277" y="127" type="curve"/>
	  <point x="262" y="106"/>
	  <point x="234" y="97"/>
	  <point x="193" y="97" type="curve" smooth="yes"/>
	</contour>
	<contour>
	  <point x="153" y="357"/>
	  <point x="141" y="368"/>
	  <point x="141" y="392" type="curve" smooth="yes"/>
	  <point x="141" y="417"/>
	  <point x="153" y="430"/>
	  <point x="176" y="430" type="curve" smooth="yes"/>
	  <point x="202" y="430"/>
	  <point x="214" y="417"/>
	  <point x="214" y="392" type="curve" smooth="yes"/>
	  <point x="214" y="368"/>
	  <point x="202" y="357"/>
	  <point x="176" y="357" type="curve" smooth="yes"/>
	</contour>
	<contour>
	  <point x="452" y="641"/>
	  <point x="440" y="652"/>
	  <point x="440" y="673" type="curve" smooth="yes"/>
	  <point x="440" y="700"/>
	  <point x="452" y="713"/>
	  <point x="477" y="713" type="curve" smooth="yes"/>
	  <point x="501" y="713"/>
	  <point x="512" y="700"/>
	  <point x="512" y="673" type="curve" smooth="yes"/>
	  <point x="512" y="652"/>
	  <point x="501" y="641"/>
	  <point x="477" y="641" type="curve" smooth="yes"/>
	</contour>
  </outline>
</glyph>
<glyph name="U0C16_U0C40" format="1">
  <advance width="783"/>
  <outline>
	<contour>
	  <point x="252" y="-10"/>
	  <point x="324" y="26"/>
	  <point x="356" y="57" type="curve"/>
	  <point x="411" y="4"/>
	  <point x="414" y="-1"/>
	  <point x="504" y="-1" type="curve" smooth="yes"/>
	  <point x="646" y="-1"/>
	  <point x="755" y="114"/>
	  <point x="755" y="258" type="curve" smooth="yes"/>
	  <point x="755" y="358"/>
	  <point x="717" y="433"/>
	  <point x="641" y="480" type="curve"/>
	  <point x="680" y="518"/>
	  <point x="700" y="563"/>
	  <point x="700" y="612" type="curve" smooth="yes"/>
	  <point x="700" y="701"/>
	  <point x="635" y="802"/>
	  <point x="546" y="802" type="curve"/>
	  <point x="528" y="798" type="line"/>
	  <point x="508" y="811"/>
	  <point x="498" y="832"/>
	  <point x="498" y="858" type="curve" smooth="yes"/>
	  <point x="498" y="885"/>
	  <point x="514" y="899"/>
	  <point x="546" y="899" type="curve" smooth="yes"/>
	  <point x="574" y="899"/>
	  <point x="588" y="881"/>
	  <point x="588" y="846" type="curve"/>
	  <point x="693" y="846" type="line"/>
	  <point x="693" y="948"/>
	  <point x="651" y="1000"/>
	  <point x="566" y="1000" type="curve" smooth="yes"/>
	  <point x="479" y="1000"/>
	  <point x="389" y="929"/>
	  <point x="389" y="850" type="curve" smooth="yes"/>
	  <point x="389" y="843"/>
	  <point x="396" y="819"/>
	  <point x="409" y="778" type="curve"/>
	  <point x="358" y="752"/>
	  <point x="333" y="715"/>
	  <point x="333" y="672" type="curve" smooth="yes"/>
	  <point x="333" y="589"/>
	  <point x="391" y="546"/>
	  <point x="470" y="546" type="curve" smooth="yes"/>
	  <point x="519" y="546"/>
	  <point x="560" y="574"/>
	  <point x="595" y="629" type="curve"/>
	  <point x="601" y="615"/>
	  <point x="603" y="603"/>
	  <point x="603" y="595" type="curve" smooth="yes"/>
	  <point x="603" y="544"/>
	  <point x="544" y="498"/>
	  <point x="493" y="504" type="curve"/>
	  <point x="493" y="392" type="line"/>
	  <point x="528" y="396" type="line"/>
	  <point x="601" y="396"/>
	  <point x="641" y="330"/>
	  <point x="641" y="255" type="curve" smooth="yes"/>
	  <point x="641" y="179"/>
	  <point x="585" y="101"/>
	  <point x="508" y="101" type="curve" smooth="yes"/>
	  <point x="477" y="101"/>
	  <point x="434" y="121"/>
	  <point x="431" y="148" type="curve"/>
	  <point x="454" y="171"/>
	  <point x="473" y="239"/>
	  <point x="473" y="280" type="curve" smooth="yes"/>
	  <point x="473" y="440"/>
	  <point x="378" y="536"/>
	  <point x="235" y="536" type="curve" smooth="yes"/>
	  <point x="128" y="536"/>
	  <point x="27" y="469"/>
	  <point x="27" y="392" type="curve" smooth="yes"/>
	  <point x="27" y="308"/>
	  <point x="93" y="260"/>
	  <point x="181" y="260" type="curve" smooth="yes"/>
	  <point x="256" y="260"/>
	  <point x="310" y="322"/>
	  <point x="323" y="382" type="curve"/>
	  <point x="380" y="376"/>
	  <point x="373" y="285"/>
	  <point x="354" y="199" type="curve"/>
	  <point x="314" y="228"/>
	  <point x="260" y="244"/>
	  <point x="195" y="244" type="curve" smooth="yes"/>
	  <point x="116" y="244"/>
	  <point x="21" y="187"/>
	  <point x="21" y="111" type="curve" smooth="yes"/>
	  <point x="21" y="29"/>
	  <point x="96" y="-10"/>
	  <point x="181" y="-10" type="curve" smooth="yes"/>
	</contour>
	<contour>
	  <point x="409" y="-132" type="line"/>
	  <point x="409" y="-7" type="line"/>
	  <point x="294" y="-7" type="line"/>
	  <point x="294" y="-132" type="line"/>
	</contour>
	<contour>
	  <point x="160" y="95"/>
	  <point x="141" y="105"/>
	  <point x="141" y="125" type="curve" smooth="yes"/>
	  <point x="141" y="143"/>
	  <point x="162" y="151"/>
	  <point x="203" y="151" type="curve" smooth="yes"/>
	  <point x="232" y="151"/>
	  <point x="256" y="143"/>
	  <point x="277" y="126" type="curve"/>
	  <point x="262" y="105"/>
	  <point x="235" y="95"/>
	  <point x="195" y="95" type="curve" smooth="yes"/>
	</contour>
	<contour>
	  <point x="151" y="357"/>
	  <point x="140" y="368"/>
	  <point x="140" y="392" type="curve" smooth="yes"/>
	  <point x="140" y="417"/>
	  <point x="151" y="430"/>
	  <point x="175" y="430" type="curve" smooth="yes"/>
	  <point x="199" y="430"/>
	  <point x="211" y="417"/>
	  <point x="211" y="392" type="curve" smooth="yes"/>
	  <point x="211" y="368"/>
	  <point x="199" y="357"/>
	  <point x="175" y="357" type="curve" smooth="yes"/>
	</contour>
	<contour>
	  <point x="451" y="641"/>
	  <point x="438" y="652"/>
	  <point x="438" y="673" type="curve" smooth="yes"/>
	  <point x="438" y="700"/>
	  <point x="451" y="713"/>
	  <point x="476" y="713" type="curve" smooth="yes"/>
	  <point x="500" y="713"/>
	  <point x="511" y="700"/>
	  <point x="511" y="673" type="curve" smooth="yes"/>
	  <point x="511" y="652"/>
	  <point x="500" y="641"/>
	  <point x="476" y="641" type="curve" smooth="yes"/>
	</contour>
  </outline>
</glyph>
<glyph name="U0C16_U0C4A" format="1">
  <advance width="1142"/>
  <outline>
	<contour>
	  <point x="252" y="-10"/>
	  <point x="324" y="26"/>
	  <point x="356" y="57" type="curve"/>
	  <point x="411" y="4"/>
	  <point x="414" y="-1"/>
	  <point x="504" y="-1" type="curve" smooth="yes"/>
	  <point x="646" y="-1"/>
	  <point x="755" y="114"/>
	  <point x="755" y="258" type="curve" smooth="yes"/>
	  <point x="755" y="375"/>
	  <point x="689" y="483"/>
	  <point x="592" y="507" type="curve"/>
	  <point x="575" y="507" type="line"/>
	  <point x="526" y="519"/>
	  <point x="503" y="543"/>
	  <point x="503" y="577" type="curve" smooth="yes"/>
	  <point x="503" y="615"/>
	  <point x="532" y="633"/>
	  <point x="589" y="633" type="curve" smooth="yes"/>
	  <point x="672" y="633"/>
	  <point x="713" y="591"/>
	  <point x="713" y="507" type="curve"/>
	  <point x="815" y="507" type="line"/>
	  <point x="815" y="550"/>
	  <point x="843" y="573"/>
	  <point x="900" y="573" type="curve" smooth="yes"/>
	  <point x="958" y="573"/>
	  <point x="995" y="513"/>
	  <point x="1005" y="466" type="curve"/>
	  <point x="987" y="473"/>
	  <point x="981" y="479"/>
	  <point x="951" y="479" type="curve" smooth="yes"/>
	  <point x="860" y="479"/>
	  <point x="787" y="424"/>
	  <point x="787" y="335" type="curve" smooth="yes"/>
	  <point x="787" y="258"/>
	  <point x="850" y="195"/>
	  <point x="917" y="195" type="curve" smooth="yes"/>
	  <point x="1047" y="195"/>
	  <point x="1114" y="289"/>
	  <point x="1114" y="423" type="curve" smooth="yes"/>
	  <point x="1114" y="560"/>
	  <point x="1028" y="676"/>
	  <point x="897" y="676" type="curve" smooth="yes"/>
	  <point x="855" y="676"/>
	  <point x="787" y="647"/>
	  <point x="773" y="622" type="curve"/>
	  <point x="737" y="696"/>
	  <point x="699" y="729"/>
	  <point x="601" y="729" type="curve" smooth="yes"/>
	  <point x="470" y="729"/>
	  <point x="406" y="676"/>
	  <point x="406" y="568" type="curve" smooth="yes"/>
	  <point x="406" y="488"/>
	  <point x="465" y="441"/>
	  <point x="531" y="426" type="curve" smooth="yes"/>
	  <point x="612" y="406"/>
	  <point x="658" y="333"/>
	  <point x="658" y="256" type="curve" smooth="yes"/>
	  <point x="658" y="172"/>
	  <point x="594" y="99"/>
	  <point x="508" y="99" type="curve" smooth="yes"/>
	  <point x="475" y="99"/>
	  <point x="434" y="118"/>
	  <point x="431" y="148" type="curve"/>
	  <point x="454" y="171"/>
	  <point x="473" y="239"/>
	  <point x="473" y="280" type="curve" smooth="yes"/>
	  <point x="473" y="440"/>
	  <point x="378" y="536"/>
	  <point x="235" y="536" type="curve" smooth="yes"/>
	  <point x="128" y="536"/>
	  <point x="27" y="469"/>
	  <point x="27" y="392" type="curve" smooth="yes"/>
	  <point x="27" y="308"/>
	  <point x="93" y="260"/>
	  <point x="181" y="260" type="curve" smooth="yes"/>
	  <point x="256" y="260"/>
	  <point x="310" y="322"/>
	  <point x="323" y="382" type="curve"/>
	  <point x="357" y="379"/>
	  <point x="370" y="310"/>
	  <point x="370" y="267" type="curve"/>
	  <point x="354" y="199" type="line"/>
	  <point x="314" y="228"/>
	  <point x="260" y="244"/>
	  <point x="195" y="244" type="curve" smooth="yes"/>
	  <point x="116" y="244"/>
	  <point x="21" y="187"/>
	  <point x="21" y="111" type="curve" smooth="yes"/>
	  <point x="21" y="29"/>
	  <point x="96" y="-10"/>
	  <point x="181" y="-10" type="curve" smooth="yes"/>
	</contour>
	<contour>
	  <point x="409" y="-133" type="line"/>
	  <point x="409" y="-7" type="line"/>
	  <point x="294" y="-7" type="line"/>
	  <point x="294" y="-133" type="line"/>
	</contour>
	<contour>
	  <point x="160" y="95"/>
	  <point x="141" y="105"/>
	  <point x="141" y="125" type="curve" smooth="yes"/>
	  <point x="141" y="143"/>
	  <point x="162" y="151"/>
	  <point x="203" y="151" type="curve" smooth="yes"/>
	  <point x="232" y="151"/>
	  <point x="256" y="143"/>
	  <point x="277" y="126" type="curve"/>
	  <point x="262" y="105"/>
	  <point x="235" y="95"/>
	  <point x="195" y="95" type="curve" smooth="yes"/>
	</contour>
	<contour>
	  <point x="148" y="350"/>
	  <point x="134" y="364"/>
	  <point x="134" y="392" type="curve" smooth="yes"/>
	  <point x="134" y="421"/>
	  <point x="148" y="435"/>
	  <point x="175" y="435" type="curve" smooth="yes"/>
	  <point x="202" y="435"/>
	  <point x="216" y="421"/>
	  <point x="216" y="392" type="curve" smooth="yes"/>
	  <point x="216" y="364"/>
	  <point x="202" y="350"/>
	  <point x="175" y="350" type="curve" smooth="yes"/>
	</contour>
	<contour>
	  <point x="905" y="295"/>
	  <point x="881" y="319"/>
	  <point x="881" y="349" type="curve" smooth="yes"/>
	  <point x="881" y="380"/>
	  <point x="904" y="405"/>
	  <point x="935" y="405" type="curve" smooth="yes"/>
	  <point x="966" y="405"/>
	  <point x="993" y="377"/>
	  <point x="993" y="349" type="curve" smooth="yes"/>
	  <point x="990" y="316"/>
	  <point x="968" y="295"/>
	  <point x="935" y="295" type="curve" smooth="yes"/>
	</contour>
  </outline>
</glyph>
<glyph name="U0C16_U0C4B" format="1">
  <advance width="1142"/>
  <outline>
	<contour>
	  <point x="252" y="-10"/>
	  <point x="324" y="26"/>
	  <point x="356" y="57" type="curve"/>
	  <point x="411" y="4"/>
	  <point x="414" y="-1"/>
	  <point x="504" y="-1" type="curve" smooth="yes"/>
	  <point x="646" y="-1"/>
	  <point x="755" y="114"/>
	  <point x="755" y="258" type="curve" smooth="yes"/>
	  <point x="755" y="352"/>
	  <point x="715" y="428"/>
	  <point x="655" y="475" type="curve" smooth="yes"/>
	  <point x="613" y="508"/>
	  <point x="503" y="512"/>
	  <point x="503" y="577" type="curve" smooth="yes"/>
	  <point x="503" y="615"/>
	  <point x="532" y="633"/>
	  <point x="589" y="633" type="curve" smooth="yes"/>
	  <point x="672" y="633"/>
	  <point x="713" y="591"/>
	  <point x="713" y="507" type="curve"/>
	  <point x="815" y="507" type="line"/>
	  <point x="815" y="550"/>
	  <point x="843" y="573"/>
	  <point x="900" y="573" type="curve" smooth="yes"/>
	  <point x="958" y="573"/>
	  <point x="995" y="513"/>
	  <point x="1005" y="466" type="curve"/>
	  <point x="987" y="473"/>
	  <point x="981" y="479"/>
	  <point x="951" y="479" type="curve" smooth="yes"/>
	  <point x="860" y="479"/>
	  <point x="787" y="424"/>
	  <point x="787" y="335" type="curve" smooth="yes"/>
	  <point x="787" y="258"/>
	  <point x="850" y="195"/>
	  <point x="917" y="195" type="curve" smooth="yes"/>
	  <point x="1047" y="195"/>
	  <point x="1114" y="289"/>
	  <point x="1114" y="423" type="curve" smooth="yes"/>
	  <point x="1114" y="560"/>
	  <point x="1028" y="676"/>
	  <point x="897" y="676" type="curve" smooth="yes"/>
	  <point x="882" y="676"/>
	  <point x="874" y="692"/>
	  <point x="874" y="715" type="curve" smooth="yes"/>
	  <point x="874" y="748"/>
	  <point x="890" y="764"/>
	  <point x="923" y="764" type="curve" smooth="yes"/>
	  <point x="959" y="764"/>
	  <point x="977" y="745"/>
	  <point x="977" y="706" type="curve"/>
	  <point x="1079" y="706" type="line"/>
	  <point x="1079" y="798"/>
	  <point x="1018" y="864"/>
	  <point x="930" y="864" type="curve" smooth="yes"/>
	  <point x="835" y="864"/>
	  <point x="770" y="803"/>
	  <point x="770" y="710" type="curve" smooth="yes"/>
	  <point x="770" y="679"/>
	  <point x="793" y="660"/>
	  <point x="808" y="641" type="curve"/>
	  <point x="763" y="629" type="line"/>
	  <point x="735" y="703"/>
	  <point x="696" y="729"/>
	  <point x="601" y="729" type="curve" smooth="yes"/>
	  <point x="470" y="729"/>
	  <point x="406" y="676"/>
	  <point x="406" y="568" type="curve" smooth="yes"/>
	  <point x="406" y="464"/>
	  <point x="507" y="446"/>
	  <point x="581" y="407" type="curve" smooth="yes"/>
	  <point x="637" y="378"/>
	  <point x="658" y="321"/>
	  <point x="658" y="256" type="curve" smooth="yes"/>
	  <point x="658" y="172"/>
	  <point x="594" y="99"/>
	  <point x="508" y="99" type="curve" smooth="yes"/>
	  <point x="475" y="99"/>
	  <point x="434" y="118"/>
	  <point x="431" y="148" type="curve"/>
	  <point x="454" y="171"/>
	  <point x="473" y="239"/>
	  <point x="473" y="280" type="curve" smooth="yes"/>
	  <point x="473" y="440"/>
	  <point x="378" y="536"/>
	  <point x="235" y="536" type="curve" smooth="yes"/>
	  <point x="128" y="536"/>
	  <point x="27" y="469"/>
	  <point x="27" y="392" type="curve" smooth="yes"/>
	  <point x="27" y="308"/>
	  <point x="93" y="260"/>
	  <point x="181" y="260" type="curve" smooth="yes"/>
	  <point x="256" y="260"/>
	  <point x="310" y="322"/>
	  <point x="323" y="382" type="curve"/>
	  <point x="357" y="379"/>
	  <point x="370" y="310"/>
	  <point x="370" y="267" type="curve"/>
	  <point x="354" y="199" type="line"/>
	  <point x="314" y="228"/>
	  <point x="260" y="244"/>
	  <point x="195" y="244" type="curve" smooth="yes"/>
	  <point x="116" y="244"/>
	  <point x="21" y="187"/>
	  <point x="21" y="111" type="curve" smooth="yes"/>
	  <point x="21" y="29"/>
	  <point x="96" y="-10"/>
	  <point x="181" y="-10" type="curve" smooth="yes"/>
	</contour>
	<contour>
	  <point x="409" y="-133" type="line"/>
	  <point x="409" y="-7" type="line"/>
	  <point x="294" y="-7" type="line"/>
	  <point x="294" y="-133" type="line"/>
	</contour>
	<contour>
	  <point x="160" y="95"/>
	  <point x="141" y="105"/>
	  <point x="141" y="125" type="curve" smooth="yes"/>
	  <point x="141" y="143"/>
	  <point x="162" y="151"/>
	  <point x="203" y="151" type="curve" smooth="yes"/>
	  <point x="232" y="151"/>
	  <point x="256" y="143"/>
	  <point x="277" y="126" type="curve"/>
	  <point x="262" y="105"/>
	  <point x="235" y="95"/>
	  <point x="195" y="95" type="curve" smooth="yes"/>
	</contour>
	<contour>
	  <point x="148" y="350"/>
	  <point x="134" y="364"/>
	  <point x="134" y="392" type="curve" smooth="yes"/>
	  <point x="134" y="421"/>
	  <point x="148" y="435"/>
	  <point x="175" y="435" type="curve" smooth="yes"/>
	  <point x="202" y="435"/>
	  <point x="216" y="421"/>
	  <point x="216" y="392" type="curve" smooth="yes"/>
	  <point x="216" y="364"/>
	  <point x="202" y="350"/>
	  <point x="175" y="350" type="curve" smooth="yes"/>
	</contour>
	<contour>
	  <point x="905" y="295"/>
	  <point x="881" y="319"/>
	  <point x="881" y="349" type="curve" smooth="yes"/>
	  <point x="881" y="380"/>
	  <point x="904" y="405"/>
	  <point x="935" y="405" type="curve" smooth="yes"/>
	  <point x="966" y="405"/>
	  <point x="993" y="377"/>
	  <point x="993" y="349" type="curve" smooth="yes"/>
	  <point x="990" y="316"/>
	  <point x="968" y="295"/>
	  <point x="935" y="295" type="curve" smooth="yes"/>
	</contour>
  </outline>
</glyph>
<glyph name="U0C16_U0C4D_U0C30_U0C46" format="1">
  <advance width="773"/>
  <outline>
	<contour>
	  <point x="254" y="-10"/>
	  <point x="327" y="26"/>
	  <point x="358" y="57" type="curve"/>
	  <point x="414" y="4"/>
	  <point x="417" y="-1"/>
	  <point x="507" y="-1" type="curve" smooth="yes"/>
	  <point x="649" y="-1"/>
	  <point x="757" y="114"/>
	  <point x="757" y="258" type="curve" smooth="yes"/>
	  <point x="757" y="342"/>
	  <point x="727" y="424"/>
	  <point x="671" y="465" type="curve"/>
	  <point x="709" y="490"/>
	  <point x="732" y="532"/>
	  <point x="732" y="574" type="curve" smooth="yes"/>
	  <point x="732" y="651"/>
	  <point x="689" y="690"/>
	  <point x="603" y="690" type="curve" smooth="yes"/>
	  <point x="196" y="690" type="line"/>
	  <point x="196" y="596" type="line"/>
	  <point x="575" y="596" type="line" smooth="yes"/>
	  <point x="609" y="596"/>
	  <point x="626" y="582"/>
	  <point x="626" y="553" type="curve" smooth="yes"/>
	  <point x="626" y="525"/>
	  <point x="605" y="511"/>
	  <point x="563" y="511" type="curve" smooth="yes"/>
	  <point x="494" y="511" type="line"/>
	  <point x="494" y="430" type="line"/>
	  <point x="507" y="430" type="line"/>
	  <point x="609" y="415"/>
	  <point x="661" y="351"/>
	  <point x="661" y="256" type="curve" smooth="yes"/>
	  <point x="661" y="172"/>
	  <point x="597" y="99"/>
	  <point x="511" y="99" type="curve" smooth="yes"/>
	  <point x="478" y="99"/>
	  <point x="437" y="118"/>
	  <point x="434" y="148" type="curve"/>
	  <point x="456" y="171"/>
	  <point x="476" y="239"/>
	  <point x="476" y="280" type="curve" smooth="yes"/>
	  <point x="476" y="440"/>
	  <point x="381" y="536"/>
	  <point x="238" y="536" type="curve" smooth="yes"/>
	  <point x="131" y="536"/>
	  <point x="29" y="469"/>
	  <point x="29" y="392" type="curve" smooth="yes"/>
	  <point x="29" y="308"/>
	  <point x="95" y="260"/>
	  <point x="183" y="260" type="curve" smooth="yes"/>
	  <point x="259" y="260"/>
	  <point x="313" y="322"/>
	  <point x="326" y="382" type="curve"/>
	  <point x="359" y="379"/>
	  <point x="372" y="310"/>
	  <point x="372" y="267" type="curve"/>
	  <point x="357" y="199" type="line"/>
	  <point x="316" y="228"/>
	  <point x="263" y="244"/>
	  <point x="197" y="244" type="curve" smooth="yes"/>
	  <point x="118" y="244"/>
	  <point x="24" y="187"/>
	  <point x="24" y="111" type="curve" smooth="yes"/>
	  <point x="24" y="29"/>
	  <point x="99" y="-10"/>
	  <point x="183" y="-10" type="curve" smooth="yes"/>
	</contour>
	<contour>
	  <point x="536" y="-259"/>
	  <point x="687" y="-167"/>
	  <point x="732" y="-18" type="curve"/>
	  <point x="626" y="-18" type="line"/>
	  <point x="589" y="-103"/>
	  <point x="482" y="-171"/>
	  <point x="364" y="-171" type="curve" smooth="yes"/>
	  <point x="244" y="-171"/>
	  <point x="135" y="-103"/>
	  <point x="101" y="-18" type="curve"/>
	  <point x="-7" y="-18" type="line"/>
	  <point x="38" y="-160"/>
	  <point x="185" y="-259"/>
	  <point x="357" y="-259" type="curve" smooth="yes"/>
	</contour>
	<contour>
	  <point x="412" y="-132" type="line"/>
	  <point x="412" y="-7" type="line"/>
	  <point x="297" y="-7" type="line"/>
	  <point x="297" y="-132" type="line"/>
	</contour>
	<contour>
	  <point x="162" y="95"/>
	  <point x="144" y="105"/>
	  <point x="144" y="125" type="curve" smooth="yes"/>
	  <point x="144" y="143"/>
	  <point x="165" y="151"/>
	  <point x="206" y="151" type="curve" smooth="yes"/>
	  <point x="235" y="151"/>
	  <point x="259" y="143"/>
	  <point x="280" y="126" type="curve"/>
	  <point x="265" y="105"/>
	  <point x="238" y="95"/>
	  <point x="197" y="95" type="curve" smooth="yes"/>
	</contour>
	<contour>
	  <point x="151" y="350"/>
	  <point x="137" y="364"/>
	  <point x="137" y="392" type="curve" smooth="yes"/>
	  <point x="137" y="421"/>
	  <point x="151" y="435"/>
	  <point x="178" y="435" type="curve" smooth="yes"/>
	  <point x="204" y="435"/>
	  <point x="218" y="421"/>
	  <point x="218" y="392" type="curve" smooth="yes"/>
	  <point x="218" y="364"/>
	  <point x="204" y="350"/>
	  <point x="178" y="350" type="curve" smooth="yes"/>
	</contour>
  </outline>
</glyph>
<glyph name="U0C16_U0C4D_U0C30_U0C4A" format="1">
  <advance width="1133"/>
  <outline>
	<contour>
	  <point x="254" y="-10"/>
	  <point x="327" y="26"/>
	  <point x="358" y="57" type="curve"/>
	  <point x="414" y="4"/>
	  <point x="417" y="-1"/>
	  <point x="507" y="-1" type="curve" smooth="yes"/>
	  <point x="649" y="-1"/>
	  <point x="757" y="114"/>
	  <point x="757" y="258" type="curve" smooth="yes"/>
	  <point x="757" y="375"/>
	  <point x="691" y="483"/>
	  <point x="595" y="507" type="curve"/>
	  <point x="578" y="507" type="line"/>
	  <point x="529" y="519"/>
	  <point x="505" y="543"/>
	  <point x="505" y="577" type="curve" smooth="yes"/>
	  <point x="505" y="615"/>
	  <point x="535" y="633"/>
	  <point x="592" y="633" type="curve" smooth="yes"/>
	  <point x="675" y="633"/>
	  <point x="715" y="591"/>
	  <point x="715" y="507" type="curve"/>
	  <point x="818" y="507" type="line"/>
	  <point x="818" y="550"/>
	  <point x="846" y="573"/>
	  <point x="903" y="573" type="curve" smooth="yes"/>
	  <point x="961" y="573"/>
	  <point x="998" y="513"/>
	  <point x="1008" y="466" type="curve"/>
	  <point x="989" y="473"/>
	  <point x="983" y="479"/>
	  <point x="953" y="479" type="curve" smooth="yes"/>
	  <point x="862" y="479"/>
	  <point x="790" y="424"/>
	  <point x="790" y="335" type="curve" smooth="yes"/>
	  <point x="790" y="258"/>
	  <point x="852" y="195"/>
	  <point x="920" y="195" type="curve" smooth="yes"/>
	  <point x="1049" y="195"/>
	  <point x="1117" y="289"/>
	  <point x="1117" y="423" type="curve" smooth="yes"/>
	  <point x="1117" y="560"/>
	  <point x="1031" y="676"/>
	  <point x="900" y="676" type="curve" smooth="yes"/>
	  <point x="858" y="676"/>
	  <point x="790" y="647"/>
	  <point x="776" y="622" type="curve"/>
	  <point x="740" y="696"/>
	  <point x="702" y="729"/>
	  <point x="603" y="729" type="curve" smooth="yes"/>
	  <point x="473" y="729"/>
	  <point x="409" y="676"/>
	  <point x="409" y="568" type="curve" smooth="yes"/>
	  <point x="409" y="488"/>
	  <point x="468" y="441"/>
	  <point x="533" y="426" type="curve" smooth="yes"/>
	  <point x="615" y="406"/>
	  <point x="661" y="333"/>
	  <point x="661" y="256" type="curve" smooth="yes"/>
	  <point x="661" y="172"/>
	  <point x="597" y="99"/>
	  <point x="511" y="99" type="curve" smooth="yes"/>
	  <point x="478" y="99"/>
	  <point x="437" y="118"/>
	  <point x="434" y="148" type="curve"/>
	  <point x="456" y="171"/>
	  <point x="476" y="239"/>
	  <point x="476" y="280" type="curve" smooth="yes"/>
	  <point x="476" y="440"/>
	  <point x="381" y="536"/>
	  <point x="238" y="536" type="curve" smooth="yes"/>
	  <point x="131" y="536"/>
	  <point x="29" y="469"/>
	  <point x="29" y="392" type="curve" smooth="yes"/>
	  <point x="29" y="308"/>
	  <point x="95" y="260"/>
	  <point x="183" y="260" type="curve" smooth="yes"/>
	  <point x="259" y="260"/>
	  <point x="313" y="322"/>
	  <point x="326" y="382" type="curve"/>
	  <point x="359" y="379"/>
	  <point x="372" y="310"/>
	  <point x="372" y="267" type="curve"/>
	  <point x="357" y="199" type="line"/>
	  <point x="316" y="228"/>
	  <point x="263" y="244"/>
	  <point x="197" y="244" type="curve" smooth="yes"/>
	  <point x="118" y="244"/>
	  <point x="24" y="187"/>
	  <point x="24" y="111" type="curve" smooth="yes"/>
	  <point x="24" y="29"/>
	  <point x="99" y="-10"/>
	  <point x="183" y="-10" type="curve" smooth="yes"/>
	</contour>
	<contour>
	  <point x="536" y="-259"/>
	  <point x="687" y="-167"/>
	  <point x="732" y="-18" type="curve"/>
	  <point x="626" y="-18" type="line"/>
	  <point x="589" y="-103"/>
	  <point x="482" y="-171"/>
	  <point x="364" y="-171" type="curve" smooth="yes"/>
	  <point x="244" y="-171"/>
	  <point x="135" y="-103"/>
	  <point x="101" y="-18" type="curve"/>
	  <point x="-7" y="-18" type="line"/>
	  <point x="38" y="-160"/>
	  <point x="185" y="-259"/>
	  <point x="357" y="-259" type="curve" smooth="yes"/>
	</contour>
	<contour>
	  <point x="412" y="-130" type="line"/>
	  <point x="412" y="-7" type="line"/>
	  <point x="297" y="-7" type="line"/>
	  <point x="297" y="-130" type="line"/>
	</contour>
	<contour>
	  <point x="162" y="95"/>
	  <point x="144" y="105"/>
	  <point x="144" y="125" type="curve" smooth="yes"/>
	  <point x="144" y="143"/>
	  <point x="165" y="151"/>
	  <point x="206" y="151" type="curve" smooth="yes"/>
	  <point x="235" y="151"/>
	  <point x="259" y="143"/>
	  <point x="280" y="126" type="curve"/>
	  <point x="265" y="105"/>
	  <point x="238" y="95"/>
	  <point x="197" y="95" type="curve" smooth="yes"/>
	</contour>
	<contour>
	  <point x="151" y="350"/>
	  <point x="137" y="364"/>
	  <point x="137" y="392" type="curve" smooth="yes"/>
	  <point x="137" y="421"/>
	  <point x="151" y="435"/>
	  <point x="178" y="435" type="curve" smooth="yes"/>
	  <point x="204" y="435"/>
	  <point x="218" y="421"/>
	  <point x="218" y="392" type="curve" smooth="yes"/>
	  <point x="218" y="364"/>
	  <point x="204" y="350"/>
	  <point x="178" y="350" type="curve" smooth="yes"/>
	</contour>
	<contour>
	  <point x="908" y="295"/>
	  <point x="883" y="319"/>
	  <point x="883" y="349" type="curve" smooth="yes"/>
	  <point x="883" y="380"/>
	  <point x="907" y="405"/>
	  <point x="938" y="405" type="curve" smooth="yes"/>
	  <point x="969" y="405"/>
	  <point x="995" y="377"/>
	  <point x="995" y="349" type="curve" smooth="yes"/>
	  <point x="993" y="316"/>
	  <point x="971" y="295"/>
	  <point x="938" y="295" type="curve" smooth="yes"/>
	</contour>
  </outline>
</glyph>
<glyph name="U0C17_U0C40" format="1">
  <advance width="685"/>
  <outline>
	<contour>
	  <point x="235" y="95" type="line"/>
	  <point x="175" y="118"/>
	  <point x="144" y="165"/>
	  <point x="144" y="238" type="curve" smooth="yes"/>
	  <point x="144" y="351"/>
	  <point x="223" y="442"/>
	  <point x="335" y="442" type="curve" smooth="yes"/>
	  <point x="441" y="442"/>
	  <point x="532" y="372"/>
	  <point x="532" y="265" type="curve" smooth="yes"/>
	  <point x="532" y="174"/>
	  <point x="497" y="115"/>
	  <point x="426" y="88" type="curve"/>
	  <point x="504" y="-7" type="line"/>
	  <point x="606" y="48"/>
	  <point x="657" y="139"/>
	  <point x="657" y="265" type="curve" smooth="yes"/>
	  <point x="657" y="374"/>
	  <point x="601" y="461"/>
	  <point x="487" y="526" type="curve"/>
	  <point x="521" y="563"/>
	  <point x="550" y="597"/>
	  <point x="550" y="666" type="curve" smooth="yes"/>
	  <point x="550" y="778"/>
	  <point x="447" y="857"/>
	  <point x="347" y="857" type="curve" smooth="yes"/>
	  <point x="329" y="857" type="line"/>
	  <point x="309" y="875"/>
	  <point x="300" y="893"/>
	  <point x="300" y="910" type="curve" smooth="yes"/>
	  <point x="300" y="945"/>
	  <point x="315" y="963"/>
	  <point x="347" y="963" type="curve" smooth="yes"/>
	  <point x="393" y="963"/>
	  <point x="417" y="945"/>
	  <point x="417" y="904" type="curve"/>
	  <point x="526" y="904" type="line"/>
	  <point x="526" y="925" type="line" smooth="yes"/>
	  <point x="526" y="1009"/>
	  <point x="452" y="1065"/>
	  <point x="361" y="1065" type="curve" smooth="yes"/>
	  <point x="269" y="1065"/>
	  <point x="190" y="1014"/>
	  <point x="190" y="928" type="curve" smooth="yes"/>
	  <point x="190" y="893"/>
	  <point x="204" y="861"/>
	  <point x="217" y="836" type="curve"/>
	  <point x="169" y="836"/>
	  <point x="115" y="775"/>
	  <point x="115" y="731" type="curve" smooth="yes"/>
	  <point x="115" y="661"/>
	  <point x="174" y="612"/>
	  <point x="245" y="612" type="curve" smooth="yes"/>
	  <point x="307" y="612"/>
	  <point x="384" y="653"/>
	  <point x="399" y="707" type="curve"/>
	  <point x="430" y="707"/>
	  <point x="445" y="690"/>
	  <point x="445" y="655" type="curve" smooth="yes"/>
	  <point x="445" y="596"/>
	  <point x="378" y="549"/>
	  <point x="318" y="549" type="curve" smooth="yes"/>
	  <point x="243" y="549"/>
	  <point x="218" y="554"/>
	  <point x="183" y="592" type="curve"/>
	  <point x="95" y="519" type="line"/>
	  <point x="139" y="483" type="line"/>
	  <point x="60" y="420"/>
	  <point x="21" y="335"/>
	  <point x="21" y="230" type="curve" smooth="yes"/>
	  <point x="21" y="126"/>
	  <point x="69" y="46"/>
	  <point x="164" y="-11" type="curve"/>
	</contour>
	<contour>
	  <point x="241" y="701"/>
	  <point x="225" y="710"/>
	  <point x="225" y="727" type="curve" smooth="yes"/>
	  <point x="225" y="745"/>
	  <point x="242" y="753"/>
	  <point x="269" y="753" type="curve" smooth="yes"/>
	  <point x="297" y="753"/>
	  <point x="311" y="745"/>
	  <point x="311" y="729" type="curve" smooth="yes"/>
	  <point x="311" y="711"/>
	  <point x="298" y="701"/>
	  <point x="272" y="701" type="curve" smooth="yes"/>
	</contour>
  </outline>
</glyph>
